SplineFontDB: 3.2
FontName: ProggyForeverRegular
FullName: ProggyForever
FamilyName: ProggyForever
Weight: Regular
Copyright: Copyright (c) 2026 Disco Hello, Copyright (c) 2019,2023 Tristan Grimmer
Version: Version 1.000
ItalicAngle: 0
UnderlinePosition: 0
UnderlineWidth: 0
Ascent: 800
Descent: 200
InvalidEm: 0
sfntRevision: 0x00010000
LayerCount: 2
Layer: 0 0 "Back" 1
Layer: 1 0 "Fore" 0
XUID: [1021 241 -561272057 4488]
StyleMap: 0x0040
FSType: 0
OS2Version: 4
OS2_WeightWidthSlopeOnly: 0
OS2_UseTypoMetrics: 0
CreationTime: 1770654402
ModificationTime: 1770655747
PfmFamily: 81
TTFWeight: 400
TTFWidth: 5
LineGap: 0
VLineGap: 0
Panose: 0 0 0 0 0 0 0 0 0 0
OS2TypoAscent: 643
OS2TypoAOffset: 0
OS2TypoDescent: -185
OS2TypoDOffset: 0
OS2TypoLinegap: 0
OS2WinAscent: 687
OS2WinAOffset: 0
OS2WinDescent: 187
OS2WinDOffset: 0
HheadAscent: 643
HheadAOffset: 0
HheadDescent: -185
HheadDOffset: 0
OS2SubXSize: 650
OS2SubYSize: 699
OS2SubXOff: 0
OS2SubYOff: 140
OS2SupXSize: 650
OS2SupYSize: 699
OS2SupXOff: 0
OS2SupYOff: 479
OS2StrikeYSize: 49
OS2StrikeYPos: 258
OS2CapHeight: 518
OS2XHeight: 389
OS2Vendor: 'XXXX'
OS2CodePages: 00000003.00000000
OS2UnicodeRanges: 80000007.10000002.00000000.00000000
DEI: 91125
LangName: 1033 "" "" "" "1.012;ProggyForeverRegular" "" "Version 1.012;Fontself Maker 3.5.17" "" "" "" "Tristan Grimmer, Thiebault Courot" "" "" "" "MIT License" "" "" "ProggyForever" "Regular"
Encoding: UnicodeBmp
UnicodeInterp: none
NameList: AGL For New Fonts
DisplaySize: -48
AntiAlias: 1
FitToEm: 0
WinInfo: 0 38 14
BeginChars: 65537 192

StartChar: .notdef
Encoding: 65536 -1 0
Width: 440
GlyphClass: 1
Flags: W
LayerCount: 2
Fore
SplineSet
6.5 700 m 1
 433.5 700 l 1
 433.5 0 l 1
 6.5 0 l 1
 6.5 700 l 1
34.5 680 m 1
 219.5 371 l 1
 405.5 680 l 1
 34.5 680 l 1
207.5 350 m 1
 27.5 650 l 1
 27.5 49 l 1
 207.5 350 l 1
220.5 329 m 1
 35.5 21 l 1
 405.5 21 l 1
 220.5 329 l 1
232.5 350 m 1
 413.5 47 l 1
 413.5 652 l 1
 232.5 350 l 1
EndSplineSet
EndChar

StartChar: exclam
Encoding: 33 33 2
Width: 440
GlyphClass: 1
Flags: W
LayerCount: 2
Fore
SplineSet
251.0234375 195.745117188 m 1
 192.06640625 195.745117188 l 1
 177.815429688 455.536132812 l 1
 178.634765625 546.65234375 l 1
 262.184570312 546.65234375 l 1
 262.184570312 455.536132812 l 1
 251.0234375 195.745117188 l 1
220 104.62890625 m 0
 249.573242188 104.62890625 273.534179688 80.8564453125 273.534179688 51.53515625 c 0
 273.534179688 22.2138671875 249.573242188 -1.55859375 220 -1.55859375 c 0
 190.426757812 -1.55859375 166.465820312 22.2138671875 166.465820312 51.53515625 c 0
 166.465820312 80.8564453125 190.426757812 104.62890625 220 104.62890625 c 0
EndSplineSet
EndChar

StartChar: quotedbl
Encoding: 34 34 3
Width: 440
GlyphClass: 1
Flags: W
LayerCount: 2
Fore
SplineSet
180.817382812 326.057617188 m 1
 116.5 326.057617188 l 1
 116.5 518.126953125 l 1
 180.817382812 518.126953125 l 1
 180.817382812 326.057617188 l 1
323.072265625 326.057617188 m 1
 258.754882812 326.057617188 l 1
 258.754882812 518.126953125 l 1
 323.072265625 518.126953125 l 1
 323.072265625 326.057617188 l 1
EndSplineSet
EndChar

StartChar: numbersign
Encoding: 35 35 4
Width: 440
GlyphClass: 1
Flags: W
LayerCount: 2
Fore
SplineSet
446.751953125 316.220703125 m 1
 342.959960938 316.220703125 l 1
 312.377929688 201.017578125 l 1
 403.68359375 201.017578125 l 1
 403.68359375 147.293945312 l 1
 298.127929688 147.293945312 l 1
 260.041992188 3.904296875 l 1
 201.399414062 3.904296875 l 1
 239.485351562 147.293945312 l 1
 147.423828125 147.293945312 l 1
 109.337890625 3.904296875 l 1
 50.6953125 3.904296875 l 1
 88.78125 147.293945312 l 1
 -7.0009765625 147.293945312 l 1
 -7.0009765625 201.017578125 l 1
 103.032226562 201.017578125 l 1
 133.614257812 316.220703125 l 1
 36.1298828125 316.220703125 l 1
 36.1298828125 369.944335938 l 1
 147.865234375 369.944335938 l 1
 186.140625 514.02734375 l 1
 244.783203125 514.02734375 l 1
 206.5078125 369.944335938 l 1
 298.569335938 369.944335938 l 1
 336.844726562 514.02734375 l 1
 395.487304688 514.02734375 l 1
 357.211914062 369.944335938 l 1
 446.751953125 369.944335938 l 1
 446.751953125 316.220703125 l 1
253.735351562 201.017578125 m 1
 284.317382812 316.220703125 l 1
 192.255859375 316.220703125 l 1
 161.673828125 201.017578125 l 1
 253.735351562 201.017578125 l 1
EndSplineSet
EndChar

StartChar: dollar
Encoding: 36 36 5
Width: 440
GlyphClass: 1
Flags: W
LayerCount: 2
Fore
SplineSet
253.612304688 288.791015625 m 1
 253.612304688 288.853515625 l 1
 302.102539062 280.782226562 390.065429688 252.28125 390.065429688 158.895507812 c 0
 390.065429688 78.1201171875 335.017578125 39.27734375 249.450195312 30.197265625 c 1
 249.450195312 -14.2578125 l 1
 188.979492188 -14.2578125 l 1
 188.979492188 28.6201171875 l 1
 107.321289062 31.9619140625 56.056640625 55.6708984375 56.056640625 55.6708984375 c 1
 56.056640625 119.10546875 l 1
 56.056640625 119.10546875 106.501953125 85.181640625 188.979492188 78.6865234375 c 1
 188.979492188 240.741210938 l 1
 115.833984375 254.61328125 49.4990234375 278.637695312 49.4990234375 358.782226562 c 0
 49.4990234375 430.288085938 102.970703125 476.697265625 188.979492188 488.236328125 c 1
 188.979492188 533.321289062 l 1
 249.450195312 533.321289062 l 1
 249.450195312 490.569335938 l 1
 305.12890625 487.038085938 359.483398438 467.6171875 359.483398438 467.6171875 c 1
 359.483398438 406.389648438 l 1
 359.483398438 406.389648438 316.479492188 434.702148438 249.451171875 438.548828125 c 1
 249.451171875 289.484375 l 2
 250.775390625 289.232421875 252.3515625 288.98046875 253.612304688 288.791015625 c 1
188.979492188 300.833984375 m 1
 188.979492188 435.836914062 l 1
 142.318359375 428.14453125 117.159179688 406.263671875 117.159179688 362.565429688 c 0
 117.159179688 327.317382812 151.3984375 310.481445312 188.979492188 300.833984375 c 1
249.450195312 81.01953125 m 1
 288.103515625 89.216796875 321.649414062 112.295898438 321.649414062 156.24609375 c 0
 321.649414062 198.3671875 294.661132812 216.149414062 249.450195312 228.129882812 c 1
 249.450195312 81.01953125 l 1
EndSplineSet
EndChar

StartChar: percent
Encoding: 37 37 6
Width: 440
GlyphClass: 1
Flags: W
LayerCount: 2
Fore
SplineSet
208.603515625 409.606445312 m 0
 208.603515625 356.891601562 163.204101562 314.139648438 107.083984375 314.139648438 c 0
 50.9638671875 314.139648438 5.5 356.891601562 5.5 409.606445312 c 0
 5.5 462.321289062 51.0263671875 505.073242188 107.083007812 505.073242188 c 0
 163.139648438 505.073242188 208.603515625 462.321289062 208.603515625 409.606445312 c 0
57.458984375 409.606445312 m 0
 57.458984375 383.81640625 79.84375 362.943359375 107.399414062 362.943359375 c 0
 134.955078125 362.943359375 157.33984375 383.815429688 157.33984375 409.60546875 c 0
 157.33984375 435.395507812 134.955078125 456.267578125 107.399414062 456.267578125 c 0
 79.84375 456.267578125 57.458984375 435.333007812 57.458984375 409.606445312 c 0
332.194335938 202.591796875 m 0
 388.250976562 202.591796875 433.715820312 159.83984375 433.715820312 107.125 c 0
 433.715820312 54.41015625 388.315429688 11.658203125 332.1953125 11.658203125 c 0
 276.075195312 11.658203125 230.611328125 54.41015625 230.611328125 107.125 c 0
 230.611328125 159.83984375 276.137695312 202.591796875 332.194335938 202.591796875 c 0
332.573242188 60.5263671875 m 0
 360.12890625 60.5263671875 382.513671875 81.3974609375 382.513671875 107.1875 c 0
 382.513671875 132.977539062 360.12890625 153.849609375 332.573242188 153.849609375 c 0
 305.017578125 153.849609375 282.6328125 132.978515625 282.6328125 107.188476562 c 0
 282.6328125 81.3984375 305.017578125 60.5263671875 332.573242188 60.5263671875 c 0
329.798828125 505.071289062 m 1
 400.799804688 505.071289062 l 1
 111.24609375 13.6748046875 l 1
 40.3076171875 13.6748046875 l 1
 329.798828125 505.071289062 l 1
EndSplineSet
EndChar

StartChar: ampersand
Encoding: 38 38 7
Width: 440
GlyphClass: 1
Flags: W
LayerCount: 2
Fore
SplineSet
368.333984375 79.12890625 m 1
 406.797851562 33.728515625 434.54296875 0.30859375 434.54296875 0.30859375 c 1
 362.659179688 -0.322265625 l 1
 362.659179688 -0.322265625 350.047851562 14.8115234375 329.239257812 39.4033203125 c 1
 292.036132812 9.13671875 242.852539062 -9.7802734375 180.426757812 -9.7802734375 c 0
 83.951171875 -9.7802734375 4.5 63.9951171875 4.5 151.643554688 c 0
 4.5 225.418945312 49.900390625 272.080078125 99.71484375 309.283203125 c 1
 64.4033203125 349.008789062 43.5947265625 372.969726562 43.5947265625 422.784179688 c 0
 43.5947265625 470.076171875 80.1669921875 532.501953125 167.184570312 532.501953125 c 0
 254.202148438 532.501953125 278.793945312 488.362304688 278.793945312 429.08984375 c 0
 278.793945312 371.708984375 231.501953125 337.028320312 182.948242188 301.716796875 c 1
 219.520507812 257.577148438 278.163085938 186.954101562 329.869140625 125.790039062 c 1
 356.352539062 173.08203125 366.44140625 229.202148438 366.44140625 262.622070312 c 1
 426.975585938 263.8828125 l 1
 426.975585938 200.827148438 408.689453125 132.095703125 368.333984375 79.12890625 c 1
109.803710938 425.307617188 m 0
 109.803710938 410.8046875 105.389648438 401.346679688 148.8984375 344.595703125 c 1
 189.884765625 372.970703125 222.673828125 398.823242188 222.673828125 434.134765625 c 0
 222.673828125 463.140625 199.342773438 480.166015625 169.076171875 480.166015625 c 0
 138.178710938 480.166015625 109.803710938 456.205078125 109.803710938 425.307617188 c 0
205.649414062 43.818359375 m 0
 242.852539062 43.818359375 271.858398438 57.69140625 294.55859375 79.7607421875 c 1
 249.7890625 132.09765625 189.885742188 203.3515625 135.657226562 267.038085938 c 1
 99.71484375 237.401367188 70.708984375 203.350585938 70.708984375 153.536132812 c 0
 70.708984375 87.9580078125 134.395507812 43.818359375 205.649414062 43.818359375 c 0
EndSplineSet
EndChar

StartChar: quotesingle
Encoding: 39 39 8
Width: 440
GlyphClass: 1
Flags: W
LayerCount: 2
Fore
SplineSet
254.05078125 326.776367188 m 1
 185.950195312 326.776367188 l 1
 185.950195312 519.602539062 l 1
 254.05078125 519.602539062 l 1
 254.05078125 326.776367188 l 1
EndSplineSet
EndChar

StartChar: parenleft
Encoding: 40 40 9
Width: 440
GlyphClass: 1
Flags: W
LayerCount: 2
Fore
SplineSet
304.936523438 573.270507812 m 1
 248.438476562 493.44140625 206.821289062 363.860351562 206.821289062 255.530273438 c 0
 206.821289062 147.200195312 248.438476562 17.6201171875 304.936523438 -62.208984375 c 1
 245.411132812 -61.515625 l 1
 245.411132812 -61.515625 135 80.1083984375 135 254.584960938 c 0
 135 429.061523438 245.411132812 572.577148438 245.411132812 572.577148438 c 1
 304.936523438 573.270507812 l 1
EndSplineSet
EndChar

StartChar: parenright
Encoding: 41 41 10
Width: 440
GlyphClass: 1
Flags: W
LayerCount: 2
Fore
SplineSet
194.525390625 572.576171875 m 1
 194.525390625 572.576171875 304.936523438 429.061523438 304.936523438 254.584960938 c 0
 304.936523438 80.1083984375 194.525390625 -61.515625 194.525390625 -61.515625 c 1
 135 -62.208984375 l 1
 191.435546875 17.6201171875 233.115234375 147.200195312 233.115234375 255.530273438 c 0
 233.115234375 363.860351562 191.498046875 493.440429688 135 573.26953125 c 1
 194.525390625 572.576171875 l 1
EndSplineSet
EndChar

StartChar: asterisk
Encoding: 42 42 11
Width: 440
GlyphClass: 1
Flags: W
LayerCount: 2
Fore
SplineSet
412.840820312 333.026367188 m 1
 282.125 261.899414062 l 1
 412.840820312 190.834960938 l 1
 380.4296875 140.705078125 l 1
 252.047851562 210.571289062 l 1
 252.047851562 69.0732421875 l 1
 187.73046875 69.0732421875 l 1
 187.73046875 210.571289062 l 1
 59.34765625 140.705078125 l 1
 27 190.834960938 l 1
 157.65234375 261.899414062 l 1
 27 333.026367188 l 1
 59.34765625 383.092773438 l 1
 187.729492188 313.2265625 l 1
 187.729492188 454.724609375 l 1
 252.046875 454.724609375 l 1
 252.046875 313.2265625 l 1
 380.4296875 383.092773438 l 1
 412.840820312 333.026367188 l 1
EndSplineSet
EndChar

StartChar: plus
Encoding: 43 43 12
Width: 440
GlyphClass: 1
Flags: W
LayerCount: 2
Fore
SplineSet
250.889648438 286.6796875 m 1
 417.231445312 286.6796875 l 1
 417.231445312 228.478515625 l 1
 250.889648438 228.478515625 l 1
 250.889648438 74.1796875 l 1
 188.842773438 74.1796875 l 1
 188.842773438 228.478515625 l 1
 22.5009765625 228.478515625 l 1
 22.5009765625 286.6796875 l 1
 188.842773438 286.6796875 l 1
 188.842773438 440.978515625 l 1
 250.889648438 440.978515625 l 1
 250.889648438 286.6796875 l 1
EndSplineSet
EndChar

StartChar: comma
Encoding: 44 44 13
Width: 440
GlyphClass: 1
Flags: W
LayerCount: 2
Fore
SplineSet
231.5703125 106.780273438 m 1
 231.5703125 106.717773438 l 1
 261.333007812 106.717773438 285.483398438 82.5673828125 285.483398438 52.8046875 c 0
 285.483398438 -62.2099609375 180.999023438 -126.275390625 180.999023438 -126.275390625 c 1
 154.515625 -89.1982421875 l 1
 172.801757812 -73.181640625 209.752929688 -41.46484375 219.841796875 0.404296875 c 1
 197.141601562 1.1611328125 177.97265625 25.6904296875 177.97265625 52.8671875 c 0
 177.97265625 81.68359375 201.807617188 106.780273438 231.5703125 106.780273438 c 1
EndSplineSet
EndChar

StartChar: hyphen
Encoding: 45 45 14
Width: 440
GlyphClass: 1
Flags: W
LayerCount: 2
Fore
SplineSet
386.50390625 227.72265625 m 1
 53 227.72265625 l 1
 53 287.5 l 1
 386.50390625 287.5 l 1
 386.50390625 227.72265625 l 1
EndSplineSet
EndChar

StartChar: period
Encoding: 46 46 15
Width: 440
GlyphClass: 1
Flags: W
LayerCount: 2
Fore
SplineSet
220 104.888671875 m 0
 249.573242188 104.888671875 273.59765625 81.2421875 273.59765625 52.1103515625 c 0
 273.59765625 22.978515625 249.573242188 -0.66796875 220 -0.66796875 c 0
 190.426757812 -0.66796875 166.40234375 22.978515625 166.40234375 52.1103515625 c 0
 166.40234375 81.2421875 190.426757812 104.888671875 220 104.888671875 c 0
EndSplineSet
EndChar

StartChar: slash
Encoding: 47 47 16
Width: 440
GlyphClass: 1
Flags: W
LayerCount: 2
Fore
SplineSet
399.9921875 550.655273438 m 1
 109.366210938 -33.37109375 l 1
 39.5 -33.37109375 l 1
 330.0625 550.655273438 l 1
 399.9921875 550.655273438 l 1
EndSplineSet
EndChar

StartChar: zero
Encoding: 48 48 17
Width: 440
GlyphClass: 1
Flags: W
LayerCount: 2
Fore
SplineSet
219.759765625 525.77734375 m 0
 315.1640625 525.77734375 398.4609375 468.081054688 398.4609375 258.734375 c 0
 398.4609375 49.3876953125 313.83984375 -8.30859375 219.759765625 -8.30859375 c 0
 125.6796875 -8.30859375 41.5 49.3876953125 41.5 258.734375 c 0
 41.5 468.081054688 124.35546875 525.77734375 219.759765625 525.77734375 c 0
220.201171875 467.829101562 m 0
 168.55859375 467.829101562 110.23046875 441.9140625 110.166992188 258.736328125 c 0
 110.166992188 231.0546875 111.680664062 207.408203125 114.203125 186.536132812 c 1
 303.498046875 416.438476562 l 1
 281.870117188 459.000976562 250.026367188 467.829101562 220.201171875 467.829101562 c 0
220.13671875 50.7138671875 m 1
 220.137695312 50.7763671875 l 1
 269.888671875 50.7763671875 329.728515625 75.6201171875 329.728515625 258.797851562 c 0
 329.728515625 287.362304688 328.21484375 311.702148438 325.629882812 333.141601562 c 1
 136.334960938 103.239257812 l 1
 158.467773438 59.478515625 191.067382812 50.7138671875 220.13671875 50.7138671875 c 1
EndSplineSet
EndChar

StartChar: one
Encoding: 49 49 18
Width: 440
GlyphClass: 1
Flags: W
LayerCount: 2
Fore
SplineSet
80.693359375 358.741210938 m 1
 79.9990234375 439.642578125 l 1
 185.5546875 518.083984375 l 1
 254.348632812 518.083984375 l 1
 254.348632812 60.7373046875 l 1
 359.400390625 60.7373046875 l 1
 359.400390625 0.0771484375 l 1
 79.9990234375 0.0771484375 l 1
 80.50390625 60.7373046875 l 1
 186.3125 60.7373046875 l 1
 186.3125 438.696289062 l 1
 80.693359375 358.741210938 l 1
EndSplineSet
EndChar

StartChar: two
Encoding: 50 50 19
Width: 440
GlyphClass: 1
Flags: W
LayerCount: 2
Fore
SplineSet
54.53515625 415.05078125 m 1
 54.5361328125 415.1171875 l 1
 53.716796875 479.686523438 l 1
 53.716796875 479.686523438 126.231445312 528.302734375 209.086914062 528.302734375 c 0
 345.666992188 528.302734375 381.923828125 433.403320312 381.923828125 382.83203125 c 0
 381.923828125 332.260742188 361.115234375 287.112304688 279.45703125 206.526367188 c 0
 197.799804688 125.940429688 132.34765625 60.6142578125 132.34765625 60.6142578125 c 1
 389.490234375 60.6142578125 l 1
 389.490234375 0.1435546875 l 1
 50.5 0.1435546875 l 1
 50.5 45.7333984375 l 2
 50.5 56.705078125 54.283203125 63.830078125 62.921875 71.5859375 c 0
 71.560546875 79.341796875 178.125 187.104492188 229.137695312 238.305664062 c 0
 280.150390625 289.506835938 305.940429688 346.130859375 305.940429688 389.008789062 c 0
 305.940429688 431.88671875 263.755859375 468.963867188 203.411132812 468.963867188 c 0
 143.06640625 468.963867188 54.53515625 415.05078125 54.53515625 415.05078125 c 1
EndSplineSet
EndChar

StartChar: three
Encoding: 51 51 20
Width: 440
GlyphClass: 1
Flags: W
LayerCount: 2
Fore
SplineSet
282.40234375 277.651367188 m 1
 341.80078125 262.013671875 394.451171875 225.376953125 394.451171875 139.1796875 c 0
 394.451171875 52.9814453125 316.198242188 -9.8857421875 201.814453125 -9.8857421875 c 0
 126.840820312 -9.8857421875 45.498046875 16.15625 45.498046875 16.15625 c 1
 45.498046875 84.9501953125 l 1
 45.498046875 84.9501953125 105.842773438 49.7021484375 197.967773438 49.7021484375 c 0
 273.193359375 49.7021484375 320.359375 84.3828125 320.359375 149.583007812 c 0
 320.359375 214.783203125 267.392578125 248.139648438 206.291015625 248.139648438 c 2
 141.721679688 248.139648438 l 1
 141.721679688 305.583984375 l 1
 206.291015625 305.583984375 l 2
 267.329101562 305.583984375 307.748046875 338.310546875 307.748046875 389.0078125 c 0
 307.748046875 439.705078125 266.509765625 469.026367188 208.372070312 469.026367188 c 0
 134.155273438 469.026367188 63.0283203125 440.966796875 63.0283203125 440.966796875 c 1
 63.0283203125 505.284179688 l 1
 63.0283203125 505.284179688 137.056640625 527.984375 205.220703125 527.984375 c 0
 309.263671875 527.984375 381.2109375 474.071289062 381.2109375 394.68359375 c 0
 381.2109375 324.186523438 340.666015625 292.973632812 282.40234375 277.651367188 c 1
EndSplineSet
EndChar

StartChar: four
Encoding: 52 52 21
Width: 440
GlyphClass: 1
Flags: W
LayerCount: 2
Fore
SplineSet
329.77734375 180.796875 m 1
 417.9296875 180.795898438 l 1
 417.9296875 123.3515625 l 1
 329.77734375 123.3515625 l 1
 329.77734375 0.0771484375 l 1
 263.252929688 0.0771484375 l 1
 263.252929688 123.3515625 l 1
 22 123.3515625 l 1
 22 195.9296875 l 1
 229.958984375 518.083984375 l 1
 329.77734375 518.083984375 l 1
 329.77734375 180.796875 l 1
271.513671875 180.795898438 m 1
 271.513671875 454.5859375 l 1
 93.001953125 180.795898438 l 1
 271.513671875 180.795898438 l 1
EndSplineSet
EndChar

StartChar: five
Encoding: 53 53 22
Width: 440
GlyphClass: 1
Flags: W
LayerCount: 2
Fore
SplineSet
72.45703125 257.977539062 m 1
 72.4580078125 518.083007812 l 1
 360.561523438 518.083007812 l 1
 360.561523438 459.125976562 l 1
 140.495117188 459.125976562 l 1
 140.495117188 332.067382812 l 1
 140.495117188 332.067382812 163.510742188 342.9765625 205.317382812 342.9765625 c 0
 281.489257812 342.9765625 390.829101562 304.890625 390.829101562 167.17578125 c 0
 390.829101562 29.4609375 284.642578125 -9.759765625 189.6796875 -9.759765625 c 0
 94.716796875 -9.759765625 49.0009765625 12.18359375 49.0009765625 12.18359375 c 1
 49.0009765625 83.248046875 l 1
 49.0009765625 83.248046875 107.706054688 48.9453125 194.21875 48.9453125 c 0
 244.159179688 48.9453125 315.98046875 73.1591796875 315.98046875 165.725585938 c 0
 315.98046875 258.291992188 246.807617188 283.704101562 183.625 283.704101562 c 0
 120.442382812 283.704101562 72.45703125 257.977539062 72.45703125 257.977539062 c 1
EndSplineSet
EndChar

StartChar: six
Encoding: 54 54 23
Width: 440
GlyphClass: 1
Flags: W
LayerCount: 2
Fore
SplineSet
234.393554688 342.662109375 m 1
 234.330078125 342.663085938 l 1
 312.45703125 342.663085938 398.655273438 293.290039062 398.655273438 171.528320312 c 0
 398.655273438 49.7666015625 331.87890625 -7.48828125 226.0703125 -7.48828125 c 0
 120.26171875 -7.48828125 41 50.1455078125 41 242.71875 c 0
 41 444.813476562 145.168945312 519.661132812 266.615234375 519.661132812 c 0
 321.663085938 519.661132812 358.424804688 504.52734375 358.424804688 504.52734375 c 1
 358.424804688 439.453125 l 1
 358.424804688 439.453125 326.708007812 463.603515625 268.12890625 463.603515625 c 0
 184.01171875 463.603515625 110.362304688 409.3125 110.362304688 270.778320312 c 1
 123.918945312 298.018554688 157.212890625 342.662109375 234.393554688 342.662109375 c 1
224.430664062 47.6865234375 m 0
 270.083007812 47.6865234375 324.944335938 67.1708984375 324.944335938 167.3671875 c 0
 324.944335938 267.563476562 271.850585938 287.678710938 224.495117188 287.678710938 c 0
 177.139648438 287.678710938 123.604492188 260.879882812 123.604492188 167.3671875 c 0
 123.604492188 73.8544921875 178.778320312 47.6865234375 224.430664062 47.6865234375 c 0
EndSplineSet
EndChar

StartChar: seven
Encoding: 55 55 24
Width: 440
GlyphClass: 1
Flags: W
LayerCount: 2
Fore
SplineSet
46 459.126953125 m 1
 46 518.084960938 l 1
 393.124023438 518.084960938 l 1
 393.124023438 488.637695312 l 1
 195.7578125 0.078125 l 1
 117.883789062 0.078125 l 1
 308.313476562 457.928710938 l 1
 46 459.126953125 l 1
EndSplineSet
EndChar

StartChar: eight
Encoding: 56 56 25
Width: 440
GlyphClass: 1
Flags: W
LayerCount: 2
Fore
SplineSet
300.489257812 276.579101562 m 1
 363.734375 255.518554688 400.368164062 207.404296875 400.368164062 137.412109375 c 0
 400.368164062 41.3779296875 316.188476562 -9.697265625 219.712890625 -9.697265625 c 0
 123.237304688 -9.697265625 39.4990234375 39.2978515625 39.4990234375 137.413085938 c 0
 39.4990234375 208.603515625 75.5673828125 255.833007812 138.119140625 276.578125 c 1
 85.025390625 296.125976562 54.3173828125 337.112304688 54.3173828125 397.8984375 c 0
 54.3173828125 485.231445312 131.182617188 528.866210938 219.713867188 528.866210938 c 0
 308.245117188 528.866210938 385.551757812 483.40234375 385.551757812 397.8984375 c 0
 385.551757812 338.05859375 354.276367188 296.44140625 300.489257812 276.579101562 c 1
220.153320312 473.690429688 m 0
 177.0859375 473.690429688 128.34375 462.971679688 128.34375 387.493164062 c 0
 128.34375 312.014648438 178.662109375 301.799804688 220.153320312 301.799804688 c 0
 261.64453125 301.799804688 311.584960938 311.952148438 311.584960938 387.493164062 c 0
 311.584960938 463.034179688 263.284179688 473.690429688 220.153320312 473.690429688 c 0
220.153320312 44.720703125 m 0
 268.517578125 44.720703125 322.80859375 57.2685546875 322.80859375 145.358398438 c 0
 322.80859375 233.448242188 266.751953125 245.428710938 220.090820312 245.428710938 c 0
 173.4296875 245.428710938 116.994140625 233.510742188 116.994140625 145.358398438 c 0
 116.994140625 57.2060546875 171.7265625 44.720703125 220.153320312 44.720703125 c 0
EndSplineSet
EndChar

StartChar: nine
Encoding: 57 57 26
Width: 440
GlyphClass: 1
Flags: W
LayerCount: 2
Fore
SplineSet
205.26171875 177.013671875 m 1
 205.32421875 177.076171875 l 1
 127.197265625 177.076171875 41 226.44921875 41 348.2109375 c 0
 41 469.97265625 107.776367188 527.227539062 213.584960938 527.227539062 c 0
 319.393554688 527.227539062 398.655273438 469.59375 398.655273438 277.020507812 c 0
 398.655273438 74.92578125 294.486328125 0.078125 173.040039062 0.078125 c 0
 117.9921875 0.078125 81.23046875 15.2119140625 81.23046875 15.2119140625 c 1
 81.23046875 80.22265625 l 1
 81.23046875 80.22265625 112.947265625 56.072265625 171.526367188 56.072265625 c 0
 255.643554688 56.072265625 329.29296875 110.36328125 329.29296875 248.897460938 c 1
 315.736328125 221.657226562 282.442382812 177.013671875 205.26171875 177.013671875 c 1
215.223632812 471.926757812 m 0
 169.571289062 471.926757812 114.709960938 452.442382812 114.709960938 352.24609375 c 0
 114.709960938 252.049804688 167.803710938 231.934570312 215.159179688 231.934570312 c 0
 262.514648438 231.934570312 316.049804688 258.733398438 316.049804688 352.24609375 c 0
 316.049804688 445.758789062 260.875976562 471.926757812 215.223632812 471.926757812 c 0
EndSplineSet
EndChar

StartChar: colon
Encoding: 58 58 27
Width: 440
GlyphClass: 1
Flags: W
LayerCount: 2
Fore
SplineSet
220 186.609375 m 0
 249.63671875 186.609375 273.59765625 162.962890625 273.59765625 133.831054688 c 0
 273.59765625 104.69921875 249.573242188 81.052734375 220 81.052734375 c 0
 190.426757812 81.052734375 166.40234375 104.69921875 166.40234375 133.831054688 c 0
 166.40234375 162.962890625 190.426757812 186.609375 220 186.609375 c 0
220 321.296875 m 0
 190.426757812 321.296875 166.40234375 344.943359375 166.40234375 374.075195312 c 0
 166.40234375 403.20703125 190.36328125 426.853515625 220 426.853515625 c 0
 249.63671875 426.853515625 273.59765625 403.20703125 273.59765625 374.075195312 c 0
 273.59765625 344.943359375 249.573242188 321.296875 220 321.296875 c 0
EndSplineSet
EndChar

StartChar: semicolon
Encoding: 59 59 28
Width: 440
GlyphClass: 1
Flags: HW
LayerCount: 2
Fore
SplineSet
220.0703125 186.610351562 m 1
 220.071289062 186.551757812 l 1
 249.831054688 186.551757812 273.981445312 162.401367188 273.981445312 132.631835938 c 0
 273.981445312 17.6220703125 169.500976562 -46.4482421875 169.500976562 -46.4482421875 c 1
 143.020507812 -9.3681640625 l 1
 161.30078125 6.6513671875 198.250976562 38.361328125 208.340820312 80.2314453125 c 1
 185.640625 80.9912109375 166.470703125 105.521484375 166.470703125 132.701171875 c 0
 166.470703125 161.510742188 190.310546875 186.610351562 220.0703125 186.610351562 c 1
220.391601562 321.301757812 m 0
 190.751953125 321.301757812 166.791992188 344.94140625 166.791992188 374.081054688 c 0
 166.791992188 403.2109375 190.811523438 426.850585938 220.391601562 426.850585938 c 0
 249.961914062 426.850585938 273.981445312 403.2109375 273.981445312 374.081054688 c 0
 273.981445312 344.94140625 249.961914062 321.301757812 220.391601562 321.301757812 c 0
EndSplineSet
EndChar

StartChar: less
Encoding: 60 60 29
Width: 440
GlyphClass: 1
Flags: W
LayerCount: 2
Fore
SplineSet
24 285.961914062 m 1
 415.010742188 431.116210938 l 1
 415.010742188 369.131835938 l 1
 103.387695312 257.5859375 l 1
 415.010742188 146.040039062 l 1
 415.010742188 84.0556640625 l 1
 24 229.2109375 l 1
 24 285.961914062 l 1
EndSplineSet
EndChar

StartChar: equal
Encoding: 61 61 30
Width: 440
GlyphClass: 1
Flags: W
LayerCount: 2
Fore
SplineSet
414.69140625 310.887695312 m 1
 24.5 310.887695312 l 1
 24.5 369.908203125 l 1
 414.69140625 369.908203125 l 1
 414.69140625 310.887695312 l 1
414.69140625 152.6171875 m 1
 24.5 152.6171875 l 1
 24.5 211.637695312 l 1
 414.69140625 211.637695312 l 1
 414.69140625 152.6171875 l 1
EndSplineSet
EndChar

StartChar: greater
Encoding: 62 62 31
Width: 440
GlyphClass: 1
Flags: W
LayerCount: 2
Fore
SplineSet
24 431.892578125 m 1
 415.010742188 286.80078125 l 1
 415.010742188 229.987304688 l 1
 24 84.83203125 l 1
 24 146.87890625 l 1
 335.623046875 258.362304688 l 1
 24 369.908203125 l 1
 24 431.892578125 l 1
EndSplineSet
EndChar

StartChar: question
Encoding: 63 63 32
Width: 440
GlyphClass: 1
Flags: W
LayerCount: 2
Fore
SplineSet
216.4765625 105.577148438 m 0
 246.11328125 105.577148438 270.07421875 81.9306640625 270.07421875 52.798828125 c 0
 270.07421875 23.6669921875 246.11328125 0.0205078125 216.4765625 0.0205078125 c 0
 186.83984375 0.0205078125 162.87890625 23.6669921875 162.87890625 52.798828125 c 0
 162.87890625 81.9306640625 186.903320312 105.577148438 216.4765625 105.577148438 c 0
226.1875 542.934570312 m 1
 226.25 542.873046875 l 1
 342.2734375 542.873046875 390.763671875 487.76171875 390.763671875 422.813476562 c 0
 390.763671875 323.05859375 249.265625 298.025390625 249.265625 234.96875 c 2
 249.265625 194.486328125 l 1
 178.516601562 194.486328125 l 1
 178.516601562 234.52734375 l 2
 178.516601562 329.364257812 325.689453125 353.262695312 325.689453125 423.380859375 c 0
 325.689453125 464.3671875 286.594726562 485.6171875 230.853515625 485.6171875 c 0
 141.125 485.6171875 101.147460938 407.931640625 101.147460938 407.931640625 c 1
 101.147460938 407.931640625 46.4775390625 443.495117188 48.55859375 441.981445312 c 2
 48.55859375 441.981445312 110.1640625 542.934570312 226.1875 542.934570312 c 1
EndSplineSet
EndChar

StartChar: at
Encoding: 64 64 33
Width: 440
GlyphClass: 1
Flags: W
LayerCount: 2
Fore
SplineSet
431.580078125 103.49609375 m 1
 431.580078125 103.559570312 l 1
 470.296875 57.5283203125 l 1
 470.296875 57.5283203125 402.637695312 -22.490234375 267.697265625 -22.490234375 c 0
 50.8466796875 -22.490234375 -31 126.51171875 -31 261.13671875 c 0
 -31 421.48828125 75.25 543.943359375 214.79296875 543.943359375 c 0
 354.3359375 543.943359375 447.848632812 489.2109375 447.848632812 399.482421875 c 0
 447.848632812 330.5625 399.989257812 317.3203125 377.793945312 314.861328125 c 1
 378.171875 117.1171875 l 1
 323.060546875 117.1171875 l 1
 323.060546875 136.475585938 l 1
 300.801757812 117.1171875 273.6875 105.325195312 243.98828125 105.325195312 c 0
 170.0234375 105.325195312 110.056640625 176.263671875 110.056640625 263.78515625 c 0
 110.056640625 351.306640625 171.158203125 422.8125 245.123046875 422.8125 c 0
 308.873046875 422.8125 342.734375 370.854492188 342.734375 370.854492188 c 1
 367.95703125 370.854492188 388.072265625 378.546875 388.072265625 399.229492188 c 0
 388.072265625 439.458984375 334.411132812 490.15625 233.583984375 490.15625 c 0
 132.756835938 490.15625 35.4609375 406.795898438 35.4609375 261.766601562 c 0
 35.4609375 116.737304688 147.827148438 36.5302734375 248.780273438 36.5302734375 c 0
 374.766601562 36.5302734375 431.580078125 103.49609375 431.580078125 103.49609375 c 1
243.98828125 168.06640625 m 0
 284.029296875 168.06640625 316.567382812 210.944335938 316.567382812 263.78515625 c 0
 316.567382812 316.625976562 284.030273438 359.50390625 243.989257812 359.50390625 c 0
 203.948242188 359.50390625 171.411132812 316.625976562 171.411132812 263.78515625 c 0
 171.411132812 210.944335938 203.884765625 168.06640625 243.98828125 168.06640625 c 0
EndSplineSet
EndChar

StartChar: A
Encoding: 65 65 34
Width: 440
GlyphClass: 1
Flags: W
LayerCount: 2
Fore
SplineSet
265.264648438 518.19921875 m 1
 433.876953125 0.193359375 l 1
 356.758789062 0.193359375 l 1
 315.961914062 135.575195312 l 1
 123.073242188 135.575195312 l 1
 83.0322265625 0.193359375 l 1
 5.8515625 0.193359375 l 1
 174.526367188 518.19921875 l 1
 265.264648438 518.19921875 l 1
141.233398438 191.505859375 m 1
 298.55859375 191.505859375 l 1
 219.864257812 456.97265625 l 1
 141.233398438 191.505859375 l 1
EndSplineSet
EndChar

StartChar: B
Encoding: 66 66 35
Width: 440
GlyphClass: 1
Flags: W
LayerCount: 2
Fore
SplineSet
289.1953125 277.703125 m 1
 289.1953125 277.640625 l 1
 318.768554688 271.586914062 401.120117188 248.950195312 401.120117188 142.322265625 c 0
 401.120117188 35.6943359375 311.328125 0.5087890625 232.759765625 0.5087890625 c 2
 38.6103515625 0.5087890625 l 1
 38.6103515625 518.200195312 l 1
 216.302734375 518.200195312 l 2
 335.541992188 518.200195312 367.51171875 439.947265625 367.51171875 379.728515625 c 0
 367.51171875 319.951171875 323.939453125 284.008789062 289.1953125 277.703125 c 1
109.233398438 460.755859375 m 1
 109.233398438 304.942382812 l 1
 109.233398438 304.942382812 179.982421875 303.618164062 219.266601562 305.573242188 c 0
 259.118164062 307.528320312 303.004882812 321.653320312 303.004882812 385.844726562 c 0
 303.004882812 446.8203125 260.8203125 460.755859375 211.510742188 460.755859375 c 2
 109.233398438 460.755859375 l 1
219.64453125 57.69921875 m 2
 308.6171875 57.69921875 337.497070312 89.1015625 337.497070312 156.760742188 c 0
 337.497070312 224.419921875 282.0703125 247.498046875 229.859375 247.498046875 c 2
 109.233398438 247.498046875 l 1
 109.233398438 57.69921875 l 1
 219.64453125 57.69921875 l 2
EndSplineSet
EndChar

StartChar: C
Encoding: 67 67 36
Width: 440
GlyphClass: 1
Flags: W
LayerCount: 2
Fore
SplineSet
392.102539062 92.5068359375 m 1
 392.102539062 19.8037109375 l 1
 361.141601562 2.3369140625 319.903320312 -7.751953125 264.162109375 -7.751953125 c 0
 108.728515625 -7.751953125 47.626953125 112.432617188 47.626953125 260.677734375 c 0
 47.626953125 408.922851562 118.69140625 529.107421875 264.162109375 529.107421875 c 0
 320.15625 529.107421875 360.764648438 516.811523438 392.103515625 496.94921875 c 1
 392.103515625 425.569335938 l 1
 360.259765625 453.692382812 317.885742188 471.095703125 264.162109375 471.095703125 c 0
 157.912109375 471.095703125 122.474609375 376.196289062 122.474609375 259.1640625 c 0
 122.474609375 142.131835938 158.668945312 47.232421875 264.162109375 47.232421875 c 0
 318.075195312 47.232421875 360.385742188 64.5732421875 392.102539062 92.5068359375 c 1
EndSplineSet
EndChar

StartChar: D
Encoding: 68 68 37
Width: 440
GlyphClass: 1
Flags: W
LayerCount: 2
Fore
SplineSet
199.33984375 518.19921875 m 2
 291.0234375 518.19921875 399.859375 476.45703125 399.859375 258.787109375 c 0
 399.859375 41.1171875 290.9609375 0.5087890625 200.096679688 0.5087890625 c 0
 141.265625 0.5087890625 39.87109375 0.193359375 39.87109375 0.193359375 c 1
 39.87109375 518.19921875 l 1
 199.33984375 518.19921875 l 2
198.583984375 57.701171875 m 2
 254.325195312 57.701171875 324.254882812 88.599609375 324.254882812 259.607421875 c 0
 324.254882812 430.615234375 255.08203125 460.755859375 198.583984375 460.755859375 c 2
 114.782226562 460.755859375 l 1
 114.782226562 57.701171875 l 1
 198.583984375 57.701171875 l 2
EndSplineSet
EndChar

StartChar: E
Encoding: 69 69 38
Width: 440
GlyphClass: 1
Flags: W
LayerCount: 2
Fore
SplineSet
52.734375 518.19921875 m 1
 386.239257812 518.19921875 l 1
 386.239257812 459.2421875 l 1
 126.889648438 459.2421875 l 1
 128.024414062 306.141601562 l 1
 355.278320312 305.700195312 l 1
 355.278320312 246.743164062 l 1
 126.888671875 246.743164062 l 1
 126.888671875 59.2138671875 l 1
 386.995117188 59.2138671875 l 1
 386.995117188 0.193359375 l 1
 52.734375 0.193359375 l 1
 52.734375 518.19921875 l 1
EndSplineSet
EndChar

StartChar: F
Encoding: 70 70 39
Width: 440
GlyphClass: 1
Flags: W
LayerCount: 2
Fore
SplineSet
58.251953125 518.19921875 m 1
 381.479492188 518.19921875 l 1
 381.479492188 459.2421875 l 1
 132.344726562 459.2421875 l 1
 133.479492188 300.71875 l 1
 314.008789062 300.27734375 l 1
 314.008789062 241.3203125 l 1
 132.34375 241.3203125 l 1
 132.280273438 0.193359375 l 1
 58.251953125 0.193359375 l 1
 58.251953125 518.19921875 l 1
EndSplineSet
EndChar

StartChar: G
Encoding: 71 71 40
Width: 440
GlyphClass: 1
Flags: W
LayerCount: 2
Fore
SplineSet
333.712890625 67.0947265625 m 1
 333.776367188 67.158203125 l 1
 332.893554688 208.21484375 l 1
 233.83203125 208.21484375 l 1
 233.83203125 266.416015625 l 1
 403.958007812 266.416015625 l 1
 403.958007812 42.56640625 l 1
 403.958007812 42.56640625 359.250976562 -7.751953125 252.307617188 -7.751953125 c 0
 96.8740234375 -7.751953125 35.7724609375 112.432617188 35.7724609375 260.677734375 c 0
 35.7724609375 408.922851562 106.836914062 529.107421875 252.307617188 529.107421875 c 0
 308.301757812 529.107421875 348.91015625 516.811523438 380.249023438 496.94921875 c 1
 380.249023438 425.569335938 l 1
 348.405273438 453.692382812 306.03125 471.095703125 252.307617188 471.095703125 c 0
 146.057617188 471.095703125 110.620117188 376.196289062 110.620117188 259.1640625 c 0
 110.620117188 142.131835938 146.814453125 47.232421875 252.307617188 47.232421875 c 0
 313.09375 47.232421875 333.712890625 67.0947265625 333.712890625 67.0947265625 c 1
EndSplineSet
EndChar

StartChar: H
Encoding: 72 72 41
Width: 440
GlyphClass: 1
Flags: W
LayerCount: 2
Fore
SplineSet
42.8974609375 0.1923828125 m 1
 42.8974609375 518.197265625 l 1
 117.745117188 518.197265625 l 1
 117.745117188 305.698242188 l 1
 321.984375 305.698242188 l 1
 321.984375 518.197265625 l 1
 396.83203125 518.197265625 l 1
 396.83203125 0.001953125 l 1
 321.984375 0.19140625 l 1
 321.984375 246.741210938 l 1
 117.745117188 246.741210938 l 1
 117.745117188 0.5703125 l 1
 42.8974609375 0.1923828125 l 1
EndSplineSet
EndChar

StartChar: I
Encoding: 73 73 42
Width: 440
GlyphClass: 1
Flags: W
LayerCount: 2
Fore
SplineSet
66.732421875 459.241210938 m 1
 66.732421875 518.198242188 l 1
 372.99609375 518.198242188 l 1
 372.99609375 459.241210938 l 1
 257.288085938 459.241210938 l 1
 257.288085938 59.212890625 l 1
 372.99609375 59.212890625 l 1
 372.99609375 0.5703125 l 1
 66.732421875 0.1923828125 l 1
 66.732421875 57.1953125 l 1
 181.999023438 58.0146484375 l 1
 181.999023438 458.92578125 l 1
 66.732421875 459.241210938 l 1
EndSplineSet
EndChar

StartChar: J
Encoding: 74 74 43
Width: 440
GlyphClass: 1
Flags: W
LayerCount: 2
Fore
SplineSet
158.1328125 518.19921875 m 1
 373.784179688 518.198242188 l 1
 373.784179688 164.327148438 l 2
 373.784179688 65.64453125 340.995117188 -5.7978515625 229.575195312 -5.7978515625 c 0
 118.155273438 -5.7978515625 65.9443359375 -6.6171875 65.9443359375 -6.6171875 c 1
 65.9443359375 50.0703125 l 1
 213.180664062 50.0703125 l 2
 277.372070312 50.0703125 297.928710938 79.517578125 297.928710938 156.446289062 c 2
 297.928710938 459.178710938 l 1
 158.1328125 459.178710938 l 1
 158.1328125 518.19921875 l 1
EndSplineSet
EndChar

StartChar: K
Encoding: 75 75 44
Width: 440
GlyphClass: 1
Flags: W
LayerCount: 2
Fore
SplineSet
19.09375 0.1923828125 m 1
 19.095703125 518.198242188 l 1
 93.943359375 518.198242188 l 1
 93.943359375 287.6015625 l 1
 326.935546875 518.198242188 l 1
 412.124023438 518.198242188 l 1
 199.813476562 306.456054688 l 1
 420.635742188 0.1923828125 l 1
 330.654296875 0.1923828125 l 1
 150.692382812 259.60546875 l 1
 93.94140625 202.854492188 l 1
 93.94140625 0.5703125 l 1
 19.09375 0.1923828125 l 1
EndSplineSet
EndChar

StartChar: L
Encoding: 76 76 45
Width: 440
GlyphClass: 1
Flags: W
LayerCount: 2
Fore
SplineSet
49.2978515625 0.5712890625 m 1
 49.2978515625 518.19921875 l 1
 124.208984375 518.19921875 l 1
 124.208984375 59.2138671875 l 1
 390.431640625 59.2138671875 l 1
 390.431640625 0.5712890625 l 1
 49.2978515625 0.5712890625 l 1
EndSplineSet
EndChar

StartChar: M
Encoding: 77 77 46
Width: 440
GlyphClass: 1
Flags: W
LayerCount: 2
Fore
SplineSet
19.8505859375 0.1923828125 m 1
 19.849609375 518.197265625 l 1
 119.66796875 518.197265625 l 1
 219.486328125 264.143554688 l 1
 320.060546875 518.197265625 l 1
 419.87890625 518.197265625 l 1
 419.87890625 0.5693359375 l 1
 354.868164062 0.19140625 l 1
 354.868164062 452.682617188 l 1
 248.240234375 180.154296875 l 1
 191.489257812 180.154296875 l 1
 84.9248046875 455.015625 l 1
 84.9248046875 0.5703125 l 1
 19.8505859375 0.1923828125 l 1
EndSplineSet
EndChar

StartChar: N
Encoding: 78 78 47
Width: 440
GlyphClass: 1
Flags: W
LayerCount: 2
Fore
SplineSet
45.419921875 0.1923828125 m 1
 41.888671875 518.198242188 l 1
 139.94140625 518.198242188 l 1
 326.020507812 96.478515625 l 1
 326.020507812 518.198242188 l 1
 397.841796875 518.198242188 l 1
 397.841796875 0.1923828125 l 1
 303.3203125 0.1923828125 l 1
 117.241210938 422.1640625 l 1
 117.241210938 0.1923828125 l 1
 45.419921875 0.1923828125 l 1
EndSplineSet
EndChar

StartChar: O
Encoding: 79 79 48
AltUni2: 0000d3.ffffffff.0 0000d3.ffffffff.0
Width: 440
GlyphClass: 1
Flags: W
LayerCount: 2
Fore
SplineSet
219.639648438 529.01953125 m 0
 318.139648438 529.01953125 404.079101562 471.258789062 404.079101562 261.909179688 c 0
 404.079101562 52.5693359375 316.749023438 -5.130859375 219.638671875 -5.130859375 c 0
 122.5390625 -5.130859375 35.6494140625 52.4990234375 35.6494140625 261.909179688 c 0
 35.6494140625 471.319335938 121.149414062 529.01953125 219.639648438 529.01953125 c 0
220.088867188 53.888671875 m 1
 220.01953125 53.888671875 l 1
 268.69921875 53.888671875 327.279296875 78.728515625 327.279296875 261.908203125 c 0
 327.279296875 445.087890625 270.588867188 471.0078125 220.088867188 471.0078125 c 0
 169.579101562 471.0078125 112.44921875 445.087890625 112.44921875 261.908203125 c 0
 112.44921875 78.728515625 171.409179688 53.888671875 220.088867188 53.888671875 c 1
EndSplineSet
EndChar

StartChar: P
Encoding: 80 80 49
Width: 440
GlyphClass: 1
Flags: W
LayerCount: 2
Fore
SplineSet
218.82421875 518.19921875 m 1
 218.887695312 518.263671875 l 1
 334.84765625 518.263671875 394.750976562 458.67578125 394.750976562 368.37890625 c 0
 394.750976562 278.08203125 343.360351562 208.467773438 225.508789062 208.467773438 c 2
 117.80859375 208.467773438 l 1
 117.80859375 208.467773438 121.465820312 -1.3828125 119.889648438 0.193359375 c 2
 44.978515625 0.193359375 l 1
 44.978515625 518.19921875 l 1
 218.82421875 518.19921875 l 1
206.086914062 266.416992188 m 2
 206.1484375 266.416992188 l 2
 296.4453125 266.416992188 315.803710938 323.356445312 315.803710938 363.96484375 c 0
 315.803710938 404.573242188 295.877929688 460.755859375 213.463867188 460.755859375 c 2
 119.888671875 460.755859375 l 1
 119.888671875 266.416992188 l 1
 119.888671875 266.416992188 115.790039062 266.416992188 206.086914062 266.416992188 c 2
EndSplineSet
EndChar

StartChar: Q
Encoding: 81 81 50
Width: 440
GlyphClass: 1
Flags: W
LayerCount: 2
Fore
SplineSet
197.60546875 526.017578125 m 0
 296.099609375 526.017578125 382.045898438 468.258789062 382.045898438 258.912109375 c 0
 382.045898438 171.390625 366.786132812 110.352539062 341.942382812 68.9873046875 c 1
 426.122070312 -27.8037109375 l 1
 426.122070312 -71.6279296875 l 1
 378.451171875 -71.6279296875 l 1
 295.973632812 19.298828125 l 1
 266.967773438 -0.5009765625 232.916992188 -8.130859375 197.60546875 -8.130859375 c 0
 100.499023438 -8.130859375 13.607421875 49.5029296875 13.607421875 258.912109375 c 0
 13.607421875 468.321289062 99.111328125 526.017578125 197.60546875 526.017578125 c 0
198.047851562 50.890625 m 1
 197.984375 50.890625 l 1
 246.6640625 50.890625 305.243164062 75.734375 305.243164062 258.912109375 c 0
 305.243164062 442.08984375 248.555664062 468.005859375 198.047851562 468.005859375 c 0
 147.540039062 468.005859375 90.4111328125 442.08984375 90.4111328125 258.912109375 c 0
 90.4111328125 75.734375 149.368164062 50.890625 198.047851562 50.890625 c 1
EndSplineSet
EndChar

StartChar: R
Encoding: 82 82 51
Width: 440
GlyphClass: 1
Flags: W
LayerCount: 2
Fore
SplineSet
113.677734375 218.555664062 m 1
 113.615234375 218.555664062 l 1
 110.966796875 0.5078125 l 1
 38.8935546875 0.5078125 l 1
 38.8935546875 518.19921875 l 1
 218.225585938 518.19921875 l 2
 327.943359375 518.19921875 379.901367188 446.125976562 379.901367188 360.306640625 c 0
 379.901367188 297.754882812 335.509765625 250.778320312 278.506835938 229.90625 c 1
 400.8359375 0.5078125 l 1
 321.700195312 0.5078125 l 1
 211.2890625 217.98828125 l 1
 113.677734375 218.555664062 l 1
213.49609375 460.75390625 m 2
 113.8671875 460.75390625 l 1
 113.8671875 277.38671875 l 1
 113.8671875 277.38671875 181.967773438 276.0625 221.251953125 278.017578125 c 0
 261.166015625 280.03515625 306.125 306.64453125 306.125 370.8359375 c 0
 306.125 431.748046875 262.805664062 460.75390625 213.49609375 460.75390625 c 2
EndSplineSet
EndChar

StartChar: S
Encoding: 83 83 52
Width: 440
GlyphClass: 1
Flags: W
LayerCount: 2
Fore
SplineSet
365.083007812 500.794921875 m 1
 365.08203125 429.859375 l 1
 365.08203125 429.859375 314.1328125 468.134765625 235.627929688 468.134765625 c 0
 156.4296875 468.134765625 113.236328125 444.551757812 113.236328125 379.036132812 c 0
 113.236328125 313.520507812 204.66796875 302.73828125 255.049804688 293.342773438 c 0
 305.431640625 283.947265625 396.86328125 250.90625 396.86328125 142.44921875 c 0
 396.86328125 33.9921875 320.565429688 -9.580078125 207.000976562 -9.580078125 c 0
 110.713867188 -9.580078125 49.67578125 22.578125 49.67578125 22.578125 c 1
 49.67578125 96.2275390625 l 1
 49.67578125 96.2275390625 113.172851562 47.7373046875 215.38671875 47.7373046875 c 0
 267.975585938 47.7373046875 325.735351562 73.6533203125 325.735351562 139.357421875 c 0
 325.735351562 205.061523438 275.1640625 219.81640625 195.965820312 235.643554688 c 0
 116.767578125 251.470703125 42.8662109375 278.143554688 42.8662109375 374.493164062 c 0
 42.8662109375 470.842773438 117.524414062 528.287109375 233.421875 528.287109375 c 0
 296.79296875 528.287109375 365.083007812 500.794921875 365.083007812 500.794921875 c 1
EndSplineSet
EndChar

StartChar: T
Encoding: 84 84 53
Width: 440
GlyphClass: 1
Flags: W
LayerCount: 2
Fore
SplineSet
9.603515625 459.241210938 m 1
 9.603515625 518.198242188 l 1
 430.125 518.198242188 l 1
 430.125 459.241210938 l 1
 257.666015625 459.241210938 l 1
 257.666015625 0.5703125 l 1
 182.818359375 0.1923828125 l 1
 182.818359375 459.241210938 l 1
 9.603515625 459.241210938 l 1
EndSplineSet
EndChar

StartChar: U
Encoding: 85 85 54
Width: 440
GlyphClass: 1
Flags: W
LayerCount: 2
Fore
SplineSet
37.22265625 165.778320312 m 2
 37.220703125 518.19921875 l 1
 112.825195312 518.19921875 l 1
 112.825195312 159.346679688 l 2
 112.825195312 99.5693359375 121.96875 46.287109375 213.400390625 46.287109375 c 0
 304.83203125 46.287109375 327.595703125 80.2109375 327.595703125 166.53515625 c 2
 327.595703125 518.19921875 l 1
 402.506835938 518.19921875 l 1
 402.506835938 178.767578125 l 2
 402.506835938 82.2919921875 385.481445312 -9.6435546875 221.03125 -9.6435546875 c 0
 56.5810546875 -9.6435546875 37.22265625 81.5986328125 37.22265625 165.778320312 c 2
EndSplineSet
EndChar

StartChar: V
Encoding: 86 86 55
Width: 440
GlyphClass: 1
Flags: W
LayerCount: 2
Fore
SplineSet
174.49609375 0.1923828125 m 1
 13.388671875 518.198242188 l 1
 86.029296875 518.198242188 l 1
 219.833984375 63.689453125 l 1
 353.702148438 518.198242188 l 1
 426.342773438 518.198242188 l 1
 265.234375 0.1923828125 l 1
 174.49609375 0.1923828125 l 1
EndSplineSet
EndChar

StartChar: W
Encoding: 87 87 56
Width: 440
GlyphClass: 1
Flags: W
LayerCount: 2
Fore
SplineSet
74.646484375 0.1923828125 m 1
 -6.251953125 518.198242188 l 1
 57.2451171875 518.198242188 l 1
 114.751953125 104.549804688 l 1
 178.060546875 518.072265625 l 1
 260.916015625 518.072265625 l 1
 324.981445312 103.79296875 l 1
 382.48828125 518.198242188 l 1
 445.985351562 518.198242188 l 1
 365.083984375 0.1923828125 l 1
 292.25390625 0.1923828125 l 1
 219.865234375 440.198242188 l 1
 147.4765625 0.1923828125 l 1
 74.646484375 0.1923828125 l 1
EndSplineSet
EndChar

StartChar: X
Encoding: 88 88 57
Width: 440
GlyphClass: 1
Flags: W
LayerCount: 2
Fore
SplineSet
183.543945312 274.739257812 m 1
 24.01171875 518.19921875 l 1
 104.15625 518.19921875 l 1
 225.161132812 323.103515625 l 1
 348.435546875 518.19921875 l 1
 428.580078125 518.19921875 l 1
 263.688476562 274.739257812 l 1
 440.6875 0.1923828125 l 1
 360.54296875 0.1923828125 l 1
 219.549804688 217.672851562 l 1
 79.1865234375 0.1923828125 l 1
 -0.9580078125 0.1923828125 l 1
 183.543945312 274.739257812 l 1
EndSplineSet
EndChar

StartChar: Y
Encoding: 89 89 58
AltUni2: 000178.ffffffff.0 000178.ffffffff.0
Width: 440
GlyphClass: 1
Flags: W
LayerCount: 2
Fore
SplineSet
182.409179688 234.194335938 m 1
 5.8515625 518.200195312 l 1
 85.2392578125 518.200195312 l 1
 219.864257812 289.810546875 l 1
 353.732421875 518.200195312 l 1
 433.876953125 518.200195312 l 1
 256.94140625 233.123046875 l 1
 256.94140625 0.193359375 l 1
 182.09375 0.193359375 l 1
 182.409179688 234.194335938 l 1
EndSplineSet
EndChar

StartChar: Z
Encoding: 90 90 59
Width: 440
GlyphClass: 1
Flags: W
LayerCount: 2
Fore
SplineSet
40.6904296875 459.241210938 m 1
 40.69140625 518.19921875 l 1
 399.166015625 518.19921875 l 1
 399.166015625 465.294921875 l 1
 110.999023438 59.212890625 l 1
 406.668945312 59.212890625 l 1
 406.668945312 0.5703125 l 1
 33.0615234375 0.1923828125 l 1
 33.0615234375 55.681640625 l 1
 312.904296875 459.241210938 l 1
 40.6904296875 459.241210938 l 1
EndSplineSet
EndChar

StartChar: bracketleft
Encoding: 91 91 60
Width: 440
GlyphClass: 1
Flags: W
LayerCount: 2
Fore
SplineSet
335.159179688 530.197265625 m 1
 172.537109375 530.512695312 l 1
 172.537109375 -11.265625 l 1
 335.159179688 -11.265625 l 1
 335.159179688 -66.5029296875 l 1
 104.5 -66.5029296875 l 1
 104.5 584.677734375 l 1
 335.159179688 584.677734375 l 1
 335.159179688 530.197265625 l 1
EndSplineSet
EndChar

StartChar: backslash
Encoding: 92 92 61
Width: 440
GlyphClass: 1
Flags: W
LayerCount: 2
Fore
SplineSet
109.366210938 550.626953125 m 1
 399.9921875 -33.3359375 l 1
 330.0625 -33.3359375 l 1
 39.5 550.626953125 l 1
 109.366210938 550.626953125 l 1
EndSplineSet
EndChar

StartChar: bracketright
Encoding: 93 93 62
Width: 440
GlyphClass: 1
Flags: W
LayerCount: 2
Fore
SplineSet
104.5 584.677734375 m 1
 335.159179688 584.677734375 l 1
 335.159179688 -66.5029296875 l 1
 104.5 -66.5029296875 l 1
 104.5 -11.265625 l 1
 267.05859375 -11.265625 l 1
 267.05859375 530.512695312 l 1
 104.5 530.197265625 l 1
 104.5 584.677734375 l 1
EndSplineSet
EndChar

StartChar: asciicircum
Encoding: 94 94 63
Width: 440
GlyphClass: 1
Flags: W
LayerCount: 2
Fore
SplineSet
252.33203125 518.08984375 m 1
 402.025390625 319.967773438 l 1
 320.368164062 319.967773438 l 1
 219.73046875 460.646484375 l 1
 119.15625 319.967773438 l 1
 37.4990234375 319.967773438 l 1
 187.2578125 518.08984375 l 1
 252.33203125 518.08984375 l 1
EndSplineSet
EndChar

StartChar: underscore
Encoding: 95 95 64
Width: 440
GlyphClass: 1
Flags: W
LayerCount: 2
Fore
SplineSet
454.385742188 -65.873046875 m 1
 -14.5 -65.873046875 l 1
 -14.5 -9.5634765625 l 1
 454.385742188 -9.5634765625 l 1
 454.385742188 -65.873046875 l 1
EndSplineSet
EndChar

StartChar: grave
Encoding: 96 96 65
Width: 440
GlyphClass: 1
Flags: W
LayerCount: 2
Fore
SplineSet
207.229492188 568.788085938 m 1
 315.37109375 416.12890625 l 1
 232.578125 416.12890625 l 1
 124.5 568.788085938 l 1
 207.229492188 568.788085938 l 1
EndSplineSet
EndChar

StartChar: a
Encoding: 97 97 66
Width: 440
GlyphClass: 1
Flags: W
LayerCount: 2
Fore
SplineSet
214 398.560546875 m 1
 214 398.434570312 l 1
 304.80078125 398.434570312 391.061523438 372.708007812 391.061523438 240.794921875 c 0
 391.061523438 164.118164062 390.494140625 -0.2060546875 390.494140625 -0.2060546875 c 1
 329.266601562 -0.2060546875 l 1
 329.266601562 -0.2060546875 331.158203125 24.5751953125 329.266601562 52.0048828125 c 1
 297.234375 0.6142578125 237.079101562 -9.0966796875 191.8046875 -9.0966796875 c 0
 112.1015625 -9.0966796875 48.6669921875 29.6201171875 48.6669921875 116.322265625 c 0
 48.6669921875 171.9375 74.9609375 216.392578125 152.708984375 237.768554688 c 0
 205.171875 252.208007812 321.888671875 246.533203125 321.888671875 246.533203125 c 1
 321.888671875 266.6484375 332.356445312 344.6484375 226.295898438 344.6484375 c 0
 144.953125 344.6484375 103.840820312 343.260742188 103.840820312 343.260742188 c 1
 103.840820312 396.984375 l 1
 145.583984375 396.984375 151.258789062 398.560546875 214 398.560546875 c 1
203.659179688 43.806640625 m 0
 319.682617188 43.806640625 322.39453125 159.703125 322.39453125 195.833984375 c 1
 209.586914062 195.833984375 116.389648438 205.986328125 116.389648438 115.500976562 c 0
 116.389648438 62.3447265625 160.655273438 43.806640625 203.659179688 43.806640625 c 0
EndSplineSet
EndChar

StartChar: b
Encoding: 98 98 67
Width: 440
GlyphClass: 1
Flags: W
LayerCount: 2
Fore
SplineSet
232.413085938 398.497070312 m 1
 232.286132812 398.498046875 l 1
 321.069335938 398.498046875 389.611328125 335.44140625 389.611328125 195.078125 c 0
 389.611328125 54.71484375 313.880859375 -8.9716796875 242.564453125 -8.9716796875 c 0
 171.248046875 -8.9716796875 118.154296875 49.859375 118.154296875 49.859375 c 1
 111.344726562 0.67578125 l 1
 50.1171875 0.67578125 l 1
 50.1171875 560.48828125 l 1
 118.217773438 560.48828125 l 1
 118.217773438 339.4765625 l 1
 118.217773438 339.4765625 143.629882812 398.497070312 232.413085938 398.497070312 c 1
227.682617188 44.5634765625 m 0
 307.385742188 44.5634765625 333.869140625 111.78125 333.869140625 194.700195312 c 0
 333.869140625 277.619140625 305.494140625 344.836914062 227.682617188 344.836914062 c 0
 149.87109375 344.836914062 121.49609375 277.619140625 121.49609375 194.700195312 c 0
 121.49609375 111.78125 148.04296875 44.5634765625 227.682617188 44.5634765625 c 0
EndSplineSet
EndChar

StartChar: c
Encoding: 99 99 68
Width: 440
GlyphClass: 1
Flags: W
LayerCount: 2
Fore
SplineSet
268.607421875 344.899414062 m 1
 268.607421875 345.0234375 l 1
 185.814453125 345.0234375 132.090820312 299.686523438 132.090820312 194.88671875 c 0
 132.090820312 90.84375 185.751953125 44.75 268.607421875 44.75 c 0
 309.467773438 44.75 349.634765625 61.2080078125 380.02734375 87.69140625 c 1
 380.02734375 22.6806640625 l 1
 346.040039062 -0.3974609375 302.720703125 -8.97265625 254.735351562 -8.97265625 c 0
 147.03515625 -8.97265625 59.7021484375 58.6865234375 59.7021484375 194.887695312 c 0
 59.7021484375 331.088867188 147.03515625 398.748046875 254.735351562 398.748046875 c 0
 302.720703125 398.748046875 346.040039062 390.172851562 380.02734375 367.094726562 c 1
 380.02734375 301.958007812 l 1
 349.634765625 328.44140625 309.467773438 344.899414062 268.607421875 344.899414062 c 1
EndSplineSet
EndChar

StartChar: d
Encoding: 100 100 69
Width: 440
GlyphClass: 1
Flags: W
LayerCount: 2
Fore
SplineSet
321.637695312 560.48828125 m 1
 389.612304688 560.487304688 l 1
 389.612304688 0.6748046875 l 1
 328.384765625 0.6748046875 l 1
 321.57421875 49.8583984375 l 1
 321.57421875 49.8583984375 268.48046875 -8.97265625 197.1640625 -8.97265625 c 0
 125.84765625 -8.97265625 50.1171875 54.7138671875 50.1171875 195.077148438 c 0
 50.1171875 335.440429688 118.659179688 398.497070312 207.442382812 398.497070312 c 0
 296.225585938 398.497070312 321.637695312 339.4765625 321.637695312 339.4765625 c 1
 321.637695312 560.48828125 l 1
221.946289062 44.5615234375 m 0
 296.857421875 44.5615234375 321.764648438 111.779296875 321.764648438 194.698242188 c 0
 321.764648438 277.6171875 295.091796875 344.834960938 221.946289062 344.834960938 c 0
 148.80078125 344.834960938 122.127929688 277.6171875 122.127929688 194.698242188 c 0
 122.127929688 111.779296875 147.03515625 44.5615234375 221.946289062 44.5615234375 c 0
EndSplineSet
EndChar

StartChar: e
Encoding: 101 101 70
Width: 440
GlyphClass: 1
Flags: W
LayerCount: 2
Fore
SplineSet
108.287109375 179.944335938 m 1
 108.224609375 179.8828125 l 1
 108.224609375 115.25 139.4375 44.87890625 237.111328125 44.87890625 c 0
 297.9609375 44.87890625 334.974609375 60.328125 386.5546875 83.84765625 c 1
 386.5546875 20.3505859375 l 1
 342.099609375 1.7490234375 297.897460938 -8.9072265625 234.65234375 -8.9072265625 c 0
 117.998046875 -8.9072265625 37.2861328125 66.06640625 37.2861328125 194.637695312 c 0
 37.2861328125 323.208984375 119.322265625 398.182617188 220.52734375 398.182617188 c 0
 351.431640625 398.182617188 401.6875 315.831054688 401.6875 227.615234375 c 0
 401.6875 216.138671875 402.444335938 179.944335938 402.444335938 179.944335938 c 1
 108.287109375 179.944335938 l 1
227.1484375 345.08984375 m 2
 227.0859375 345.08984375 l 2
 165.353515625 345.08984375 111.250976562 293.068359375 111.250976562 228.814453125 c 1
 334.974609375 228.814453125 l 1
 334.974609375 305.23828125 300.671875 345.08984375 227.1484375 345.08984375 c 2
EndSplineSet
EndChar

StartChar: f
Encoding: 102 102 71
Width: 440
GlyphClass: 1
Flags: W
LayerCount: 2
Fore
SplineSet
295.5 493.396484375 m 2
 252.432617188 493.396484375 230.489257812 483.559570312 230.489257812 431.16015625 c 2
 230.489257812 356.249023438 l 1
 355.27734375 356.249023438 l 1
 355.27734375 298.7421875 l 1
 230.489257812 298.7421875 l 1
 230.489257812 3.828125 l 1
 162.388671875 3.828125 l 1
 162.388671875 298.7421875 l 1
 40.3115234375 298.7421875 l 1
 40.3115234375 356.249023438 l 1
 162.388671875 356.249023438 l 1
 162.388671875 408.459960938 l 2
 162.388671875 518.051757812 211.256835938 547.625 290.959960938 547.625 c 2
 399.416992188 547.625 l 1
 399.416992188 493.396484375 l 1
 295.5 493.396484375 l 2
EndSplineSet
EndChar

StartChar: g
Encoding: 103 103 72
Width: 440
GlyphClass: 1
Flags: W
LayerCount: 2
Fore
SplineSet
328.131835938 389.228515625 m 1
 389.358398438 389.228515625 l 1
 389.358398438 -12.7548828125 l 2
 389.358398438 -130.859375 322.140625 -185.213867188 217.971679688 -185.213867188 c 2
 87.634765625 -185.213867188 l 1
 87.634765625 -127.454101562 l 1
 223.899414062 -127.454101562 l 2
 303.350585938 -127.454101562 326.997070312 -58.4072265625 326.997070312 -13.6376953125 c 2
 326.997070312 45.193359375 l 1
 326.997070312 45.193359375 300.513671875 -1.279296875 211.73046875 -1.279296875 c 0
 122.947265625 -1.279296875 50.3701171875 59.5068359375 50.3701171875 199.870117188 c 0
 50.3701171875 340.233398438 130.135742188 398.875976562 201.452148438 398.875976562 c 0
 266.084960938 398.875976562 292.252929688 387.904296875 328.69921875 350.385742188 c 1
 328.131835938 389.228515625 l 1
221.62890625 52.5087890625 m 0
 294.774414062 52.5087890625 321.447265625 112.348632812 321.447265625 195.267578125 c 0
 321.447265625 278.186523438 296.540039062 345.404296875 221.62890625 345.404296875 c 0
 146.717773438 345.404296875 118.216796875 278.186523438 118.216796875 195.267578125 c 0
 118.216796875 112.348632812 148.483398438 52.5087890625 221.62890625 52.5087890625 c 0
EndSplineSet
EndChar

StartChar: h
Encoding: 104 104 73
Width: 440
GlyphClass: 1
Flags: W
LayerCount: 2
Fore
SplineSet
253.37890625 402.154296875 m 0
 320.534179688 402.154296875 377.662109375 349.564453125 377.662109375 256.934570312 c 2
 377.662109375 1.1787109375 l 1
 310.318359375 1.1787109375 l 1
 310.318359375 250.818359375 l 2
 310.318359375 311.478515625 282.700195312 343.763671875 233.201171875 343.763671875 c 0
 172.79296875 343.763671875 130.356445312 305.172851562 130.356445312 224.083007812 c 2
 130.356445312 1.1796875 l 1
 62.06640625 1.1796875 l 1
 62.06640625 560.48828125 l 1
 130.356445312 560.48828125 l 1
 130.356445312 342.440429688 l 1
 151.54296875 376.869140625 188.935546875 402.154296875 253.37890625 402.154296875 c 0
EndSplineSet
EndChar

StartChar: i
Encoding: 105 105 74
Width: 440
GlyphClass: 1
Flags: W
LayerCount: 2
Fore
SplineSet
139.341796875 331.46875 m 1
 139.341796875 389.858398438 l 1
 300.387695312 389.858398438 l 1
 300.387695312 1.1806640625 l 1
 231.971679688 1.1806640625 l 1
 231.971679688 331.46875 l 1
 139.341796875 331.46875 l 1
290.739257812 458.2109375 m 2
 234.682617188 458.2109375 l 2
 229.354492188 458.2109375 225.03515625 462.530273438 225.03515625 467.858398438 c 2
 225.03515625 531.734375 l 2
 225.03515625 537.0625 229.354492188 541.381835938 234.682617188 541.381835938 c 2
 290.739257812 541.381835938 l 2
 296.067382812 541.381835938 300.38671875 537.0625 300.38671875 531.734375 c 2
 300.38671875 467.858398438 l 2
 300.38671875 462.530273438 296.067382812 458.2109375 290.739257812 458.2109375 c 2
EndSplineSet
EndChar

StartChar: j
Encoding: 106 106 75
Width: 440
GlyphClass: 1
Flags: W
LayerCount: 2
Fore
SplineSet
329.676757812 458.211914062 m 2
 273.620117188 458.211914062 l 2
 268.291992188 458.211914062 263.97265625 462.53125 263.97265625 467.859375 c 2
 263.97265625 531.735351562 l 2
 263.97265625 537.063476562 268.291992188 541.3828125 273.620117188 541.3828125 c 2
 329.676757812 541.3828125 l 2
 335.004882812 541.3828125 339.32421875 537.063476562 339.32421875 531.735351562 c 2
 339.32421875 467.859375 l 2
 339.32421875 462.53125 335.004882812 458.211914062 329.676757812 458.211914062 c 2
165.037109375 332.415039062 m 1
 165.036132812 389.860351562 l 1
 339.38671875 389.860351562 l 1
 339.38671875 -24.103515625 l 2
 339.38671875 -113.202148438 312.3359375 -185.149414062 212.329101562 -185.149414062 c 2
 100.341796875 -185.149414062 l 1
 100.341796875 -126.002929688 l 1
 204.762695312 -126.002929688 l 2
 242.091796875 -126.002929688 271.287109375 -93.0244140625 271.287109375 -24.1044921875 c 2
 271.287109375 332.415039062 l 1
 165.037109375 332.415039062 l 1
EndSplineSet
EndChar

StartChar: k
Encoding: 107 107 76
Width: 440
GlyphClass: 1
Flags: W
LayerCount: 2
Fore
SplineSet
210.028320312 244.955078125 m 1
 397.809570312 2.125 l 1
 317.09765625 2.125 l 1
 163.240234375 203.1484375 l 1
 112.227539062 157.622070312 l 1
 112.227539062 2.1259765625 l 1
 41.919921875 2.1259765625 l 1
 41.919921875 541.381835938 l 1
 112.227539062 541.381835938 l 1
 112.227539062 229.758789062 l 1
 292.504882812 390.741210938 l 1
 373.280273438 390.741210938 l 1
 210.028320312 244.955078125 l 1
EndSplineSet
EndChar

StartChar: l
Encoding: 108 108 77
Width: 440
GlyphClass: 1
Flags: W
LayerCount: 2
Fore
SplineSet
133.446289062 519.3125 m 1
 306.283203125 519.3125 l 1
 306.283203125 1.1796875 l 1
 236.858398438 1.1796875 l 1
 236.858398438 458.526367188 l 1
 133.446289062 458.526367188 l 1
 133.446289062 519.3125 l 1
EndSplineSet
EndChar

StartChar: m
Encoding: 109 109 78
Width: 440
GlyphClass: 1
Flags: W
LayerCount: 2
Fore
SplineSet
324.001953125 398.875976562 m 1
 324.125976562 398.814453125 l 1
 382.831054688 398.814453125 419.151367188 346.603515625 419.151367188 277.494140625 c 2
 419.151367188 -1.025390625 l 1
 358.365234375 -1.025390625 l 1
 358.365234375 260.02734375 l 2
 358.365234375 320.6875 339.637695312 343.955078125 306.155273438 343.955078125 c 0
 270.78125 343.955078125 254.576171875 322.579101562 250.79296875 273.33203125 c 2
 250.79296875 -1.025390625 l 1
 190.006835938 -1.025390625 l 1
 190.006835938 260.02734375 l 2
 190.006835938 320.6875 171.279296875 343.955078125 137.796875 343.955078125 c 0
 102.80078125 343.955078125 86.595703125 322.89453125 82.623046875 274.782226562 c 2
 82.623046875 -1.025390625 l 1
 20.576171875 -1.025390625 l 1
 20.576171875 387.715820312 l 1
 82.623046875 387.715820312 l 1
 82.623046875 370.438476562 l 1
 101.4140625 387.526367188 127.078125 398.876953125 155.706054688 398.876953125 c 0
 190.954101562 398.876953125 217.942382812 379.770507812 234.021484375 349.755859375 c 1
 251.235351562 378.572265625 285.096679688 398.875976562 324.001953125 398.875976562 c 1
EndSplineSet
EndChar

StartChar: n
Encoding: 110 110 79
Width: 440
GlyphClass: 1
Flags: W
LayerCount: 2
Fore
SplineSet
253.37890625 402.154296875 m 0
 320.534179688 402.154296875 377.663085938 349.565429688 377.663085938 256.935546875 c 2
 377.663085938 1.1796875 l 1
 310.319335938 1.1796875 l 1
 310.319335938 250.819335938 l 2
 310.319335938 311.479492188 282.701171875 343.764648438 233.202148438 343.764648438 c 0
 172.793945312 343.764648438 130.357421875 305.173828125 130.357421875 224.083984375 c 2
 130.357421875 1.1806640625 l 1
 62.0673828125 1.1806640625 l 1
 62.0673828125 389.669921875 l 1
 126.005859375 389.669921875 l 1
 130.356445312 342.440429688 l 1
 151.54296875 376.869140625 188.935546875 402.154296875 253.37890625 402.154296875 c 0
EndSplineSet
EndChar

StartChar: o
Encoding: 111 111 80
Width: 440
GlyphClass: 1
Flags: W
LayerCount: 2
Fore
SplineSet
219.864257812 399.6953125 m 0
 326.681640625 399.6953125 396.86328125 336.073242188 396.86328125 195.583984375 c 0
 396.86328125 55.0947265625 331.915039062 -8.529296875 219.864257812 -8.529296875 c 0
 107.813476562 -8.529296875 42.865234375 55.1572265625 42.865234375 195.583007812 c 0
 42.865234375 336.008789062 113.046875 399.6953125 219.864257812 399.6953125 c 0
219.864257812 44.3759765625 m 0
 275.60546875 44.3759765625 323.65625 81.5791015625 323.65625 196.15234375 c 0
 323.65625 310.725585938 272.076171875 345.721679688 219.865234375 345.721679688 c 0
 167.654296875 345.721679688 116.07421875 310.725585938 116.07421875 196.15234375 c 0
 116.07421875 81.5791015625 164.123046875 44.3759765625 219.864257812 44.3759765625 c 0
EndSplineSet
EndChar

StartChar: p
Encoding: 112 112 81
Width: 440
GlyphClass: 1
Flags: W
LayerCount: 2
Fore
SplineSet
234.556640625 391.6875 m 2
 234.682617188 391.688476562 l 2
 316.592773438 391.688476562 389.674804688 328.001953125 389.674804688 187.638671875 c 0
 389.674804688 47.275390625 321.1328125 -15.78125 232.349609375 -15.78125 c 0
 143.56640625 -15.78125 118.154296875 43.2392578125 118.154296875 43.2392578125 c 1
 118.154296875 -177.772460938 l 1
 50.0537109375 -177.772460938 l 1
 50.0537109375 382.040039062 l 1
 111.28125 382.040039062 l 1
 118.091796875 332.856445312 l 1
 118.091796875 332.856445312 151.51171875 391.6875 234.556640625 391.6875 c 2
227.494140625 37.880859375 m 0
 300.639648438 37.880859375 327.3125 104.467773438 327.3125 186.56640625 c 0
 327.3125 268.665039062 302.405273438 335.251953125 227.494140625 335.251953125 c 0
 152.583007812 335.251953125 127.67578125 268.665039062 127.67578125 186.56640625 c 0
 127.67578125 104.467773438 154.348632812 37.880859375 227.494140625 37.880859375 c 0
EndSplineSet
EndChar

StartChar: q
Encoding: 113 113 82
Width: 440
GlyphClass: 1
Flags: W
LayerCount: 2
Fore
SplineSet
328.321289062 381.9765625 m 1
 389.676757812 381.975585938 l 1
 389.676757812 -177.836914062 l 1
 321.576171875 -177.836914062 l 1
 321.576171875 43.1748046875 l 1
 321.576171875 43.1748046875 296.1640625 -15.845703125 207.380859375 -15.845703125 c 0
 118.59765625 -15.845703125 50.0556640625 47.2109375 50.0556640625 187.57421875 c 0
 50.0556640625 327.9375 123.137695312 391.624023438 205.047851562 391.624023438 c 0
 288.029296875 391.624023438 321.51171875 332.79296875 321.51171875 332.79296875 c 1
 328.321289062 381.9765625 l 1
212.110351562 37.8779296875 m 0
 285.255859375 37.8779296875 311.928710938 104.46484375 311.928710938 186.563476562 c 0
 311.928710938 268.662109375 287.021484375 335.249023438 212.110351562 335.249023438 c 0
 137.19921875 335.249023438 112.291992188 268.662109375 112.291992188 186.563476562 c 0
 112.291992188 104.46484375 138.96484375 37.8779296875 212.110351562 37.8779296875 c 0
EndSplineSet
EndChar

StartChar: r
Encoding: 114 114 83
Width: 440
GlyphClass: 1
Flags: W
LayerCount: 2
Fore
SplineSet
267.59765625 397.614257812 m 1
 267.596679688 397.55078125 l 1
 334.751953125 397.55078125 370.630859375 368.418945312 370.630859375 368.418945312 c 1
 370.630859375 303.408203125 l 1
 370.630859375 303.408203125 334.374023438 340.043945312 263.625 340.043945312 c 0
 184.868164062 340.043945312 137.38671875 286.887695312 137.38671875 245.396484375 c 2
 137.38671875 0.1083984375 l 1
 69.0966796875 0.1083984375 l 1
 69.0966796875 388.59765625 l 1
 136.9453125 388.59765625 l 1
 135.431640625 335.9453125 l 1
 156.555664062 370.4375 203.154296875 397.614257812 267.59765625 397.614257812 c 1
EndSplineSet
EndChar

StartChar: s
Encoding: 115 115 84
Width: 440
GlyphClass: 1
Flags: W
LayerCount: 2
Fore
SplineSet
232.380859375 233.731445312 m 1
 232.192382812 233.66796875 l 1
 314.985351562 221.561523438 370.7265625 200.4375 370.7265625 122.5 c 0
 370.7265625 44.5625 305.778320312 -1.08984375 209.744140625 -1.08984375 c 0
 141.454101562 -1.08984375 69.0029296875 22.6826171875 69.0029296875 22.6826171875 c 1
 69.0029296875 88.4501953125 l 1
 69.0029296875 88.4501953125 141.328125 50.5537109375 207.411132812 51.373046875 c 0
 270.65625 52.1298828125 301.995117188 80.630859375 301.995117188 114.176757812 c 0
 301.995117188 149.172851562 268.638671875 168.59375 211.2578125 178.493164062 c 0
 92.775390625 198.986328125 70.642578125 237.072265625 70.642578125 290.41796875 c 0
 70.642578125 343.763671875 101.03515625 406.125976562 226.454101562 406.125976562 c 0
 299.977539062 406.125976562 349.728515625 383.42578125 349.728515625 383.42578125 c 1
 349.728515625 321.44140625 l 1
 349.728515625 321.44140625 303.00390625 353.158203125 228.723632812 353.158203125 c 0
 154.443359375 353.158203125 139.499023438 325.098632812 139.499023438 295.71484375 c 0
 139.499023438 266.331054688 149.587890625 245.837890625 232.380859375 233.731445312 c 1
EndSplineSet
EndChar

StartChar: t
Encoding: 116 116 85
Width: 440
GlyphClass: 1
Flags: W
LayerCount: 2
Fore
SplineSet
215.734375 64.9306640625 m 2
 215.797851562 64.9326171875 l 2
 254.451171875 64.9326171875 352.125 65.05859375 352.125 65.05859375 c 1
 352.125 6.857421875 l 1
 226.76953125 6.857421875 l 2
 157.72265625 6.857421875 87.6044921875 15.244140625 87.6044921875 135.428710938 c 2
 87.6044921875 515.08984375 l 1
 155.705078125 515.08984375 l 1
 155.705078125 397.048828125 l 1
 318.327148438 397.048828125 l 1
 318.327148438 338.84765625 l 1
 155.705078125 338.84765625 l 1
 155.705078125 135.365234375 l 2
 155.705078125 85.361328125 177.081054688 64.9306640625 215.734375 64.9306640625 c 2
EndSplineSet
EndChar

StartChar: u
Encoding: 117 117 86
Width: 440
GlyphClass: 1
Flags: W
LayerCount: 2
Fore
SplineSet
54.4140625 144.627929688 m 2
 54.4140625 388.530273438 l 1
 121.6953125 388.530273438 l 1
 121.6953125 148.034179688 l 2
 121.6953125 80.87890625 148.935546875 46.1982421875 207.640625 46.1982421875 c 0
 266.345703125 46.1982421875 314.268554688 85.923828125 314.268554688 138.0078125 c 0
 314.268554688 239.149414062 316.727539062 388.529296875 316.727539062 388.529296875 c 1
 384.828125 388.529296875 l 1
 385.584960938 0.544921875 l 1
 322.087890625 0.544921875 l 1
 322.087890625 42.9189453125 l 1
 322.087890625 42.9189453125 303.73828125 -9.859375 205.875 -9.859375 c 0
 101.202148438 -9.859375 54.4140625 37.4326171875 54.4140625 144.627929688 c 2
EndSplineSet
EndChar

StartChar: v
Encoding: 118 118 87
Width: 440
GlyphClass: 1
Flags: W
LayerCount: 2
Fore
SplineSet
340.112304688 388.534179688 m 1
 410.419921875 388.534179688 l 1
 262.490234375 0.1708984375 l 1
 175.788085938 0.1708984375 l 1
 29.30859375 388.534179688 l 1
 99.6162109375 388.534179688 l 1
 219.864257812 62.5966796875 l 1
 340.112304688 388.534179688 l 1
EndSplineSet
EndChar

StartChar: w
Encoding: 119 119 88
Width: 440
GlyphClass: 1
Flags: W
LayerCount: 2
Fore
SplineSet
380.216796875 388.534179688 m 1
 447.499023438 388.534179688 l 1
 350.077148438 0.1708984375 l 1
 286.580078125 0.1708984375 l 1
 219.298828125 215.255859375 l 1
 154.098632812 0.1708984375 l 1
 88.9619140625 -0.20703125 l 1
 -7.7666015625 388.534179688 l 1
 59.5146484375 388.534179688 l 1
 128.30859375 85.296875 l 1
 181.275390625 277.366210938 l 1
 256.942382812 277.366210938 l 1
 317.413085938 85.296875 l 1
 380.216796875 388.534179688 l 1
EndSplineSet
EndChar

StartChar: x
Encoding: 120 120 89
Width: 440
GlyphClass: 1
Flags: W
LayerCount: 2
Fore
SplineSet
256.720703125 202.518554688 m 1
 418.774414062 0.1708984375 l 1
 341.215820312 0.1708984375 l 1
 218.697265625 155.415039062 l 1
 98.9541015625 0.1708984375 l 1
 20.9541015625 -0.20703125 l 1
 183.38671875 204.032226562 l 1
 34.384765625 388.534179688 l 1
 109.989257812 388.534179688 l 1
 219.643554688 247.85546875 l 1
 328.541992188 388.534179688 l 1
 404.965820312 388.534179688 l 1
 256.720703125 202.518554688 l 1
EndSplineSet
EndChar

StartChar: y
Encoding: 121 121 90
Width: 440
GlyphClass: 1
Flags: W
LayerCount: 2
Fore
SplineSet
389.706054688 389.291015625 m 1
 389.643554688 389.290039062 l 1
 389.643554688 389.290039062 392.607421875 12.1513671875 392.607421875 -35.58203125 c 0
 392.607421875 -74.9287109375 367.448242188 -187.736328125 278.475585938 -187.736328125 c 2
 83.3798828125 -187.736328125 l 1
 83.3798828125 -128.715820312 l 1
 259.243164062 -128.715820312 l 2
 327.469726562 -128.715820312 322.866210938 -33.564453125 322.866210938 0.1708984375 c 1
 323.244140625 0.1708984375 293.418945312 0.1708984375 190.322265625 0.1708984375 c 0
 87.2255859375 0.1708984375 47.1220703125 71.361328125 47.1220703125 126.724609375 c 0
 47.1220703125 182.087890625 47.87890625 388.534179688 47.87890625 388.534179688 c 1
 115.916015625 389.291015625 l 1
 115.916015625 160.14453125 l 2
 115.916015625 101.060546875 127.329101562 60.515625 185.971679688 60.515625 c 0
 244.614257812 60.515625 323.119140625 60.1376953125 323.119140625 60.1376953125 c 1
 321.60546875 388.534179688 l 1
 389.706054688 389.291015625 l 1
EndSplineSet
EndChar

StartChar: z
Encoding: 122 122 91
Width: 440
GlyphClass: 1
Flags: W
LayerCount: 2
Fore
SplineSet
137.072265625 52.00390625 m 1
 137.008789062 51.94140625 l 1
 374.478515625 51.94140625 l 1
 374.66796875 -0.26953125 l 1
 64.9990234375 -0.26953125 l 1
 65.1884765625 58.7509765625 l 1
 65.1884765625 58.7509765625 305.936523438 337.017578125 302.657226562 338.59375 c 0
 299.377929688 340.169921875 74.267578125 338.59375 74.267578125 338.59375 c 1
 74.267578125 389.291015625 l 1
 374.541015625 389.291015625 l 1
 374.73046875 329.387695312 l 1
 137.072265625 52.00390625 l 1
EndSplineSet
EndChar

StartChar: braceleft
Encoding: 123 123 92
Width: 440
GlyphClass: 1
Flags: W
LayerCount: 2
Fore
SplineSet
266.856445312 470.862304688 m 2
 266.857421875 371.107421875 l 2
 266.857421875 338.06640625 262.19140625 274.442382812 195.3515625 258.678710938 c 1
 262.19140625 242.915039062 266.857421875 179.291015625 266.857421875 146.25 c 2
 266.857421875 46.55859375 l 2
 266.857421875 2.1044921875 290.818359375 -15.9296875 346.623046875 -15.9296875 c 2
 375.818359375 -15.9296875 l 1
 375.818359375 -77.724609375 l 1
 375.818359375 -77.724609375 345.48828125 -77.5986328125 331.8046875 -77.5986328125 c 0
 199.638671875 -77.5986328125 196.233398438 5.572265625 196.233398438 64.8447265625 c 2
 196.233398438 151.420898438 l 2
 196.233398438 209.55859375 170.001953125 225.889648438 114.764648438 225.889648438 c 2
 63.5 225.889648438 l 1
 63.5 291.59375 l 1
 114.764648438 291.59375 l 2
 170.001953125 291.59375 196.233398438 307.924804688 196.233398438 366.0625 c 2
 196.233398438 452.638671875 l 2
 196.233398438 511.848632812 199.638671875 595.01953125 331.8046875 595.01953125 c 0
 345.48828125 595.01953125 375.818359375 595.145507812 375.818359375 595.145507812 c 1
 375.818359375 533.350585938 l 1
 346.623046875 533.350585938 l 2
 290.754882812 533.350585938 266.856445312 515.31640625 266.856445312 470.862304688 c 2
EndSplineSet
EndChar

StartChar: verticalbar
Encoding: 124 124 93
Width: 440
GlyphClass: 1
Flags: W
LayerCount: 2
Fore
SplineSet
251.749023438 -55.15234375 m 1
 188.251953125 -55.15234375 l 1
 188.251953125 574.084960938 l 1
 251.749023438 574.084960938 l 1
 251.749023438 -55.15234375 l 1
EndSplineSet
EndChar

StartChar: braceright
Encoding: 125 125 94
Width: 440
GlyphClass: 1
Flags: W
LayerCount: 2
Fore
SplineSet
172.4609375 371.043945312 m 2
 172.461914062 470.861328125 l 2
 172.461914062 515.315429688 148.563476562 533.349609375 92.6953125 533.349609375 c 2
 63.5 533.349609375 l 1
 63.5 595.14453125 l 1
 63.5 595.14453125 93.830078125 595.018554688 107.513671875 595.018554688 c 0
 239.6796875 595.018554688 243.084960938 511.84765625 243.084960938 452.575195312 c 2
 243.084960938 365.999023438 l 2
 243.084960938 307.861328125 269.31640625 291.530273438 324.553710938 291.530273438 c 2
 375.818359375 291.530273438 l 1
 375.818359375 225.826171875 l 1
 324.553710938 225.826171875 l 2
 269.31640625 225.826171875 243.084960938 209.495117188 243.084960938 151.357421875 c 2
 243.084960938 64.78125 l 2
 243.084960938 5.5087890625 239.6796875 -77.662109375 107.513671875 -77.662109375 c 0
 93.830078125 -77.662109375 63.5 -77.7880859375 63.5 -77.7880859375 c 1
 63.5 -15.9931640625 l 1
 63.5 -15.9931640625 69.931640625 -15.9931640625 92.6953125 -15.9931640625 c 0
 148.5 -15.9931640625 172.4609375 2.041015625 172.4609375 46.4951171875 c 2
 172.4609375 146.186523438 l 2
 172.4609375 179.227539062 177.126953125 242.8515625 243.966796875 258.615234375 c 1
 177.126953125 274.37890625 172.4609375 338.002929688 172.4609375 371.043945312 c 2
EndSplineSet
EndChar

StartChar: asciitilde
Encoding: 126 126 95
Width: 440
GlyphClass: 1
Flags: W
LayerCount: 2
Fore
SplineSet
359.030273438 322.241210938 m 1
 416.536132812 309.37890625 l 1
 407.771484375 264.104492188 392.890625 177.780273438 303.85546875 177.780273438 c 0
 214.8203125 177.780273438 188.904296875 303.387695312 131.270507812 293.866210938 c 0
 86.7529296875 286.48828125 80.005859375 204.262695312 80.005859375 204.262695312 c 1
 22.4990234375 217.125976562 l 1
 31.3271484375 262.65234375 46.1455078125 348.723632812 135.180664062 348.723632812 c 0
 224.215820312 348.723632812 250.131835938 223.116210938 307.765625 232.637695312 c 0
 352.283203125 240.015625 359.030273438 322.241210938 359.030273438 322.241210938 c 1
EndSplineSet
EndChar

StartChar: exclamdown
Encoding: 161 161 96
Width: 440
GlyphClass: 1
Flags: W
LayerCount: 2
Fore
SplineSet
195.849609375 330.879882812 m 1
 241.818359375 330.880859375 l 1
 270.760742188 135.34375 l 1
 269.814453125 -20.279296875 l 1
 169.302734375 -20.279296875 l 1
 169.302734375 134.96484375 l 1
 195.849609375 330.879882812 l 1
220.000976562 400.747070312 m 0
 186.70703125 400.747070312 159.71875 427.482421875 159.71875 460.5234375 c 0
 159.71875 493.564453125 186.70703125 520.299804688 220.000976562 520.299804688 c 0
 253.294921875 520.299804688 280.283203125 493.564453125 280.283203125 460.5234375 c 0
 280.283203125 427.482421875 253.294921875 400.747070312 220.000976562 400.747070312 c 0
EndSplineSet
EndChar

StartChar: cent
Encoding: 162 162 97
Width: 440
GlyphClass: 1
Flags: W
LayerCount: 2
Fore
SplineSet
280.859375 343.743164062 m 1
 280.861328125 47.2529296875 l 1
 316.109375 48.513671875 346.943359375 54.8828125 376.895507812 74.4931640625 c 1
 376.76953125 14.9677734375 l 1
 346.69140625 0.9697265625 318.37890625 -6.7861328125 280.860351562 -8.8671875 c 1
 280.860351562 -108.811523438 l 1
 243.026367188 -108.811523438 l 1
 243.026367188 -8.173828125 l 1
 143.90234375 -0.228515625 63.0009765625 68.818359375 63.0009765625 196.885742188 c 0
 63.0009765625 328.231445312 140.938476562 395.197265625 243.026367188 399.86328125 c 1
 243.026367188 497.033203125 l 1
 280.860351562 497.033203125 l 1
 280.860351562 399.233398438 l 1
 319.451171875 395.891601562 355.58203125 386.180664062 376.89453125 373.6953125 c 1
 376.768554688 314.043945312 l 1
 361.319335938 324.006835938 324.999023438 340.401367188 280.859375 343.743164062 c 1
243.02734375 48.513671875 m 1
 243.02734375 343.30078125 l 1
 179.340820312 334.9140625 134.94921875 290.459960938 134.94921875 196.758789062 c 0
 134.94921875 103.750976562 175.368164062 57.404296875 243.02734375 48.513671875 c 1
EndSplineSet
EndChar

StartChar: sterling
Encoding: 163 163 98
Width: 440
GlyphClass: 1
Flags: W
LayerCount: 2
Fore
SplineSet
201.865234375 59.296875 m 1
 201.927734375 59.171875 l 1
 399.23046875 58.982421875 l 1
 399.23046875 -0.0380859375 l 1
 40 -0.0380859375 l 1
 40 58.982421875 l 1
 126.954101562 58.982421875 l 1
 126.954101562 220.090820312 l 1
 53.556640625 220.090820312 l 1
 53.556640625 270.03125 l 1
 126.954101562 270.03125 l 1
 126.954101562 352.4453125 l 2
 126.954101562 470.423828125 183.95703125 527.930664062 288.0625 527.930664062 c 0
 362.02734375 527.930664062 391.6640625 507.5 391.6640625 507.5 c 1
 391.6640625 444.065429688 l 1
 391.6640625 444.065429688 344.30859375 473.702148438 302.1875 473.702148438 c 0
 238.563476562 473.702148438 201.865234375 445.07421875 201.865234375 357.8671875 c 2
 201.865234375 270.15625 l 1
 337.940429688 270.15625 l 1
 337.940429688 220.215820312 l 1
 201.865234375 220.215820312 l 1
 201.865234375 59.296875 l 1
EndSplineSet
EndChar

StartChar: currency
Encoding: 164 164 99
Width: 440
GlyphClass: 1
Flags: W
LayerCount: 2
Fore
SplineSet
344.670898438 222.422851562 m 0
 344.670898438 197.893554688 336.725585938 175.193359375 323.168945312 156.33984375 c 1
 383.008789062 98.8330078125 l 1
 349.462890625 63.962890625 l 1
 287.416015625 123.614257812 l 1
 267.868164062 111.633789062 244.600585938 104.508789062 219.50390625 104.508789062 c 0
 194.407226562 104.508789062 171.202148438 111.633789062 151.591796875 123.614257812 c 1
 89.544921875 63.962890625 l 1
 55.9990234375 98.8330078125 l 1
 115.838867188 156.33984375 l 1
 102.282226562 175.193359375 94.3369140625 197.893554688 94.3369140625 222.422851562 c 0
 94.3369140625 246.952148438 102.282226562 269.65234375 115.838867188 288.505859375 c 1
 55.9990234375 346.012695312 l 1
 89.544921875 380.8828125 l 1
 151.591796875 321.231445312 l 1
 171.139648438 333.211914062 194.407226562 340.336914062 219.50390625 340.336914062 c 0
 244.600585938 340.336914062 267.805664062 333.211914062 287.416015625 321.231445312 c 1
 349.462890625 380.8828125 l 1
 383.008789062 346.012695312 l 1
 323.168945312 288.505859375 l 1
 336.725585938 269.65234375 344.670898438 246.888671875 344.670898438 222.422851562 c 0
219.567382812 148.33203125 m 0
 262.950195312 148.33203125 298.135742188 181.5 298.135742188 222.360351562 c 0
 298.135742188 263.220703125 262.950195312 296.388671875 219.567382812 296.388671875 c 0
 176.184570312 296.388671875 140.999023438 263.220703125 140.999023438 222.360351562 c 0
 140.999023438 181.5 176.184570312 148.33203125 219.567382812 148.33203125 c 0
EndSplineSet
EndChar

StartChar: yen
Encoding: 165 165 100
Width: 440
GlyphClass: 1
Flags: W
LayerCount: 2
Fore
SplineSet
433.525390625 518.092773438 m 1
 313.970703125 323.75390625 l 1
 404.771484375 323.75390625 l 1
 404.771484375 285.352539062 l 1
 290.32421875 285.352539062 l 1
 257.345703125 231.69140625 l 1
 257.345703125 220.719726562 l 1
 404.771484375 220.719726562 l 1
 404.771484375 182.318359375 l 1
 257.346679688 182.318359375 l 1
 257.346679688 0.0859375 l 1
 181.7421875 0.0859375 l 1
 181.7421875 182.318359375 l 1
 34.25390625 182.318359375 l 1
 34.25390625 220.719726562 l 1
 181.7421875 220.719726562 l 1
 181.7421875 231.69140625 l 1
 148.701171875 285.352539062 l 1
 34.25390625 285.352539062 l 1
 34.25390625 323.75390625 l 1
 125.0546875 323.75390625 l 1
 5.5 518.092773438 l 1
 84.8876953125 518.092773438 l 1
 219.512695312 289.703125 l 1
 354.137695312 518.092773438 l 1
 433.525390625 518.092773438 l 1
EndSplineSet
EndChar

StartChar: brokenbar
Encoding: 166 166 101
Width: 440
GlyphClass: 1
Flags: W
LayerCount: 2
Fore
SplineSet
251.780273438 305.59375 m 1
 188.219726562 305.59375 l 1
 188.219726562 568.790039062 l 1
 251.780273438 568.790039062 l 1
 251.780273438 305.59375 l 1
251.780273438 -49.9169921875 m 1
 188.219726562 -49.9169921875 l 1
 188.219726562 213.53125 l 1
 251.780273438 213.53125 l 1
 251.780273438 -49.9169921875 l 1
EndSplineSet
EndChar

StartChar: section
Encoding: 167 167 102
Width: 440
GlyphClass: 1
Flags: W
LayerCount: 2
Fore
SplineSet
304.11328125 117.30859375 m 1
 304.112304688 117.432617188 l 1
 337.84765625 93.2822265625 349.765625 72.978515625 349.765625 41.703125 c 0
 349.765625 -8.36328125 314.391601562 -67.8251953125 208.520507812 -67.8251953125 c 0
 152.65234375 -67.8251953125 95.271484375 -47.7099609375 95.271484375 -47.7099609375 c 1
 95.271484375 9.103515625 l 1
 95.271484375 9.103515625 152.841796875 -17.25390625 203.791015625 -17.25390625 c 0
 254.298828125 -17.25390625 281.5390625 7.9052734375 281.5390625 39.9375 c 0
 281.5390625 71.9697265625 246.291015625 89.18359375 186.639648438 122.162109375 c 0
 116.521484375 160.94140625 64.5 188.938476562 64.5 256.219726562 c 0
 64.5 293.233398438 91.4248046875 329.112304688 134.997070312 349.984375 c 1
 101.26171875 374.134765625 89.34375 394.438476562 89.34375 425.713867188 c 0
 89.34375 475.717773438 124.717773438 527.865234375 230.588867188 527.865234375 c 0
 286.45703125 527.865234375 337.469726562 507.75 337.469726562 507.75 c 1
 337.469726562 450.936523438 l 1
 337.469726562 450.936523438 286.268554688 478.302734375 235.319335938 478.302734375 c 0
 184.811523438 478.302734375 157.571289062 459.44921875 157.571289062 427.416992188 c 0
 157.571289062 395.384765625 192.819335938 378.170898438 252.470703125 345.192382812 c 0
 322.588867188 306.413085938 374.610351562 278.353515625 374.610351562 211.072265625 c 0
 374.610351562 174.05859375 347.685546875 138.243164062 304.11328125 117.30859375 c 1
265.584960938 141.583007812 m 1
 295.599609375 157.977539062 314.579101562 184.650390625 314.579101562 203.819335938 c 0
 314.579101562 241.905273438 273.970703125 270.533203125 221.4453125 298.908203125 c 0
 202.969726562 308.87109375 187.583984375 317.509765625 173.5859375 325.643554688 c 1
 143.571289062 309.249023438 124.591796875 282.576171875 124.591796875 263.407226562 c 0
 124.591796875 225.321289062 165.200195312 196.693359375 217.725585938 168.318359375 c 0
 236.201171875 158.35546875 251.586914062 149.716796875 265.584960938 141.583007812 c 1
EndSplineSet
EndChar

StartChar: dieresis
Encoding: 168 168 103
Width: 440
GlyphClass: 1
Flags: W
LayerCount: 2
Fore
SplineSet
175.524414062 468.909179688 m 2
 117.890625 468.909179688 l 2
 112.98046875 468.909179688 109 472.889648438 109 477.799804688 c 2
 109 529.6953125 l 2
 109 534.60546875 112.98046875 538.5859375 117.890625 538.5859375 c 2
 175.524414062 538.5859375 l 2
 180.434570312 538.5859375 184.415039062 534.60546875 184.415039062 529.6953125 c 2
 184.415039062 477.799804688 l 2
 184.415039062 472.889648438 180.434570312 468.909179688 175.524414062 468.909179688 c 2
321.750976562 468.909179688 m 2
 264.1171875 468.909179688 l 2
 259.20703125 468.909179688 255.2265625 472.889648438 255.2265625 477.799804688 c 2
 255.2265625 529.6953125 l 2
 255.2265625 534.60546875 259.20703125 538.5859375 264.1171875 538.5859375 c 2
 321.750976562 538.5859375 l 2
 326.661132812 538.5859375 330.641601562 534.60546875 330.641601562 529.6953125 c 2
 330.641601562 477.799804688 l 2
 330.641601562 472.889648438 326.661132812 468.909179688 321.750976562 468.909179688 c 2
EndSplineSet
EndChar

StartChar: copyright
Encoding: 169 169 104
Width: 440
GlyphClass: 1
Flags: W
LayerCount: 2
Fore
SplineSet
84.435546875 258.112304688 m 1
 84.37109375 258.176757812 l 1
 84.37109375 345.635742188 145.47265625 387.442382812 224.041015625 387.442382812 c 0
 259.037109375 387.442382812 288.484375 383.78515625 311.248046875 372.24609375 c 1
 311.248046875 334.412109375 l 1
 293.27734375 342.861328125 264.145507812 354.526367188 234.3203125 354.526367188 c 0
 173.849609375 354.526367188 134.69140625 325.39453125 134.69140625 258.11328125 c 0
 134.69140625 191.2734375 173.912109375 161.700195312 234.3203125 161.700195312 c 0
 264.083007812 161.700195312 295.043945312 170.46484375 311.249023438 180.112304688 c 1
 311.249023438 143.791992188 l 1
 291.071289062 134.5859375 259.227539062 127.208007812 224.231445312 127.208007812 c 0
 145.663085938 127.208007812 84.435546875 170.653320312 84.435546875 258.112304688 c 1
219.94140625 473.513671875 m 0
 345.548828125 473.513671875 447.384765625 376.661132812 447.384765625 257.232421875 c 0
 447.384765625 137.803710938 345.548828125 40.94921875 219.94140625 40.94921875 c 0
 94.333984375 40.94921875 -7.501953125 137.740234375 -7.501953125 257.231445312 c 0
 -7.501953125 376.72265625 94.333984375 473.513671875 219.94140625 473.513671875 c 0
219.94140625 79.099609375 m 0
 324.42578125 79.099609375 409.110351562 158.928710938 409.110351562 257.422851562 c 0
 409.110351562 355.916992188 324.42578125 435.74609375 219.94140625 435.74609375 c 0
 115.45703125 435.74609375 30.7724609375 355.916992188 30.7724609375 257.422851562 c 0
 30.7724609375 158.928710938 115.45703125 79.099609375 219.94140625 79.099609375 c 0
EndSplineSet
EndChar

StartChar: ordfeminine
Encoding: 170 170 105
Width: 440
GlyphClass: 1
Flags: W
LayerCount: 2
Fore
SplineSet
198.686523438 242.348632812 m 1
 198.814453125 242.412109375 l 1
 140.297851562 242.412109375 92.5009765625 268.328125 92.5009765625 329.366210938 c 0
 92.5009765625 368.4609375 113.057617188 401.060546875 170.123046875 416.068359375 c 0
 208.586914062 426.220703125 291.31640625 422.248046875 291.31640625 422.248046875 c 1
 291.31640625 436.373046875 292.19921875 487.385742188 214.387695312 487.385742188 c 0
 154.736328125 487.385742188 115.010742188 464.180664062 115.010742188 464.180664062 c 1
 115.010742188 508.3203125 l 1
 140.674804688 517.1484375 169.049804688 529.12890625 215.081054688 529.12890625 c 0
 281.66796875 529.12890625 344.9765625 500.564453125 344.9765625 407.74609375 c 0
 344.9765625 353.833007812 344.53515625 248.655273438 344.53515625 248.655273438 c 1
 299.576171875 248.655273438 l 1
 299.576171875 248.655273438 291.756835938 287.560546875 291.567382812 287.497070312 c 0
 263.633789062 255.275390625 231.916992188 242.348632812 198.686523438 242.348632812 c 1
291.5703125 383.532226562 m 1
 210.0390625 383.532226562 145.658203125 386.685546875 145.658203125 332.141601562 c 0
 145.658203125 296.19921875 179.393554688 283.77734375 204.111328125 283.77734375 c 0
 275.932617188 283.77734375 293.903320312 341.599609375 291.5703125 383.532226562 c 1
346.806640625 162.647460938 m 1
 100.256835938 162.647460938 l 1
 100.256835938 205.778320312 l 1
 346.806640625 205.778320312 l 1
 346.806640625 162.647460938 l 1
EndSplineSet
EndChar

StartChar: guillemotleft
Encoding: 171 171 106
Width: 440
GlyphClass: 1
Flags: W
LayerCount: 2
Fore
SplineSet
223.21484375 301.08984375 m 1
 111.983398438 208.08203125 l 1
 223.21484375 115.07421875 l 1
 223.21484375 49.2431640625 l 1
 50 194.461914062 l 1
 50 222.395507812 l 1
 223.21484375 367.614257812 l 1
 223.21484375 301.08984375 l 1
389.556640625 367.614257812 m 1
 389.556640625 301.08984375 l 1
 278.388671875 208.08203125 l 1
 389.556640625 115.07421875 l 1
 389.556640625 49.2431640625 l 1
 216.341796875 194.461914062 l 1
 216.341796875 222.395507812 l 1
 389.556640625 367.614257812 l 1
EndSplineSet
EndChar

StartChar: registered
Encoding: 174 174 107
Width: 440
GlyphClass: 1
Flags: W
LayerCount: 2
Fore
SplineSet
219.943359375 473.528320312 m 0
 345.614257812 473.528320312 447.38671875 376.67578125 447.38671875 257.247070312 c 0
 447.38671875 137.818359375 345.55078125 40.9638671875 219.943359375 40.9638671875 c 0
 94.3359375 40.9638671875 -7.5 137.754882812 -7.5 257.24609375 c 0
 -7.5 376.737304688 94.3359375 473.528320312 219.943359375 473.528320312 c 0
219.943359375 79.1142578125 m 1
 219.94140625 79.05078125 l 1
 324.42578125 79.05078125 409.110351562 158.879882812 409.110351562 257.374023438 c 0
 409.110351562 355.868164062 324.36328125 435.697265625 219.942382812 435.697265625 c 0
 115.521484375 435.697265625 30.7744140625 355.931640625 30.7744140625 257.4375 c 0
 30.7744140625 158.943359375 115.458984375 79.1142578125 219.943359375 79.1142578125 c 1
261.243164062 246.46484375 m 1
 275.556640625 240.474609375 285.583984375 228.305664062 303.618164062 201.19140625 c 0
 319.067382812 177.923828125 345.9921875 136.432617188 345.9921875 136.432617188 c 1
 294.096679688 136.432617188 l 1
 294.096679688 136.432617188 263.640625 180.3828125 247.498046875 205.60546875 c 0
 234.634765625 225.720703125 218.555664062 238.899414062 201.59375 238.899414062 c 0
 187.784179688 238.899414062 175.046875 239.088867188 175.046875 239.088867188 c 1
 175.046875 136.49609375 l 1
 128.1328125 136.49609375 l 1
 128.1328125 378.126953125 l 1
 219.81640625 378.126953125 l 2
 302.671875 378.126953125 323.291015625 344.455078125 323.291015625 304.4140625 c 0
 323.291015625 275.21875 298.509765625 252.959960938 261.243164062 246.46484375 c 1
227.887695312 269.166015625 m 0
 249.641601562 270.048828125 274.170898438 281.525390625 274.170898438 309.270507812 c 0
 274.170898438 335.564453125 250.587890625 348.112304688 223.725585938 348.112304688 c 2
 175.109375 348.112304688 l 1
 175.109375 268.9140625 l 1
 175.109375 268.9140625 206.448242188 268.346679688 227.887695312 269.166015625 c 0
EndSplineSet
EndChar

StartChar: overscore
Encoding: 175 175 108
Width: 440
GlyphClass: 1
Flags: W
LayerCount: 2
Fore
SplineSet
330.322265625 439 m 1
 109.5 439 l 1
 109.5 490.390625 l 1
 330.322265625 490.390625 l 1
 330.322265625 439 l 1
EndSplineSet
EndChar

StartChar: degree
Encoding: 176 176 109
Width: 440
GlyphClass: 1
Flags: W
LayerCount: 2
Fore
SplineSet
219.8515625 527.048828125 m 0
 284.92578125 527.048828125 337.704101562 477.61328125 337.704101562 416.575195312 c 0
 337.704101562 355.537109375 284.92578125 306.1015625 219.8515625 306.1015625 c 0
 154.77734375 306.1015625 101.999023438 355.537109375 101.999023438 416.575195312 c 0
 101.999023438 477.61328125 154.77734375 527.048828125 219.8515625 527.048828125 c 0
219.8515625 350.11328125 m 0
 259.009765625 350.11328125 290.7265625 379.875976562 290.7265625 416.57421875 c 0
 290.7265625 453.272460938 259.009765625 483.03515625 219.8515625 483.03515625 c 0
 180.693359375 483.03515625 148.9765625 453.272460938 148.9765625 416.57421875 c 0
 148.9765625 379.875976562 180.693359375 350.11328125 219.8515625 350.11328125 c 0
EndSplineSet
EndChar

StartChar: plusminus
Encoding: 177 177 110
Width: 440
GlyphClass: 1
Flags: W
LayerCount: 2
Fore
SplineSet
414.69140625 -0.857421875 m 1
 24.5 -0.857421875 l 1
 24.5 58.1630859375 l 1
 414.69140625 58.1630859375 l 1
 414.69140625 -0.857421875 l 1
250.619140625 291.975585938 m 1
 414.69140625 291.975585938 l 1
 414.69140625 233.018554688 l 1
 250.619140625 233.018554688 l 1
 250.619140625 118.067382812 l 1
 188.572265625 118.067382812 l 1
 188.572265625 233.018554688 l 1
 24.5 233.018554688 l 1
 24.5 291.975585938 l 1
 188.572265625 291.975585938 l 1
 188.572265625 406.169921875 l 1
 250.619140625 406.169921875 l 1
 250.619140625 291.975585938 l 1
EndSplineSet
EndChar

StartChar: twosuperior
Encoding: 178 178 111
Width: 440
GlyphClass: 1
Flags: W
LayerCount: 2
Fore
SplineSet
173.263671875 428.11328125 m 1
 324.724609375 428.111328125 l 1
 324.724609375 389.016601562 l 1
 115 389.016601562 l 1
 115 427.354492188 l 1
 115 427.354492188 192.180664062 498.670898438 223.708984375 528.181640625 c 0
 255.237304688 557.692382812 266.146484375 579.194335938 266.146484375 603.849609375 c 0
 266.146484375 628.504882812 237.897460938 647.295898438 200.504882812 647.295898438 c 0
 163.112304688 647.295898438 117.459960938 623.712890625 117.459960938 623.712890625 c 1
 116.955078125 665.330078125 l 1
 116.955078125 665.330078125 155.860351562 684.877929688 207.125 684.877929688 c 0
 291.620117188 684.877929688 322.265625 635.630859375 322.265625 606.499023438 c 0
 322.265625 577.3671875 309.086914062 551.387695312 258.515625 504.978515625 c 0
 208.0078125 458.569335938 173.263671875 428.11328125 173.263671875 428.11328125 c 1
EndSplineSet
EndChar

StartChar: threesuperior
Encoding: 179 179 112
Width: 440
GlyphClass: 1
Flags: W
LayerCount: 2
Fore
SplineSet
330.958007812 469.65234375 m 1
 330.895507812 469.715820312 l 1
 330.895507812 421.3515625 281.14453125 386.103515625 208.440429688 386.103515625 c 0
 160.76953125 386.103515625 109 400.732421875 109 400.732421875 c 1
 109 442.853515625 l 1
 109 442.853515625 158.625 424.8828125 200.999023438 424.8828125 c 0
 228.428710938 424.8828125 274.837890625 439.0703125 274.837890625 475.642578125 c 0
 274.837890625 512.21484375 238.076171875 528.357421875 201.250976562 528.357421875 c 0
 172.623046875 528.357421875 170.1640625 528.357421875 170.1640625 528.357421875 c 1
 170.1640625 566.19140625 l 1
 170.1640625 566.19140625 172.623046875 566.19140625 201.250976562 566.19140625 c 0
 238.076171875 566.19140625 266.262695312 580.568359375 266.262695312 609.006835938 c 0
 266.262695312 632.084960938 245.895507812 649.236328125 208.944335938 649.236328125 c 0
 161.71484375 649.110351562 120.161132812 633.409179688 120.161132812 633.409179688 c 1
 120.161132812 675.088867188 l 1
 120.161132812 675.088867188 167.201171875 687.826171875 210.583984375 687.826171875 c 0
 276.729492188 687.826171875 322.5078125 657.559570312 322.5078125 613.041992188 c 0
 322.5078125 573.505859375 296.591796875 557.426757812 259.514648438 548.788085938 c 1
 299.555664062 541.663085938 330.958007812 518.016601562 330.958007812 469.65234375 c 1
EndSplineSet
EndChar

StartChar: acute
Encoding: 180 180 113
Width: 440
GlyphClass: 1
Flags: W
LayerCount: 2
Fore
SplineSet
235.1640625 568.806640625 m 1
 308.499023438 568.806640625 l 1
 188.250976562 437.96484375 l 1
 131.5 437.96484375 l 1
 235.1640625 568.806640625 l 1
EndSplineSet
EndChar

StartChar: mu
Encoding: 181 181 114
Width: 440
GlyphClass: 1
Flags: W
LayerCount: 2
Fore
SplineSet
375.859375 49.2236328125 m 2
 375.92578125 49.224609375 l 2
 390.870117188 49.224609375 401.65234375 56.791015625 401.65234375 56.791015625 c 1
 401.65234375 5.400390625 l 1
 401.65234375 5.400390625 374.727539062 -10.111328125 346.099609375 -10.111328125 c 0
 302.46484375 -10.111328125 293.700195312 42.3515625 293.700195312 42.3515625 c 1
 293.700195312 42.3515625 276.107421875 -10.4267578125 182.46875 -10.4267578125 c 0
 147.788085938 -10.4267578125 113.359375 8.8681640625 97.9736328125 43.6123046875 c 1
 98.3515625 -148.141601562 l 1
 37.501953125 -148.141601562 l 1
 37.501953125 387.961914062 l 1
 101.881835938 387.961914062 l 1
 101.881835938 147.465820312 l 2
 101.881835938 80.310546875 136.5625 45.6298828125 184.106445312 45.6298828125 c 0
 240.2890625 45.6298828125 286.130859375 85.41796875 286.130859375 137.439453125 c 0
 286.130859375 238.64453125 288.52734375 387.961914062 288.52734375 387.961914062 c 1
 353.6640625 387.961914062 l 1
 353.6640625 387.961914062 354.231445312 102.317382812 354.231445312 77.9775390625 c 0
 354.231445312 57.92578125 363.563476562 49.2236328125 375.859375 49.2236328125 c 2
EndSplineSet
EndChar

StartChar: paragraph
Encoding: 182 182 115
Width: 440
GlyphClass: 1
Flags: W
LayerCount: 2
Fore
SplineSet
215.9140625 518.48828125 m 2
 391.083984375 518.490234375 l 1
 391.083984375 -67.931640625 l 1
 338.873046875 -67.931640625 l 1
 338.873046875 475.864257812 l 1
 268.565429688 475.864257812 l 1
 268.565429688 475.864257812 268.817382812 -63.0771484375 268.565429688 -67.9326171875 c 0
 268.313476562 -72.7880859375 216.35546875 -67.9326171875 216.35546875 -67.9326171875 c 1
 215.9140625 226.91796875 l 1
 123.411132812 226.91796875 48.5 292.180664062 48.5 372.703125 c 0
 48.5 453.225585938 123.473632812 518.48828125 215.9140625 518.48828125 c 2
EndSplineSet
EndChar

StartChar: periodcentered
Encoding: 183 183 116
Width: 440
GlyphClass: 1
Flags: W
LayerCount: 2
Fore
SplineSet
220 318.725585938 m 0
 253.16796875 318.725585938 280.030273438 291.86328125 280.030273438 258.6953125 c 0
 280.030273438 225.52734375 253.16796875 198.665039062 220 198.665039062 c 0
 186.83203125 198.665039062 159.969726562 225.52734375 159.969726562 258.6953125 c 0
 159.969726562 291.86328125 186.83203125 318.725585938 220 318.725585938 c 0
EndSplineSet
EndChar

StartChar: cedilla
Encoding: 184 184 117
Width: 440
GlyphClass: 1
Flags: W
LayerCount: 2
Fore
SplineSet
256.3515625 0.103515625 m 1
 256.3515625 0.041015625 l 1
 268.395507812 -12.2548828125 296.266601562 -38.3603515625 296.266601562 -78.4013671875 c 0
 296.266601562 -126.198242188 252.126953125 -136.91796875 205.465820312 -136.91796875 c 0
 171.856445312 -136.91796875 143.733398438 -128.53125 143.733398438 -128.53125 c 1
 143.733398438 -83.130859375 l 1
 143.733398438 -83.130859375 167.7578125 -94.3544921875 195.375976562 -94.3544921875 c 0
 229.994140625 -94.3544921875 277.979492188 -83.7607421875 212.52734375 0.103515625 c 1
 212.463867188 0.0400390625 256.036132812 0.103515625 256.3515625 0.103515625 c 1
EndSplineSet
EndChar

StartChar: onesuperior
Encoding: 185 185 118
Width: 440
GlyphClass: 1
Flags: W
LayerCount: 2
Fore
SplineSet
249.881835938 427.372070312 m 1
 325.485351562 427.373046875 l 1
 325.485351562 388.782226562 l 1
 121.309570312 388.782226562 l 1
 121.309570312 427.373046875 l 1
 196.9140625 427.373046875 l 1
 196.9140625 639.115234375 l 1
 114.5 624.73828125 l 1
 114.5 664.841796875 l 1
 199.184570312 678.461914062 l 1
 249.881835938 678.461914062 l 1
 249.881835938 427.372070312 l 1
EndSplineSet
EndChar

StartChar: ordmasculine
Encoding: 186 186 119
Width: 440
GlyphClass: 1
Flags: W
LayerCount: 2
Fore
SplineSet
219.516601562 243.436523438 m 0
 133.06640625 243.436523438 83 287.826171875 83 385.689453125 c 0
 83 483.552734375 137.165039062 527.944335938 219.516601562 527.944335938 c 0
 301.868164062 527.944335938 356.033203125 483.616210938 356.033203125 385.690429688 c 0
 356.033203125 287.764648438 305.966796875 243.436523438 219.516601562 243.436523438 c 0
219.516601562 487.083984375 m 0
 179.223632812 487.083984375 139.435546875 463.375 139.435546875 386.004882812 c 0
 139.435546875 308.634765625 176.512695312 283.475585938 219.516601562 283.475585938 c 0
 262.520507812 283.475585938 299.59765625 308.572265625 299.59765625 386.004882812 c 0
 299.59765625 463.4375 259.809570312 487.083984375 219.516601562 487.083984375 c 0
342.4765625 162.66015625 m 1
 92.900390625 162.66015625 l 1
 92.900390625 205.791015625 l 1
 342.4765625 205.791015625 l 1
 342.4765625 162.66015625 l 1
EndSplineSet
EndChar

StartChar: guillemotright
Encoding: 187 187 120
Width: 440
GlyphClass: 1
Flags: W
LayerCount: 2
Fore
SplineSet
216.341796875 367.620117188 m 1
 389.556640625 222.401367188 l 1
 389.556640625 194.467773438 l 1
 216.341796875 49.2490234375 l 1
 216.341796875 115.080078125 l 1
 327.509765625 208.087890625 l 1
 216.341796875 301.095703125 l 1
 216.341796875 367.620117188 l 1
223.21484375 222.401367188 m 1
 223.21484375 194.467773438 l 1
 50 49.2490234375 l 1
 50 115.080078125 l 1
 161.16796875 208.087890625 l 1
 50 301.095703125 l 1
 50 367.620117188 l 1
 223.21484375 222.401367188 l 1
EndSplineSet
EndChar

StartChar: onequarter
Encoding: 188 188 121
Width: 440
GlyphClass: 1
Flags: W
LayerCount: 2
Fore
SplineSet
122.916992188 537.555664062 m 1
 41.0703125 523.556640625 l 1
 40.62890625 562.71484375 l 1
 127.8359375 575.767578125 l 1
 175.884765625 575.767578125 l 1
 175.884765625 323.668945312 l 1
 251.42578125 323.668945312 l 1
 251.42578125 285.331054688 l 1
 47.501953125 285.331054688 l 1
 47.8798828125 323.668945312 l 1
 122.916992188 323.668945312 l 1
 122.916992188 537.555664062 l 1
369.71875 195.979492188 m 1
 369.71875 7.505859375 l 1
 412.786132812 7.505859375 l 1
 412.786132812 -29.3193359375 l 1
 369.71875 -29.3193359375 l 1
 369.71875 -93.5107421875 l 1
 320.219726562 -93.5107421875 l 1
 320.219726562 -29.3193359375 l 1
 175.7578125 -29.3193359375 l 1
 175.7578125 13.2431640625 l 1
 309.751953125 195.979492188 l 1
 369.71875 195.979492188 l 1
217.185546875 9.3349609375 m 1
 319.083984375 9.3349609375 l 1
 318.706054688 152.9140625 l 1
 217.185546875 9.3349609375 l 1
410.831054688 303.239257812 m 1
 420.163085938 266.288085938 l 1
 28.3955078125 175.423828125 l 1
 19 212.375 l 1
 410.831054688 303.239257812 l 1
EndSplineSet
EndChar

StartChar: onehalf
Encoding: 189 189 122
Width: 440
GlyphClass: 1
Flags: W
LayerCount: 2
Fore
SplineSet
123.98828125 537.555664062 m 1
 42.1416015625 523.556640625 l 1
 41.7001953125 562.71484375 l 1
 128.907226562 575.767578125 l 1
 176.956054688 575.767578125 l 1
 176.956054688 323.668945312 l 1
 252.497070312 323.668945312 l 1
 252.497070312 285.331054688 l 1
 48.5732421875 285.331054688 l 1
 48.951171875 323.668945312 l 1
 123.98828125 323.668945312 l 1
 123.98828125 537.555664062 l 1
347.774414062 22.3232421875 m 1
 347.6484375 22.3212890625 l 1
 297.140625 -24.087890625 262.396484375 -54.5439453125 262.396484375 -54.5439453125 c 1
 413.920898438 -54.5439453125 l 1
 413.920898438 -93.638671875 l 1
 204.196289062 -93.638671875 l 1
 204.196289062 -55.30078125 l 1
 204.196289062 -55.30078125 281.376953125 16.015625 312.905273438 45.5263671875 c 0
 344.49609375 75.037109375 355.405273438 96.5390625 355.405273438 121.194335938 c 0
 355.405273438 145.849609375 327.15625 164.640625 289.763671875 164.640625 c 0
 252.37109375 164.640625 206.71875 141.057617188 206.71875 141.057617188 c 1
 206.213867188 182.674804688 l 1
 206.213867188 182.674804688 245.119140625 202.22265625 296.383789062 202.22265625 c 0
 380.87890625 202.22265625 411.524414062 152.975585938 411.524414062 123.84375 c 0
 411.524414062 94.7119140625 398.345703125 68.732421875 347.774414062 22.3232421875 c 1
410.767578125 303.236328125 m 1
 420.099609375 266.28515625 l 1
 28.33203125 175.420898438 l 1
 19 212.372070312 l 1
 410.767578125 303.236328125 l 1
EndSplineSet
EndChar

StartChar: threequarters
Encoding: 190 190 123
Width: 440
GlyphClass: 1
Flags: W
LayerCount: 2
Fore
SplineSet
268.134765625 364.27734375 m 1
 268.197265625 364.274414062 l 1
 268.197265625 316.099609375 214.220703125 280.977539062 140.94921875 280.977539062 c 0
 92.900390625 280.977539062 45.986328125 295.543945312 45.986328125 295.543945312 c 1
 45.986328125 337.413085938 l 1
 45.986328125 337.413085938 86.720703125 319.000976562 133.381835938 319.000976562 c 0
 181.556640625 319.000976562 211.00390625 340.250976562 211.00390625 371.1484375 c 0
 211.00390625 402.045898438 184.8359375 422.854492188 138.552734375 422.854492188 c 2
 106.205078125 422.854492188 l 1
 106.205078125 459.7421875 l 1
 135.65234375 459.7421875 l 2
 176.702148438 459.7421875 203.81640625 475.569335938 203.81640625 503.881835938 c 0
 203.81640625 532.194335938 176.32421875 544.112304688 145.931640625 544.112304688 c 0
 92.2705078125 544.112304688 56.70703125 527.969726562 56.70703125 527.969726562 c 1
 56.70703125 569.586914062 l 1
 56.70703125 569.586914062 103.1796875 581.504882812 146.877929688 581.504882812 c 0
 213.528320312 581.504882812 259.118164062 550.922851562 259.118164062 508.990234375 c 0
 259.118164062 467.057617188 230.995117188 452.302734375 195.873046875 443.286132812 c 1
 235.661132812 435.59375 268.134765625 412.452148438 268.134765625 364.27734375 c 1
373.185546875 195.977539062 m 1
 373.185546875 7.50390625 l 1
 416.252929688 7.50390625 l 1
 416.252929688 -29.3212890625 l 1
 373.185546875 -29.3212890625 l 1
 373.185546875 -93.5126953125 l 1
 323.686523438 -93.5126953125 l 1
 323.686523438 -29.3212890625 l 1
 179.224609375 -29.3212890625 l 1
 179.224609375 13.2412109375 l 1
 313.21875 195.977539062 l 1
 373.185546875 195.977539062 l 1
220.65234375 9.3330078125 m 1
 322.55078125 9.3330078125 l 1
 322.172851562 152.912109375 l 1
 220.65234375 9.3330078125 l 1
410.766601562 303.237304688 m 1
 420.098632812 266.286132812 l 1
 28.3310546875 175.421875 l 1
 18.9990234375 212.373046875 l 1
 410.766601562 303.237304688 l 1
EndSplineSet
EndChar

StartChar: questiondown
Encoding: 191 191 124
Width: 440
GlyphClass: 1
Flags: W
LayerCount: 2
Fore
SplineSet
242.999023438 433.387695312 m 0
 213.362304688 433.387695312 189.401367188 457.034179688 189.401367188 486.166015625 c 0
 189.401367188 515.297851562 213.42578125 538.944335938 242.999023438 538.944335938 c 0
 272.572265625 538.944335938 296.596679688 515.297851562 296.596679688 486.166015625 c 0
 296.596679688 457.034179688 272.572265625 433.387695312 242.999023438 433.387695312 c 0
235.053710938 47.736328125 m 1
 234.991210938 47.671875 l 1
 299.939453125 47.671875 366.58984375 95.3427734375 366.58984375 95.3427734375 c 1
 366.58984375 29.5751953125 l 1
 366.58984375 29.5751953125 308.073242188 -8.3212890625 233.2890625 -8.3212890625 c 0
 117.265625 -8.3212890625 73 44.1416015625 73 111.233398438 c 0
 73 214.204101562 203.462890625 239.616210938 203.462890625 309.734375 c 2
 203.462890625 379.033203125 l 1
 274.211914062 379.033203125 l 1
 274.211914062 317.616210938 l 2
 274.211914062 212.186523438 147.342773438 193.080078125 147.342773438 115.080078125 c 0
 147.342773438 74.6611328125 179.3125 47.736328125 235.053710938 47.736328125 c 1
EndSplineSet
EndChar

StartChar: Agrave
Encoding: 192 192 125
Width: 440
GlyphClass: 1
Flags: W
LayerCount: 2
Fore
SplineSet
265.400390625 518.104492188 m 1
 434.01171875 0.0986328125 l 1
 356.89453125 0.0986328125 l 1
 316.09765625 135.48046875 l 1
 123.208984375 135.48046875 l 1
 83.16796875 0.0986328125 l 1
 5.9873046875 0.0986328125 l 1
 174.662109375 518.104492188 l 1
 265.400390625 518.104492188 l 1
141.368164062 191.411132812 m 1
 298.693359375 191.411132812 l 1
 219.999023438 456.877929688 l 1
 141.368164062 191.411132812 l 1
265.399414062 549.885742188 m 1
 208.649414062 549.885742188 l 1
 124.721679688 642.13671875 l 1
 192.758789062 642.13671875 l 1
 265.399414062 549.885742188 l 1
EndSplineSet
EndChar

StartChar: Aacute
Encoding: 193 193 126
Width: 440
GlyphClass: 1
Flags: W
LayerCount: 2
Fore
SplineSet
265.336914062 518.104492188 m 1
 434.010742188 0.0986328125 l 1
 356.830078125 0.0986328125 l 1
 316.7890625 135.48046875 l 1
 123.900390625 135.48046875 l 1
 83.103515625 0.0986328125 l 1
 5.986328125 0.0986328125 l 1
 174.598632812 518.104492188 l 1
 265.336914062 518.104492188 l 1
141.303710938 191.411132812 m 1
 298.62890625 191.411132812 l 1
 219.998046875 456.877929688 l 1
 141.303710938 191.411132812 l 1
315.275390625 642.13671875 m 1
 231.348632812 549.885742188 l 1
 174.59765625 549.885742188 l 1
 247.23828125 642.13671875 l 1
 315.275390625 642.13671875 l 1
EndSplineSet
EndChar

StartChar: Acircumflex
Encoding: 194 194 127
Width: 440
GlyphClass: 1
Flags: W
LayerCount: 2
Fore
SplineSet
265.336914062 517.032226562 m 1
 434.010742188 -0.9736328125 l 1
 356.830078125 -0.9736328125 l 1
 316.7890625 134.408203125 l 1
 123.900390625 134.408203125 l 1
 83.103515625 -0.9736328125 l 1
 5.986328125 -0.9736328125 l 1
 174.598632812 517.032226562 l 1
 265.336914062 517.032226562 l 1
141.303710938 190.275390625 m 1
 298.62890625 190.275390625 l 1
 219.998046875 455.7421875 l 1
 141.303710938 190.275390625 l 1
220.313476562 612.688476562 m 1
 159.086914062 550.641601562 l 1
 107.696289062 550.641601562 l 1
 185.5703125 642.892578125 l 1
 255.12109375 642.892578125 l 1
 332.995117188 550.641601562 l 1
 281.604492188 550.641601562 l 1
 220.313476562 612.688476562 l 1
EndSplineSet
EndChar

StartChar: Atilde
Encoding: 195 195 128
Width: 440
GlyphClass: 1
Flags: W
LayerCount: 2
Fore
SplineSet
265.336914062 516.993164062 m 1
 434.010742188 -1.0126953125 l 1
 356.830078125 -1.0126953125 l 1
 316.7890625 134.369140625 l 1
 123.900390625 134.369140625 l 1
 83.103515625 -1.0126953125 l 1
 5.986328125 -1.0126953125 l 1
 174.598632812 516.993164062 l 1
 265.336914062 516.993164062 l 1
141.303710938 190.299804688 m 1
 298.62890625 190.299804688 l 1
 219.998046875 455.766601562 l 1
 141.303710938 190.299804688 l 1
168.859375 593.41796875 m 1
 168.924804688 593.418945312 l 1
 153.349609375 593.418945312 144.647460938 578.600585938 144.647460938 557.91796875 c 1
 98.048828125 557.91796875 l 1
 98.048828125 599.471679688 119.802734375 634.15234375 168.418945312 634.15234375 c 0
 215.395507812 634.15234375 237.40234375 600.48046875 270.506835938 600.48046875 c 0
 296.044921875 600.48046875 295.85546875 634.15234375 295.85546875 634.15234375 c 1
 341.94921875 634.15234375 l 1
 341.94921875 609.181640625 325.932617188 557.916992188 272.145507812 557.916992188 c 0
 219.430664062 557.916992188 206.188476562 593.41796875 168.859375 593.41796875 c 1
EndSplineSet
EndChar

StartChar: Adieresis
Encoding: 196 196 129
Width: 440
GlyphClass: 1
Flags: W
LayerCount: 2
Fore
SplineSet
175.671875 573.21484375 m 2
 118.038085938 573.21484375 l 2
 113.127929688 573.21484375 109.147460938 577.1953125 109.147460938 582.10546875 c 2
 109.147460938 634.000976562 l 2
 109.147460938 638.911132812 113.127929688 642.891601562 118.038085938 642.891601562 c 2
 175.671875 642.891601562 l 2
 180.58203125 642.891601562 184.5625 638.911132812 184.5625 634.000976562 c 2
 184.5625 582.10546875 l 2
 184.5625 577.1953125 180.58203125 573.21484375 175.671875 573.21484375 c 2
321.8984375 573.21484375 m 2
 264.264648438 573.21484375 l 2
 259.354492188 573.21484375 255.374023438 577.1953125 255.374023438 582.10546875 c 2
 255.374023438 634.000976562 l 2
 255.374023438 638.911132812 259.354492188 642.891601562 264.264648438 642.891601562 c 2
 321.8984375 642.891601562 l 2
 326.80859375 642.891601562 330.7890625 638.911132812 330.7890625 634.000976562 c 2
 330.7890625 582.10546875 l 2
 330.7890625 577.1953125 326.80859375 573.21484375 321.8984375 573.21484375 c 2
265.336914062 517.032226562 m 1
 434.010742188 -0.9736328125 l 1
 356.830078125 -0.9736328125 l 1
 316.7890625 134.408203125 l 1
 123.900390625 134.408203125 l 1
 83.103515625 -0.9736328125 l 1
 5.986328125 -0.9736328125 l 1
 174.598632812 517.032226562 l 1
 265.336914062 517.032226562 l 1
141.3671875 190.275390625 m 1
 298.692382812 190.275390625 l 1
 220.061523438 455.7421875 l 1
 141.3671875 190.275390625 l 1
EndSplineSet
EndChar

StartChar: Aring
Encoding: 197 197 130
Width: 440
GlyphClass: 1
Flags: W
LayerCount: 2
Fore
SplineSet
275.426757812 486.134765625 m 1
 275.365234375 486.134765625 l 1
 434.014648438 -1.037109375 l 1
 356.833984375 -1.037109375 l 1
 316.79296875 134.344726562 l 1
 123.904296875 134.344726562 l 1
 83.107421875 -1.037109375 l 1
 5.9892578125 -1.037109375 l 1
 164.575195312 486.134765625 l 1
 136.767578125 503.034179688 118.291992188 532.166015625 118.291992188 565.459960938 c 0
 118.291992188 617.796875 163.818359375 660.233398438 220.000976562 660.233398438 c 0
 276.18359375 660.233398438 321.709960938 617.796875 321.709960938 565.459960938 c 0
 321.709960938 532.229492188 303.234375 503.034179688 275.426757812 486.134765625 c 1
163.440429688 565.522460938 m 1
 163.50390625 565.522460938 l 1
 163.50390625 543.768554688 177.69140625 525.103515625 197.869140625 517.032226562 c 1
 242.323242188 517.032226562 l 1
 262.500976562 525.103515625 276.688476562 543.768554688 276.688476562 565.522460938 c 0
 276.688476562 594.654296875 251.33984375 618.30078125 220.064453125 618.30078125 c 0
 188.7890625 618.30078125 163.440429688 594.654296875 163.440429688 565.522460938 c 1
141.37109375 190.275390625 m 1
 298.696289062 190.275390625 l 1
 220.065429688 455.7421875 l 1
 141.37109375 190.275390625 l 1
EndSplineSet
EndChar

StartChar: AE
Encoding: 198 198 131
Width: 440
GlyphClass: 1
Flags: W
LayerCount: 2
Fore
SplineSet
308.688476562 245.512695312 m 1
 308.688476562 58.0478515625 l 1
 437.44921875 58.0478515625 l 1
 437.44921875 -0.97265625 l 1
 234.59765625 -0.97265625 l 1
 234.59765625 133.2109375 l 1
 107.666015625 133.2109375 l 1
 70.65234375 0.099609375 l 1
 2.5517578125 0.099609375 l 1
 153.255859375 517.22265625 l 1
 432.46875 518.546875 l 1
 430.955078125 458.012695312 l 1
 308.689453125 458.012695312 l 1
 309.82421875 304.912109375 l 1
 421.370117188 306.046875 l 1
 419.856445312 245.512695312 l 1
 308.688476562 245.512695312 l 1
234.534179688 190.40234375 m 1
 234.534179688 458.76953125 l 1
 198.403320312 459.147460938 l 1
 123.4921875 191.411132812 l 1
 234.534179688 190.40234375 l 1
EndSplineSet
EndChar

StartChar: Ccedilla
Encoding: 199 199 132
Width: 440
GlyphClass: 1
Flags: W
LayerCount: 2
Fore
SplineSet
264.328125 469.172851562 m 1
 264.327148438 469.235351562 l 1
 158.077148438 469.235351562 122.639648438 374.3359375 122.639648438 257.303710938 c 0
 122.639648438 140.271484375 158.833984375 45.3720703125 264.327148438 45.3720703125 c 0
 318.176757812 45.3720703125 360.487304688 62.712890625 392.204101562 90.646484375 c 1
 392.204101562 18.005859375 l 1
 368.243164062 4.44921875 337.787109375 -4.5048828125 299.44921875 -7.91015625 c 1
 313.069335938 -23.169921875 331.860351562 -49.0234375 331.860351562 -76.2001953125 c 0
 331.860351562 -118.762695312 297.1796875 -136.544921875 248.87890625 -136.544921875 c 0
 221.260742188 -136.544921875 195.092773438 -133.581054688 179.076171875 -128.41015625 c 1
 179.076171875 -128.41015625 179.076171875 -83.19921875 179.076171875 -83.009765625 c 1
 195.596679688 -90.955078125 211.991210938 -94.3603515625 234.25 -94.3603515625 c 0
 256.319335938 -94.3603515625 280.407226562 -88.4326171875 280.407226562 -62.642578125 c 0
 280.407226562 -43.0322265625 262.499023438 -19.0078125 253.796875 -8.5400390625 c 1
 106.624023438 -2.865234375 47.79296875 114.166992188 47.79296875 258.817382812 c 0
 47.79296875 407.0625 118.857421875 527.247070312 264.328125 527.247070312 c 0
 320.258789062 527.247070312 360.8671875 514.951171875 392.206054688 495.088867188 c 1
 392.206054688 423.646484375 l 1
 360.42578125 451.76953125 318.051757812 469.172851562 264.328125 469.172851562 c 1
EndSplineSet
EndChar

StartChar: Egrave
Encoding: 200 200 133
Width: 440
GlyphClass: 1
Flags: W
LayerCount: 2
Fore
SplineSet
268.774414062 554.498046875 m 1
 212.024414062 554.498046875 l 1
 128.096679688 646.749023438 l 1
 196.133789062 646.749023438 l 1
 268.774414062 554.498046875 l 1
126.961914062 62.5966796875 m 1
 387.131835938 62.5966796875 l 1
 387.131835938 3.576171875 l 1
 52.87109375 3.576171875 l 1
 52.87109375 521.58203125 l 1
 380.1953125 521.58203125 l 1
 380.1953125 462.625 l 1
 126.961914062 462.625 l 1
 128.16015625 309.524414062 l 1
 368.782226562 309.083007812 l 1
 368.782226562 250.125976562 l 1
 126.961914062 250.125976562 l 1
 126.961914062 62.5966796875 l 1
EndSplineSet
EndChar

StartChar: Eacute
Encoding: 201 201 134
Width: 440
GlyphClass: 1
Flags: W
LayerCount: 2
Fore
SplineSet
300.365234375 646.749023438 m 1
 216.375 554.498046875 l 1
 159.6875 554.498046875 l 1
 232.264648438 646.749023438 l 1
 300.365234375 646.749023438 l 1
127.024414062 63.6689453125 m 1
 387.131835938 63.6689453125 l 1
 387.131835938 4.7119140625 l 1
 52.87109375 4.7119140625 l 1
 52.87109375 522.717773438 l 1
 380.1953125 522.717773438 l 1
 380.1953125 463.697265625 l 1
 127.024414062 463.697265625 l 1
 128.159179688 310.596679688 l 1
 368.78125 310.21875 l 1
 368.78125 251.198242188 l 1
 127.024414062 251.198242188 l 1
 127.024414062 63.6689453125 l 1
EndSplineSet
EndChar

StartChar: Ecircumflex
Encoding: 202 202 135
Width: 440
GlyphClass: 1
Flags: W
LayerCount: 2
Fore
SplineSet
212.9375 617.301757812 m 1
 151.709960938 555.254882812 l 1
 100.319335938 555.254882812 l 1
 178.130859375 647.505859375 l 1
 247.745117188 647.505859375 l 1
 325.619140625 555.254882812 l 1
 274.228515625 555.254882812 l 1
 212.9375 617.301757812 l 1
126.9921875 63.6689453125 m 1
 387.098632812 63.6689453125 l 1
 387.098632812 4.7119140625 l 1
 52.9013671875 4.7119140625 l 1
 52.9013671875 522.717773438 l 1
 380.225585938 522.717773438 l 1
 380.225585938 463.697265625 l 1
 126.9921875 463.697265625 l 1
 128.126953125 310.596679688 l 1
 368.749023438 310.21875 l 1
 368.749023438 251.198242188 l 1
 126.9921875 251.198242188 l 1
 126.9921875 63.6689453125 l 1
EndSplineSet
EndChar

StartChar: Edieresis
Encoding: 203 203 136
Width: 440
GlyphClass: 1
Flags: W
LayerCount: 2
Fore
SplineSet
126.9609375 59.0546875 m 1
 387.130859375 59.0546875 l 1
 387.130859375 0.09765625 l 1
 52.8701171875 0.09765625 l 1
 52.8701171875 518.103515625 l 1
 380.194335938 518.103515625 l 1
 380.194335938 459.146484375 l 1
 126.9609375 459.146484375 l 1
 128.159179688 306.045898438 l 1
 368.78125 305.604492188 l 1
 368.78125 246.583984375 l 1
 126.9609375 246.583984375 l 1
 126.9609375 59.0546875 l 1
175.703125 574.5390625 m 2
 118.069335938 574.5390625 l 2
 113.159179688 574.5390625 109.178710938 578.51953125 109.178710938 583.4296875 c 2
 109.178710938 635.325195312 l 2
 109.178710938 640.235351562 113.159179688 644.215820312 118.069335938 644.215820312 c 2
 175.703125 644.215820312 l 2
 180.61328125 644.215820312 184.59375 640.235351562 184.59375 635.325195312 c 2
 184.59375 583.4296875 l 2
 184.59375 578.51953125 180.61328125 574.5390625 175.703125 574.5390625 c 2
321.9296875 574.5390625 m 2
 264.295898438 574.5390625 l 2
 259.385742188 574.5390625 255.405273438 578.51953125 255.405273438 583.4296875 c 2
 255.405273438 635.325195312 l 2
 255.405273438 640.235351562 259.385742188 644.215820312 264.295898438 644.215820312 c 2
 321.9296875 644.215820312 l 2
 326.83984375 644.215820312 330.8203125 640.235351562 330.8203125 635.325195312 c 2
 330.8203125 583.4296875 l 2
 330.8203125 578.51953125 326.83984375 574.5390625 321.9296875 574.5390625 c 2
EndSplineSet
EndChar

StartChar: Igrave
Encoding: 204 204 137
Width: 440
GlyphClass: 1
Flags: W
LayerCount: 2
Fore
SplineSet
267.260742188 549.91015625 m 1
 210.57421875 549.91015625 l 1
 126.583007812 642.161132812 l 1
 194.68359375 642.161132812 l 1
 267.260742188 549.91015625 l 1
373.1328125 458.037109375 m 1
 257.866210938 457.721679688 l 1
 257.866210938 56.810546875 l 1
 373.1328125 55.9912109375 l 1
 373.1328125 -1.01171875 l 1
 66.869140625 -0.6962890625 l 1
 66.869140625 57.9462890625 l 1
 182.577148438 57.9462890625 l 1
 182.577148438 458.037109375 l 1
 66.869140625 458.037109375 l 1
 66.869140625 516.994140625 l 1
 373.1328125 516.994140625 l 1
 373.1328125 458.037109375 l 1
EndSplineSet
EndChar

StartChar: Iacute
Encoding: 205 205 138
Width: 440
GlyphClass: 1
Flags: W
LayerCount: 2
Fore
SplineSet
313.385742188 646.749023438 m 1
 229.458984375 554.498046875 l 1
 172.708007812 554.498046875 l 1
 245.348632812 646.749023438 l 1
 313.385742188 646.749023438 l 1
373.1640625 462.625 m 1
 257.456054688 462.625 l 1
 257.456054688 62.5966796875 l 1
 373.1640625 62.5966796875 l 1
 373.1640625 3.9541015625 l 1
 66.8369140625 3.576171875 l 1
 66.8369140625 60.5791015625 l 1
 182.166992188 61.4619140625 l 1
 182.166992188 462.309570312 l 1
 66.8369140625 462.625 l 1
 66.8369140625 521.58203125 l 1
 373.1640625 521.58203125 l 1
 373.1640625 462.625 l 1
EndSplineSet
EndChar

StartChar: Icircumflex
Encoding: 206 206 139
Width: 440
GlyphClass: 1
Flags: W
LayerCount: 2
Fore
SplineSet
224.88671875 617.301757812 m 1
 163.66015625 555.254882812 l 1
 112.206054688 555.254882812 l 1
 190.080078125 647.505859375 l 1
 259.694335938 647.505859375 l 1
 337.568359375 555.254882812 l 1
 286.177734375 555.254882812 l 1
 224.88671875 617.301757812 l 1
373.1328125 462.625 m 1
 257.424804688 462.625 l 1
 257.424804688 62.5966796875 l 1
 373.1328125 62.5966796875 l 1
 373.1328125 3.9541015625 l 1
 66.869140625 3.576171875 l 1
 66.869140625 60.5791015625 l 1
 182.135742188 61.4619140625 l 1
 182.135742188 462.309570312 l 1
 66.869140625 462.625 l 1
 66.869140625 521.58203125 l 1
 373.1328125 521.58203125 l 1
 373.1328125 462.625 l 1
EndSplineSet
EndChar

StartChar: Idieresis
Encoding: 207 207 140
Width: 440
GlyphClass: 1
Flags: W
LayerCount: 2
Fore
SplineSet
373.131835938 458.01953125 m 1
 257.423828125 458.01953125 l 1
 257.423828125 57.9912109375 l 1
 373.131835938 57.9912109375 l 1
 373.131835938 -0.6513671875 l 1
 66.8681640625 -1.029296875 l 1
 66.8681640625 55.9736328125 l 1
 182.198242188 56.8564453125 l 1
 182.198242188 457.704101562 l 1
 66.8681640625 458.01953125 l 1
 66.8681640625 516.9765625 l 1
 373.131835938 516.9765625 l 1
 373.131835938 458.01953125 l 1
175.703125 573.22265625 m 2
 118.069335938 573.22265625 l 2
 113.159179688 573.22265625 109.178710938 577.203125 109.178710938 582.11328125 c 2
 109.178710938 634.008789062 l 2
 109.178710938 638.918945312 113.159179688 642.899414062 118.069335938 642.899414062 c 2
 175.703125 642.899414062 l 2
 180.61328125 642.899414062 184.59375 638.918945312 184.59375 634.008789062 c 2
 184.59375 582.11328125 l 2
 184.59375 577.203125 180.61328125 573.22265625 175.703125 573.22265625 c 2
321.9296875 573.22265625 m 2
 264.295898438 573.22265625 l 2
 259.385742188 573.22265625 255.405273438 577.203125 255.405273438 582.11328125 c 2
 255.405273438 634.008789062 l 2
 255.405273438 638.918945312 259.385742188 642.899414062 264.295898438 642.899414062 c 2
 321.9296875 642.899414062 l 2
 326.83984375 642.899414062 330.8203125 638.918945312 330.8203125 634.008789062 c 2
 330.8203125 582.11328125 l 2
 330.8203125 577.203125 326.83984375 573.22265625 321.9296875 573.22265625 c 2
EndSplineSet
EndChar

StartChar: Eth
Encoding: 208 208 141
Width: 440
GlyphClass: 1
Flags: W
LayerCount: 2
Fore
SplineSet
201.083007812 522.717773438 m 1
 201.083984375 522.654296875 l 1
 292.704101562 522.654296875 422.8515625 480.911132812 422.8515625 263.241210938 c 0
 422.8515625 45.5712890625 292.704101562 4.962890625 201.83984375 4.962890625 c 0
 143.071289062 4.962890625 62.9267578125 4.6474609375 62.9267578125 4.6474609375 c 1
 62.9267578125 250.440429688 l 1
 17.1484375 250.440429688 l 1
 17.1484375 302.651367188 l 1
 62.9267578125 302.651367188 l 1
 62.9267578125 522.717773438 l 1
 201.083007812 522.717773438 l 1
200.264648438 62.1552734375 m 1
 200.264648438 62.2197265625 l 1
 256.005859375 62.2197265625 347.185546875 93.1171875 347.185546875 264.125 c 0
 347.185546875 435.133789062 256.762695312 465.274414062 200.264648438 465.274414062 c 2
 137.712890625 465.274414062 l 1
 137.712890625 302.65234375 l 1
 237.15234375 302.65234375 l 1
 237.15234375 250.44140625 l 1
 137.712890625 250.44140625 l 1
 137.712890625 62.1552734375 l 1
 200.264648438 62.1552734375 l 1
EndSplineSet
EndChar

StartChar: Ntilde
Encoding: 209 209 142
Width: 440
GlyphClass: 1
Flags: W
LayerCount: 2
Fore
SplineSet
326.123046875 518.189453125 m 1
 397.943359375 518.189453125 l 1
 397.943359375 0.18359375 l 1
 303.421875 0.18359375 l 1
 117.40625 422.21875 l 1
 117.40625 0.18359375 l 1
 45.5224609375 0.18359375 l 1
 42.0546875 518.189453125 l 1
 140.107421875 518.189453125 l 1
 326.123046875 96.4697265625 l 1
 326.123046875 518.189453125 l 1
168.923828125 600.415039062 m 0
 153.348632812 600.415039062 144.6484375 585.59765625 144.6484375 564.915039062 c 1
 98.0498046875 564.915039062 l 1
 98.0498046875 606.46875 119.803710938 641.149414062 168.419921875 641.149414062 c 0
 215.396484375 641.149414062 237.403320312 607.477539062 270.5078125 607.477539062 c 0
 296.045898438 607.477539062 295.856445312 641.149414062 295.856445312 641.149414062 c 1
 341.950195312 641.149414062 l 1
 341.950195312 616.178710938 325.997070312 564.9140625 272.209960938 564.9140625 c 0
 219.495117188 564.9140625 206.252929688 600.415039062 168.923828125 600.415039062 c 0
EndSplineSet
EndChar

StartChar: Ograve
Encoding: 210 210 143
Width: 440
GlyphClass: 1
Flags: W
LayerCount: 2
Fore
SplineSet
274.0703125 554.498046875 m 1
 217.3828125 554.498046875 l 1
 133.391601562 646.749023438 l 1
 201.4921875 646.749023438 l 1
 274.0703125 554.498046875 l 1
219.779296875 529.0234375 m 0
 318.2734375 529.0234375 404.21875 471.264648438 404.21875 261.91796875 c 0
 404.21875 52.5712890625 316.885742188 -5.125 219.779296875 -5.125 c 0
 122.672851562 -5.125 35.78125 52.5087890625 35.78125 261.91796875 c 0
 35.78125 471.327148438 121.28515625 529.0234375 219.779296875 529.0234375 c 0
220.220703125 53.896484375 m 1
 220.158203125 53.896484375 l 1
 268.900390625 53.896484375 327.416015625 78.740234375 327.416015625 261.91796875 c 0
 327.416015625 445.095703125 270.728515625 471.01171875 220.220703125 471.01171875 c 0
 169.712890625 471.01171875 112.583984375 445.095703125 112.583984375 261.91796875 c 0
 112.583984375 78.740234375 171.541015625 53.896484375 220.220703125 53.896484375 c 1
EndSplineSet
EndChar

StartChar: Ocircumflex
Encoding: 212 212 144
Width: 440
GlyphClass: 1
Flags: W
LayerCount: 2
Fore
SplineSet
219.96875 617.301757812 m 1
 158.741210938 555.254882812 l 1
 107.350585938 555.254882812 l 1
 185.162109375 647.505859375 l 1
 254.776367188 647.505859375 l 1
 332.650390625 555.254882812 l 1
 281.259765625 555.254882812 l 1
 219.96875 617.301757812 l 1
219.779296875 529.0234375 m 0
 318.2734375 529.0234375 404.21875 471.264648438 404.21875 261.91796875 c 0
 404.21875 52.5712890625 316.885742188 -5.125 219.779296875 -5.125 c 0
 122.672851562 -5.125 35.78125 52.5087890625 35.78125 261.91796875 c 0
 35.78125 471.327148438 121.28515625 529.0234375 219.779296875 529.0234375 c 0
220.157226562 53.896484375 m 1
 220.09375 53.896484375 l 1
 268.8359375 53.896484375 327.352539062 78.740234375 327.352539062 261.91796875 c 0
 327.352539062 445.095703125 270.665039062 471.01171875 220.157226562 471.01171875 c 0
 169.649414062 471.01171875 112.520507812 445.095703125 112.520507812 261.91796875 c 0
 112.520507812 78.740234375 171.477539062 53.896484375 220.157226562 53.896484375 c 1
EndSplineSet
EndChar

StartChar: Otilde
Encoding: 213 213 145
Width: 440
GlyphClass: 1
Flags: W
LayerCount: 2
Fore
SplineSet
219.780273438 529.379882812 m 0
 318.270507812 529.379882812 404.220703125 471.689453125 404.220703125 262.33984375 c 0
 404.220703125 52.990234375 316.890625 -4.7001953125 219.780273438 -4.7001953125 c 0
 122.669921875 -4.7001953125 35.7802734375 52.990234375 35.7802734375 262.33984375 c 0
 35.7802734375 471.689453125 121.290039062 529.379882812 219.780273438 529.379882812 c 0
220.220703125 54.3203125 m 1
 220.161132812 54.3203125 l 1
 268.840820312 54.3203125 327.420898438 79.16015625 327.420898438 262.33984375 c 0
 327.420898438 445.51953125 270.73046875 471.4296875 220.220703125 471.4296875 c 0
 169.7109375 471.4296875 112.581054688 445.51953125 112.581054688 262.33984375 c 0
 112.581054688 79.16015625 171.541015625 54.3203125 220.220703125 54.3203125 c 1
169.271484375 599.440429688 m 0
 153.701171875 599.440429688 144.991210938 584.620117188 144.991210938 563.940429688 c 1
 98.4013671875 563.940429688 l 1
 98.4013671875 605.490234375 120.2109375 640.169921875 168.831054688 640.169921875 c 0
 215.811523438 640.169921875 237.811523438 606.5 270.921875 606.5 c 0
 296.461914062 606.5 296.271484375 640.169921875 296.271484375 640.169921875 c 1
 342.361328125 640.169921875 l 1
 342.361328125 615.200195312 326.341796875 563.940429688 272.561523438 563.940429688 c 0
 219.841796875 563.940429688 206.6015625 599.440429688 169.271484375 599.440429688 c 0
EndSplineSet
EndChar

StartChar: Odieresis
Encoding: 214 214 146
Width: 440
GlyphClass: 1
Flags: W
LayerCount: 2
Fore
SplineSet
175.703125 577.828125 m 2
 118.069335938 577.828125 l 2
 113.159179688 577.828125 109.178710938 581.80859375 109.178710938 586.71875 c 2
 109.178710938 638.614257812 l 2
 109.178710938 643.524414062 113.159179688 647.504882812 118.069335938 647.504882812 c 2
 175.703125 647.504882812 l 2
 180.61328125 647.504882812 184.59375 643.524414062 184.59375 638.614257812 c 2
 184.59375 586.71875 l 2
 184.59375 581.80859375 180.61328125 577.828125 175.703125 577.828125 c 2
321.9296875 577.828125 m 2
 264.295898438 577.828125 l 2
 259.385742188 577.828125 255.405273438 581.80859375 255.405273438 586.71875 c 2
 255.405273438 638.614257812 l 2
 255.405273438 643.524414062 259.385742188 647.504882812 264.295898438 647.504882812 c 2
 321.9296875 647.504882812 l 2
 326.83984375 647.504882812 330.8203125 643.524414062 330.8203125 638.614257812 c 2
 330.8203125 586.71875 l 2
 330.8203125 581.80859375 326.83984375 577.828125 321.9296875 577.828125 c 2
219.778320312 529.022460938 m 0
 318.272460938 529.022460938 404.217773438 471.263671875 404.217773438 261.916992188 c 0
 404.217773438 52.5703125 316.884765625 -5.1259765625 219.778320312 -5.1259765625 c 0
 122.671875 -5.1259765625 35.7802734375 52.5078125 35.7802734375 261.916992188 c 0
 35.7802734375 471.326171875 121.284179688 529.022460938 219.778320312 529.022460938 c 0
220.219726562 53.8955078125 m 1
 220.15625 53.8955078125 l 1
 268.8359375 53.8955078125 327.415039062 78.7392578125 327.415039062 261.916992188 c 0
 327.415039062 445.094726562 270.727539062 471.010742188 220.219726562 471.010742188 c 0
 169.711914062 471.010742188 112.583007812 445.094726562 112.583007812 261.916992188 c 0
 112.583007812 78.7392578125 171.540039062 53.8955078125 220.219726562 53.8955078125 c 1
EndSplineSet
EndChar

StartChar: multiply
Encoding: 215 215 147
Width: 440
GlyphClass: 1
Flags: W
LayerCount: 2
Fore
SplineSet
392.615234375 350.069335938 m 1
 264.043945312 228.938476562 l 1
 392.615234375 107.807617188 l 1
 348.287109375 65.7490234375 l 1
 219.58984375 187.069335938 l 1
 90.765625 65.7490234375 l 1
 46.5 107.807617188 l 1
 175.071289062 228.938476562 l 1
 46.5 350.069335938 l 1
 90.765625 392.127929688 l 1
 219.58984375 270.807617188 l 1
 348.287109375 392.127929688 l 1
 392.615234375 350.069335938 l 1
EndSplineSet
EndChar

StartChar: Oslash
Encoding: 216 216 148
Width: 440
GlyphClass: 1
Flags: W
LayerCount: 2
Fore
SplineSet
438.962890625 519.879882812 m 1
 438.899414062 519.880859375 l 1
 374.014648438 432.485351562 l 1
 392.7421875 392.06640625 404.155273438 337.081054688 404.155273438 261.91796875 c 0
 404.155273438 52.5712890625 316.822265625 -5.125 219.715820312 -5.125 c 0
 170.84765625 -5.125 124.564453125 9.693359375 90.640625 50.9951171875 c 1
 36.9794921875 -21.267578125 l 1
 1.037109375 4.017578125 l 1
 66.0478515625 91.5390625 l 1
 47.2568359375 131.958007812 35.7802734375 186.879882812 35.7802734375 261.916992188 c 0
 35.7802734375 471.326171875 121.284179688 529.022460938 219.778320312 529.022460938 c 0
 269.340820312 529.022460938 315.624023438 514.267578125 349.485351562 473.091796875 c 1
 403.020507812 545.165039062 l 1
 438.962890625 519.879882812 l 1
112.583984375 261.91796875 m 1
 112.521484375 261.918945312 l 1
 112.521484375 222.3828125 115.421875 190.5390625 120.213867188 164.43359375 c 1
 304.779296875 412.9375 l 1
 283.655273438 461.23828125 250.866210938 471.01171875 220.220703125 471.01171875 c 0
 169.712890625 471.01171875 112.583984375 445.095703125 112.583984375 261.91796875 c 1
220.221679688 53.896484375 m 0
 268.901367188 53.896484375 327.48046875 78.740234375 327.48046875 261.91796875 c 0
 327.48046875 301.517578125 324.706054688 333.423828125 320.040039062 359.655273438 c 1
 135.7265625 111.592773438 l 1
 157.354492188 63.2919921875 190.6484375 53.896484375 220.221679688 53.896484375 c 0
EndSplineSet
EndChar

StartChar: Ugrave
Encoding: 217 217 149
Width: 440
GlyphClass: 1
Flags: W
LayerCount: 2
Fore
SplineSet
275.173828125 549.91015625 m 1
 218.423828125 549.91015625 l 1
 134.49609375 642.161132812 l 1
 202.533203125 642.161132812 l 1
 275.173828125 549.91015625 l 1
317.611328125 518.129882812 m 1
 393.40625 518.129882812 l 1
 393.40625 165.772460938 l 2
 393.40625 81.529296875 365.53515625 -9.712890625 222.5234375 -9.712890625 c 0
 79.51171875 -9.712890625 46.5966796875 82.22265625 46.5966796875 178.698242188 c 2
 46.5966796875 518.129882812 l 1
 121.696289062 518.129882812 l 1
 121.696289062 166.465820312 l 2
 121.696289062 80.1416015625 138.40625 47.2890625 222.018554688 47.2890625 c 0
 305.630859375 47.2890625 317.611328125 99.5 317.611328125 159.27734375 c 2
 317.611328125 518.129882812 l 1
EndSplineSet
EndChar

StartChar: Uacute
Encoding: 218 218 150
Width: 440
GlyphClass: 1
Flags: HW
LayerCount: 2
Fore
SplineSet
305.50390625 642.161132812 m 1
 221.577148438 549.91015625 l 1
 164.826171875 549.91015625 l 1
 237.466796875 642.161132812 l 1
 305.50390625 642.161132812 l 1
317.611328125 518.129882812 m 1
 393.40625 518.129882812 l 1
 393.40625 165.772460938 l 2
 393.40625 81.529296875 365.53515625 -9.712890625 222.5234375 -9.712890625 c 0
 79.51171875 -9.712890625 46.5966796875 82.22265625 46.5966796875 178.698242188 c 2
 46.5966796875 518.129882812 l 1
 121.696289062 518.129882812 l 1
 121.696289062 166.465820312 l 2
 121.696289062 80.1416015625 138.40625 47.2890625 222.018554688 47.2890625 c 0
 305.630859375 47.2890625 317.611328125 99.5 317.611328125 159.27734375 c 2
 317.611328125 518.129882812 l 1
EndSplineSet
EndChar

StartChar: Ucircumflex
Encoding: 219 219 151
Width: 440
GlyphClass: 1
Flags: W
LayerCount: 2
Fore
SplineSet
220 612.696289062 m 1
 158.709960938 550.649414062 l 1
 107.319335938 550.649414062 l 1
 185.193359375 642.900390625 l 1
 254.744140625 642.900390625 l 1
 332.681640625 550.649414062 l 1
 281.227539062 550.649414062 l 1
 220 612.696289062 l 1
317.611328125 518.112304688 m 1
 393.40625 518.112304688 l 1
 393.40625 165.754882812 l 2
 393.40625 81.51171875 365.53515625 -9.73046875 222.5234375 -9.73046875 c 0
 79.51171875 -9.73046875 46.5966796875 82.205078125 46.5966796875 178.680664062 c 2
 46.5966796875 518.112304688 l 1
 121.696289062 518.112304688 l 1
 121.696289062 166.448242188 l 2
 121.696289062 80.1240234375 138.40625 47.271484375 222.018554688 47.271484375 c 0
 305.630859375 47.271484375 317.611328125 99.482421875 317.611328125 159.259765625 c 2
 317.611328125 518.112304688 l 1
EndSplineSet
EndChar

StartChar: Udieresis
Encoding: 220 220 152
Width: 440
GlyphClass: 1
Flags: HW
LayerCount: 2
Fore
SplineSet
176.739257812 573.22265625 m 2
 119.10546875 573.22265625 l 2
 114.1953125 573.22265625 110.21484375 577.203125 110.21484375 582.11328125 c 2
 110.21484375 634.008789062 l 2
 110.21484375 638.918945312 114.1953125 642.899414062 119.10546875 642.899414062 c 2
 176.739257812 642.899414062 l 2
 181.649414062 642.899414062 185.629882812 638.918945312 185.629882812 634.008789062 c 2
 185.629882812 582.11328125 l 2
 185.629882812 577.203125 181.649414062 573.22265625 176.739257812 573.22265625 c 2
322.965820312 573.22265625 m 2
 265.33203125 573.22265625 l 2
 260.421875 573.22265625 256.44140625 577.203125 256.44140625 582.11328125 c 2
 256.44140625 634.008789062 l 2
 256.44140625 638.918945312 260.421875 642.899414062 265.33203125 642.899414062 c 2
 322.965820312 642.899414062 l 2
 327.875976562 642.899414062 331.856445312 638.918945312 331.856445312 634.008789062 c 2
 331.856445312 582.11328125 l 2
 331.856445312 577.203125 327.875976562 573.22265625 322.965820312 573.22265625 c 2
318.110351562 518.111328125 m 1
 393.905273438 518.111328125 l 1
 393.905273438 165.75390625 l 2
 393.905273438 81.5107421875 366.034179688 -9.7314453125 223.022460938 -9.7314453125 c 0
 80.0107421875 -9.7314453125 47.095703125 82.2041015625 47.095703125 178.6796875 c 2
 47.095703125 518.111328125 l 1
 122.1953125 518.111328125 l 1
 122.1953125 166.447265625 l 2
 122.1953125 80.123046875 138.905273438 47.2705078125 222.517578125 47.2705078125 c 0
 306.129882812 47.2705078125 318.110351562 99.4814453125 318.110351562 159.258789062 c 2
 318.110351562 518.111328125 l 1
EndSplineSet
EndChar

StartChar: Yacute
Encoding: 221 221 153
Width: 440
GlyphClass: 1
Flags: W
LayerCount: 2
Fore
SplineSet
309.700195312 641.75 m 1
 225.770507812 549.5 l 1
 169.020507812 549.5 l 1
 241.66015625 641.75 l 1
 309.700195312 641.75 l 1
353.900390625 517.719726562 m 1
 434.041015625 517.719726562 l 1
 257.05078125 232.639648438 l 1
 257.05078125 -0.2900390625 l 1
 182.201171875 -0.2900390625 l 1
 182.510742188 233.709960938 l 1
 5.9609375 517.719726562 l 1
 85.4111328125 517.719726562 l 1
 219.970703125 289.330078125 l 1
 353.900390625 517.719726562 l 1
EndSplineSet
EndChar

StartChar: Thorn
Encoding: 222 222 154
Width: 440
GlyphClass: 1
Flags: W
LayerCount: 2
Fore
SplineSet
220 425.66015625 m 1
 220.000976562 425.720703125 l 1
 327.260742188 425.720703125 397.690429688 379.250976562 397.690429688 276.590820312 c 0
 397.690429688 173.940429688 334.5703125 127.459960938 220 127.459960938 c 2
 117.219726562 127.459960938 l 1
 117.219726562 -0.2900390625 l 1
 42.3095703125 -0.2900390625 l 1
 42.3095703125 517.719726562 l 1
 117.219726562 517.719726562 l 1
 117.219726562 425.66015625 l 1
 220 425.66015625 l 1
209.661132812 186.110351562 m 2
 268.87109375 186.110351562 319.881835938 208.359375 319.881835938 276.83984375 c 0
 319.881835938 345.3203125 265.151367188 366.260742188 209.661132812 366.260742188 c 2
 117.220703125 366.260742188 l 1
 117.220703125 186.110351562 l 1
 209.661132812 186.110351562 l 2
EndSplineSet
EndChar

StartChar: germandbls
Encoding: 223 223 155
Width: 440
GlyphClass: 1
Flags: W
LayerCount: 2
Fore
SplineSet
234 305.969726562 m 1
 233.940429688 305.969726562 l 1
 233.940429688 231.439453125 397.310546875 232.958984375 397.310546875 105.579101562 c 0
 397.310546875 -13.1513671875 241.440429688 -32.8916015625 142.440429688 6.5185546875 c 1
 142.440429688 63.208984375 l 1
 142.440429688 63.208984375 190.490234375 42.0791015625 241.5 42.0791015625 c 0
 297.75 42.0791015625 328.459960938 69.5087890625 328.459960938 107.098632812 c 0
 328.459960938 194.80859375 168.169921875 186.108398438 168.169921875 295.377929688 c 0
 168.169921875 394.568359375 285.389648438 410.328125 285.389648438 410.328125 c 1
 285.389648438 410.328125 293.149414062 486.688476562 198.4296875 486.688476562 c 0
 134.809570312 486.688476562 111.479492188 454.348632812 111.479492188 388.638671875 c 2
 111.479492188 -0.291015625 l 1
 42.689453125 -0.291015625 l 1
 42.689453125 388.638671875 l 2
 42.689453125 490.2890625 87.19921875 539.659179688 198.499023438 539.659179688 c 0
 309.7890625 539.659179688 353.489257812 481.01953125 353.489257812 388.389648438 c 1
 294.849609375 388.389648438 234 359.569335938 234 305.969726562 c 1
EndSplineSet
EndChar

StartChar: agrave
Encoding: 224 224 156
Width: 440
GlyphClass: 1
Flags: W
LayerCount: 2
Fore
SplineSet
382.401367188 226.411132812 m 2
 382.401367188 110.0703125 l 2
 382.401367188 54.3291015625 401.885742188 0.0380859375 401.885742188 0.0380859375 c 1
 333.78515625 0.0380859375 l 1
 333.78515625 0.0380859375 324.515625 21.7294921875 317.958007812 59.1220703125 c 1
 289.267578125 13.78515625 230.057617188 -10.11328125 182.576171875 -10.11328125 c 0
 98.900390625 -10.11328125 38.1142578125 31.755859375 38.1142578125 114.169921875 c 0
 38.1142578125 194.881835938 95.8740234375 246.209960938 219.842773438 246.209960938 c 0
 272.305664062 246.209960938 311.526367188 245.958007812 311.526367188 245.958007812 c 1
 311.526367188 266.135742188 324.579101562 344.262695312 213.221679688 344.262695312 c 0
 127.84375 344.262695312 71.0302734375 307.185546875 71.0302734375 307.185546875 c 1
 71.0302734375 370.3046875 l 1
 107.791992188 382.916015625 148.336914062 400.067382812 214.23046875 400.067382812 c 0
 309.508789062 400.067382812 382.401367188 359.20703125 382.401367188 226.411132812 c 2
188.50390625 42.978515625 m 0
 290.024414062 42.978515625 315.373046875 131.068359375 312.09375 194.944335938 c 0
 311.526367188 195.0078125 242.920898438 195.827148438 218.013671875 194.944335938 c 0
 144.23828125 192.295898438 105.900390625 178.612304688 105.900390625 116.565429688 c 0
 105.900390625 61.8955078125 153.633789062 42.978515625 188.50390625 42.978515625 c 0
268.017578125 450.2578125 m 1
 211.266601562 450.2578125 l 1
 92.658203125 580.91015625 l 1
 165.236328125 580.91015625 l 1
 268.017578125 450.2578125 l 1
EndSplineSet
EndChar

StartChar: aacute
Encoding: 225 225 157
Width: 440
GlyphClass: 1
Flags: W
LayerCount: 2
Fore
SplineSet
382.401367188 226.411132812 m 2
 382.400390625 110.0703125 l 2
 382.400390625 54.3291015625 401.884765625 0.0380859375 401.884765625 0.0380859375 c 1
 333.784179688 0.0380859375 l 1
 333.784179688 0.0380859375 324.514648438 21.7294921875 317.95703125 59.1220703125 c 1
 289.266601562 13.78515625 230.056640625 -10.11328125 182.575195312 -10.11328125 c 0
 98.8994140625 -10.11328125 38.11328125 31.755859375 38.11328125 114.169921875 c 0
 38.11328125 194.881835938 95.873046875 246.209960938 219.841796875 246.209960938 c 0
 272.3046875 246.209960938 311.525390625 245.958007812 311.525390625 245.958007812 c 1
 311.525390625 266.135742188 324.578125 344.262695312 213.220703125 344.262695312 c 0
 127.842773438 344.262695312 71.029296875 307.185546875 71.029296875 307.185546875 c 1
 71.029296875 370.3046875 l 1
 107.791015625 382.916015625 148.399414062 400.067382812 214.23046875 400.067382812 c 0
 309.508789062 400.067382812 382.401367188 359.20703125 382.401367188 226.411132812 c 2
188.439453125 42.978515625 m 0
 289.959960938 42.978515625 315.30859375 131.068359375 312.029296875 194.944335938 c 0
 311.461914062 195.0078125 242.856445312 195.827148438 217.94921875 194.944335938 c 0
 144.173828125 192.295898438 105.8359375 178.612304688 105.8359375 116.565429688 c 0
 105.8359375 61.8955078125 153.569335938 42.978515625 188.439453125 42.978515625 c 0
340.215820312 580.91015625 m 1
 221.607421875 450.2578125 l 1
 164.919921875 450.2578125 l 1
 267.638671875 580.91015625 l 1
 340.215820312 580.91015625 l 1
EndSplineSet
EndChar

StartChar: acircumflex
Encoding: 226 226 158
Width: 440
GlyphClass: 1
Flags: W
LayerCount: 2
Fore
SplineSet
382.401367188 226.438476562 m 2
 382.400390625 110.09765625 l 2
 382.400390625 54.3564453125 401.884765625 0.0654296875 401.884765625 0.0654296875 c 1
 333.784179688 0.0654296875 l 1
 333.784179688 0.0654296875 324.514648438 21.7568359375 317.95703125 59.1494140625 c 1
 289.266601562 13.8125 230.056640625 -10.0859375 182.575195312 -10.0859375 c 0
 98.8994140625 -10.0859375 38.11328125 31.783203125 38.11328125 114.197265625 c 0
 38.11328125 194.909179688 95.873046875 246.237304688 219.841796875 246.237304688 c 0
 272.3046875 246.237304688 311.525390625 245.985351562 311.525390625 245.985351562 c 1
 311.525390625 266.163085938 324.578125 344.290039062 213.220703125 344.290039062 c 0
 127.842773438 344.290039062 71.029296875 307.212890625 71.029296875 307.212890625 c 1
 71.029296875 370.33203125 l 1
 107.791015625 382.943359375 148.399414062 400.094726562 214.23046875 400.094726562 c 0
 309.508789062 400.094726562 382.401367188 359.234375 382.401367188 226.438476562 c 2
188.502929688 42.943359375 m 0
 290.0234375 42.943359375 315.372070312 131.033203125 312.092773438 194.909179688 c 0
 311.525390625 194.97265625 242.919921875 195.791992188 218.012695312 194.909179688 c 0
 144.237304688 192.260742188 105.899414062 178.577148438 105.899414062 116.530273438 c 0
 105.899414062 61.8603515625 153.6328125 42.943359375 188.502929688 42.943359375 c 0
220.03125 538.123046875 m 1
 153.569335938 450.22265625 l 1
 101.926757812 450.22265625 l 1
 191.71875 580.938476562 l 1
 248.342773438 580.938476562 l 1
 338.134765625 450.22265625 l 1
 286.4921875 450.22265625 l 1
 220.03125 538.123046875 l 1
EndSplineSet
EndChar

StartChar: atilde
Encoding: 227 227 159
Width: 440
GlyphClass: 1
Flags: W
LayerCount: 2
Fore
SplineSet
382.401367188 226.411132812 m 2
 382.399414062 110.0703125 l 2
 382.399414062 54.3291015625 401.883789062 0.0380859375 401.883789062 0.0380859375 c 1
 333.783203125 0.0380859375 l 1
 333.783203125 0.0380859375 324.513671875 21.7294921875 317.956054688 59.1220703125 c 1
 289.265625 13.78515625 230.119140625 -10.11328125 182.575195312 -10.11328125 c 0
 98.8994140625 -10.11328125 38.11328125 31.755859375 38.11328125 114.169921875 c 0
 38.11328125 194.881835938 95.873046875 246.209960938 219.841796875 246.209960938 c 0
 272.3046875 246.209960938 311.525390625 245.958007812 311.525390625 245.958007812 c 1
 311.525390625 266.135742188 324.578125 344.262695312 213.220703125 344.262695312 c 0
 127.842773438 344.262695312 71.029296875 307.185546875 71.029296875 307.185546875 c 1
 71.029296875 370.3046875 l 1
 107.791015625 382.916015625 148.399414062 400.067382812 214.23046875 400.067382812 c 0
 309.508789062 400.067382812 382.401367188 359.20703125 382.401367188 226.411132812 c 2
188.501953125 42.978515625 m 0
 290.022460938 42.978515625 315.37109375 131.068359375 312.091796875 194.944335938 c 0
 311.524414062 195.0078125 242.918945312 195.827148438 218.01171875 194.944335938 c 0
 144.236328125 192.295898438 105.8984375 178.612304688 105.8984375 116.565429688 c 0
 105.8984375 61.8955078125 153.631835938 42.978515625 188.501953125 42.978515625 c 0
166.495117188 519.115234375 m 1
 166.623046875 519.114257812 l 1
 146.319335938 519.114257812 141.1484375 491.622070312 141.1484375 465.138671875 c 1
 95.748046875 465.138671875 l 1
 95.748046875 518.358398438 115.989257812 562.686523438 169.397460938 562.686523438 c 0
 216.87890625 562.686523438 234.030273438 509.719726562 267.134765625 509.719726562 c 0
 294.626953125 509.719726562 292.356445312 562.686523438 292.356445312 562.686523438 c 1
 338.450195312 562.686523438 l 1
 338.450195312 530.716796875 328.61328125 465.138671875 268.646484375 465.138671875 c 0
 208.6796875 465.138671875 202.751953125 519.115234375 166.495117188 519.115234375 c 1
EndSplineSet
EndChar

StartChar: adieresis
Encoding: 228 228 160
Width: 440
GlyphClass: 1
Flags: W
LayerCount: 2
Fore
SplineSet
382.401367188 226.411132812 m 2
 382.399414062 110.0703125 l 2
 382.399414062 54.3291015625 401.883789062 0.0380859375 401.883789062 0.0380859375 c 1
 333.783203125 0.0380859375 l 1
 333.783203125 0.0380859375 324.513671875 21.7294921875 317.956054688 59.1220703125 c 1
 289.265625 13.78515625 230.119140625 -10.11328125 182.575195312 -10.11328125 c 0
 98.8994140625 -10.11328125 38.11328125 31.755859375 38.11328125 114.169921875 c 0
 38.11328125 194.881835938 95.873046875 246.209960938 219.841796875 246.209960938 c 0
 272.241210938 246.209960938 311.525390625 245.958007812 311.525390625 245.958007812 c 1
 311.525390625 266.135742188 324.578125 344.262695312 213.220703125 344.262695312 c 0
 127.842773438 344.262695312 71.029296875 307.185546875 71.029296875 307.185546875 c 1
 71.029296875 370.3046875 l 1
 107.791015625 382.916015625 148.399414062 400.067382812 214.23046875 400.067382812 c 0
 309.508789062 400.067382812 382.401367188 359.20703125 382.401367188 226.411132812 c 2
188.438476562 42.978515625 m 0
 289.958984375 42.978515625 315.307617188 131.068359375 312.028320312 194.944335938 c 0
 311.4609375 195.0078125 242.85546875 195.827148438 217.948242188 194.944335938 c 0
 144.172851562 192.295898438 105.834960938 178.612304688 105.834960938 116.565429688 c 0
 105.834960938 61.8955078125 153.568359375 42.978515625 188.438476562 42.978515625 c 0
172.674804688 470.373046875 m 2
 115.041015625 470.373046875 l 2
 110.130859375 470.373046875 106.150390625 474.353515625 106.150390625 479.263671875 c 2
 106.150390625 531.159179688 l 2
 106.150390625 536.069335938 110.130859375 540.049804688 115.041015625 540.049804688 c 2
 172.674804688 540.049804688 l 2
 177.584960938 540.049804688 181.565429688 536.069335938 181.565429688 531.159179688 c 2
 181.565429688 479.263671875 l 2
 181.565429688 474.353515625 177.584960938 470.373046875 172.674804688 470.373046875 c 2
318.901367188 470.373046875 m 2
 261.267578125 470.373046875 l 2
 256.357421875 470.373046875 252.376953125 474.353515625 252.376953125 479.263671875 c 2
 252.376953125 531.159179688 l 2
 252.376953125 536.069335938 256.357421875 540.049804688 261.267578125 540.049804688 c 2
 318.901367188 540.049804688 l 2
 323.811523438 540.049804688 327.791992188 536.069335938 327.791992188 531.159179688 c 2
 327.791992188 479.263671875 l 2
 327.791992188 474.353515625 323.811523438 470.373046875 318.901367188 470.373046875 c 2
EndSplineSet
EndChar

StartChar: aring
Encoding: 229 229 161
Width: 440
GlyphClass: 1
Flags: W
LayerCount: 2
Fore
SplineSet
382.401367188 226.411132812 m 2
 382.401367188 110.0703125 l 2
 382.401367188 54.3291015625 401.885742188 0.0380859375 401.885742188 0.0380859375 c 1
 333.78515625 0.0380859375 l 1
 333.78515625 0.0380859375 324.515625 21.7294921875 317.958007812 59.1220703125 c 1
 289.267578125 13.78515625 230.057617188 -10.11328125 182.576171875 -10.11328125 c 0
 98.900390625 -10.11328125 38.1142578125 31.755859375 38.1142578125 114.169921875 c 0
 38.1142578125 194.881835938 95.8740234375 246.209960938 219.842773438 246.209960938 c 0
 272.2421875 246.209960938 311.526367188 245.958007812 311.526367188 245.958007812 c 1
 311.526367188 266.135742188 324.579101562 344.262695312 213.221679688 344.262695312 c 0
 127.84375 344.262695312 71.0302734375 307.185546875 71.0302734375 307.185546875 c 1
 71.0302734375 370.3046875 l 1
 107.791992188 382.916015625 148.336914062 400.067382812 214.23046875 400.067382812 c 0
 309.508789062 400.067382812 382.401367188 359.20703125 382.401367188 226.411132812 c 2
188.440429688 42.978515625 m 1
 188.377929688 42.978515625 l 1
 289.8984375 42.978515625 315.247070312 131.068359375 311.967773438 194.944335938 c 0
 311.462890625 195.0078125 242.857421875 195.827148438 217.950195312 194.944335938 c 0
 144.174804688 192.295898438 105.836914062 178.612304688 105.836914062 116.565429688 c 0
 105.836914062 61.8955078125 153.5703125 42.978515625 188.440429688 42.978515625 c 1
216.81640625 433.043945312 m 0
 160.5703125 433.043945312 114.918945312 476.047851562 114.918945312 529.078125 c 0
 114.918945312 582.108398438 160.571289062 625.112304688 216.817382812 625.112304688 c 0
 273.063476562 625.112304688 318.715820312 582.108398438 318.715820312 529.078125 c 0
 318.715820312 476.047851562 273.125976562 433.043945312 216.81640625 433.043945312 c 0
216.817382812 581.666992188 m 0
 185.983398438 581.666992188 161.012695312 558.147460938 161.012695312 529.078125 c 0
 161.012695312 500.008789062 185.983398438 476.489257812 216.817382812 476.489257812 c 0
 247.651367188 476.489257812 272.622070312 500.008789062 272.622070312 529.078125 c 0
 272.622070312 558.147460938 247.651367188 581.666992188 216.817382812 581.666992188 c 0
EndSplineSet
EndChar

StartChar: ae
Encoding: 230 230 162
Width: 440
GlyphClass: 1
Flags: W
LayerCount: 2
Fore
SplineSet
434.051757812 178.551757812 m 1
 433.864257812 178.424804688 l 1
 433.864257812 178.424804688 252.19921875 178.424804688 252.388671875 178.424804688 c 1
 252.262695312 135.420898438 244.380859375 45.818359375 320.994140625 43.548828125 c 0
 396.53515625 41.341796875 425.604492188 78.6083984375 425.604492188 78.6083984375 c 1
 425.604492188 18.89453125 l 1
 425.604492188 18.89453125 388.590820312 -10.2373046875 332.72265625 -10.2373046875 c 0
 242.8671875 -10.2373046875 222.94140625 45.3779296875 222.94140625 45.3779296875 c 1
 222.94140625 45.3779296875 199.92578125 -9.7958984375 123.123046875 -9.7958984375 c 0
 46.3203125 -9.7958984375 5.9013671875 31.064453125 5.9013671875 105.912109375 c 0
 5.9013671875 180.759765625 51.23828125 227.862304688 143.8046875 227.862304688 c 2
 193.934570312 227.862304688 l 1
 193.934570312 256.36328125 l 2
 193.934570312 328.94140625 154.524414062 344.89453125 122.428710938 344.89453125 c 0
 79.171875 344.89453125 30.1767578125 316.140625 30.1767578125 316.140625 c 1
 30.1767578125 374.341796875 l 1
 30.1767578125 374.341796875 73.49609375 398.114257812 139.263671875 398.114257812 c 0
 205.03125 398.114257812 222.30859375 353.974609375 222.30859375 353.974609375 c 1
 222.30859375 353.974609375 237.252929688 397.861328125 316.830078125 397.861328125 c 0
 396.407226562 397.861328125 420.747070312 362.67578125 430.8359375 262.668945312 c 0
 434.745117188 223.826171875 434.051757812 178.551757812 434.051757812 178.551757812 c 1
190.15234375 124.827148438 m 0
 191.666015625 153.455078125 191.288085938 178.61328125 191.288085938 178.61328125 c 1
 163.0390625 178.61328125 l 2
 92.9833984375 178.61328125 66.5 160.075195312 66.5 109 c 0
 66.5 57.9248046875 100.928710938 42.98046875 125.8359375 42.98046875 c 0
 172.938476562 42.98046875 187 64.482421875 190.15234375 124.827148438 c 0
252.578125 254.973632812 m 0
 252.200195312 239.272460938 252.578125 228.490234375 252.578125 228.490234375 c 1
 373.583007812 228.490234375 l 1
 373.583007812 228.490234375 374.907226562 250.8125 372.889648438 272.56640625 c 0
 368.98046875 314.876953125 355.423828125 345.522460938 312.29296875 345.522460938 c 0
 269.162109375 345.522460938 253.90234375 309.580078125 252.578125 254.973632812 c 0
EndSplineSet
EndChar

StartChar: ccedilla
Encoding: 231 231 163
Width: 440
GlyphClass: 1
Flags: W
LayerCount: 2
Fore
SplineSet
268.6796875 343.758789062 m 1
 268.740234375 343.881835938 l 1
 185.947265625 343.881835938 132.223632812 298.544921875 132.223632812 193.745117188 c 0
 132.223632812 89.7021484375 185.884765625 43.6083984375 268.740234375 43.6083984375 c 0
 309.600585938 43.6083984375 349.767578125 60.06640625 380.161132812 86.5498046875 c 1
 380.161132812 21.5390625 l 1
 348.317382812 -2.9267578125 293.395507812 -8.16015625 293.395507812 -8.16015625 c 1
 307.015625 -23.419921875 325.806640625 -49.2724609375 325.806640625 -76.44921875 c 0
 325.806640625 -119.01171875 291.125976562 -136.793945312 242.825195312 -136.793945312 c 0
 215.20703125 -136.793945312 189.0390625 -133.830078125 173.022460938 -128.659179688 c 1
 173.022460938 -128.659179688 173.022460938 -83.4482421875 173.022460938 -83.2587890625 c 1
 189.54296875 -91.2041015625 205.9375 -94.609375 228.196289062 -94.609375 c 0
 250.203125 -94.609375 274.353515625 -88.681640625 274.353515625 -62.8916015625 c 0
 274.353515625 -43.6591796875 257.265625 -20.3916015625 248.375 -9.609375 c 1
 143.764648438 -6.8349609375 59.8369140625 60.3203125 59.8369140625 193.747070312 c 0
 59.8369140625 329.948242188 147.169921875 397.607421875 254.870117188 397.607421875 c 0
 302.79296875 397.607421875 346.112304688 389.032226562 380.099609375 365.954101562 c 1
 380.099609375 300.817382812 l 1
 349.76953125 327.30078125 309.540039062 343.758789062 268.6796875 343.758789062 c 1
EndSplineSet
EndChar

StartChar: egrave
Encoding: 232 232 164
Width: 440
GlyphClass: 1
Flags: W
LayerCount: 2
Fore
SplineSet
108.421875 179.938476562 m 1
 108.359375 179.876953125 l 1
 108.359375 115.244140625 139.572265625 44.873046875 237.24609375 44.873046875 c 0
 298.095703125 44.873046875 335.109375 60.322265625 386.689453125 83.841796875 c 1
 386.689453125 20.3447265625 l 1
 342.234375 1.7431640625 298.032226562 -8.9130859375 234.787109375 -8.9130859375 c 0
 118.1328125 -8.9130859375 37.4208984375 66.060546875 37.4208984375 194.631835938 c 0
 37.4208984375 323.203125 119.45703125 398.176757812 220.662109375 398.176757812 c 0
 351.56640625 398.176757812 401.822265625 315.825195312 401.822265625 227.609375 c 0
 401.822265625 216.1328125 402.579101562 179.938476562 402.579101562 179.938476562 c 1
 108.421875 179.938476562 l 1
227.283203125 345.083984375 m 2
 227.220703125 345.083984375 l 2
 165.48828125 345.083984375 111.385742188 293.0625 111.385742188 228.80859375 c 1
 335.109375 228.80859375 l 1
 335.109375 305.232421875 300.870117188 345.083984375 227.283203125 345.083984375 c 2
274.828125 450.26171875 m 1
 218.139648438 450.26171875 l 1
 99.53125 580.9140625 l 1
 172.109375 580.9140625 l 1
 274.828125 450.26171875 l 1
EndSplineSet
EndChar

StartChar: eacute
Encoding: 233 233 165
Width: 440
GlyphClass: 1
Flags: W
LayerCount: 2
Fore
SplineSet
108.421875 179.938476562 m 1
 108.359375 179.876953125 l 1
 108.359375 115.244140625 139.572265625 44.873046875 237.24609375 44.873046875 c 0
 298.095703125 44.873046875 335.109375 60.322265625 386.689453125 83.841796875 c 1
 386.689453125 20.3447265625 l 1
 342.234375 1.7431640625 298.032226562 -8.9130859375 234.787109375 -8.9130859375 c 0
 118.1328125 -8.9130859375 37.4208984375 66.060546875 37.4208984375 194.631835938 c 0
 37.4208984375 323.203125 119.45703125 398.176757812 220.662109375 398.176757812 c 0
 351.56640625 398.176757812 401.822265625 315.825195312 401.822265625 227.609375 c 0
 401.822265625 216.1328125 402.579101562 179.938476562 402.579101562 179.938476562 c 1
 108.421875 179.938476562 l 1
227.283203125 345.083984375 m 2
 227.220703125 345.083984375 l 2
 165.48828125 345.083984375 111.385742188 293.0625 111.385742188 228.80859375 c 1
 335.109375 228.80859375 l 1
 335.109375 305.232421875 300.806640625 345.083984375 227.283203125 345.083984375 c 2
348.918945312 580.9140625 m 1
 230.311523438 450.26171875 l 1
 173.560546875 450.26171875 l 1
 276.341796875 580.9140625 l 1
 348.918945312 580.9140625 l 1
EndSplineSet
EndChar

StartChar: ecircumflex
Encoding: 234 234 166
Width: 440
GlyphClass: 1
Flags: W
LayerCount: 2
Fore
SplineSet
108.421875 179.938476562 m 1
 108.359375 179.876953125 l 1
 108.359375 115.244140625 139.572265625 44.873046875 237.24609375 44.873046875 c 0
 298.095703125 44.873046875 335.109375 60.322265625 386.689453125 83.841796875 c 1
 386.689453125 20.3447265625 l 1
 342.234375 1.7431640625 298.032226562 -8.9130859375 234.787109375 -8.9130859375 c 0
 118.1328125 -8.9130859375 37.4208984375 66.060546875 37.4208984375 194.631835938 c 0
 37.4208984375 323.203125 119.45703125 398.176757812 220.662109375 398.176757812 c 0
 351.56640625 398.176757812 401.822265625 315.825195312 401.822265625 227.609375 c 0
 401.822265625 216.1328125 402.579101562 179.938476562 402.579101562 179.938476562 c 1
 108.421875 179.938476562 l 1
227.346679688 345.083984375 m 2
 227.284179688 345.083984375 l 2
 165.551757812 345.083984375 111.44921875 293.0625 111.44921875 228.80859375 c 1
 335.172851562 228.80859375 l 1
 335.172851562 305.232421875 300.870117188 345.083984375 227.346679688 345.083984375 c 2
224.509765625 538.098632812 m 1
 158.047851562 450.26171875 l 1
 106.405273438 450.26171875 l 1
 196.133789062 580.9140625 l 1
 252.821289062 580.9140625 l 1
 342.61328125 450.26171875 l 1
 290.970703125 450.26171875 l 1
 224.509765625 538.098632812 l 1
EndSplineSet
EndChar

StartChar: edieresis
Encoding: 235 235 167
Width: 440
GlyphClass: 1
Flags: W
LayerCount: 2
Fore
SplineSet
108.421875 179.938476562 m 1
 108.359375 179.876953125 l 1
 108.359375 115.244140625 139.572265625 44.873046875 237.24609375 44.873046875 c 0
 298.095703125 44.873046875 335.109375 60.322265625 386.689453125 83.841796875 c 1
 386.689453125 20.3447265625 l 1
 342.234375 1.7431640625 298.032226562 -8.9130859375 234.787109375 -8.9130859375 c 0
 118.1328125 -8.9130859375 37.4208984375 66.060546875 37.4208984375 194.631835938 c 0
 37.4208984375 323.203125 119.45703125 398.176757812 220.662109375 398.176757812 c 0
 351.56640625 398.176757812 401.822265625 315.825195312 401.822265625 227.609375 c 0
 401.822265625 216.1328125 402.579101562 179.938476562 402.579101562 179.938476562 c 1
 108.421875 179.938476562 l 1
227.283203125 345.083984375 m 2
 227.220703125 345.083984375 l 2
 165.48828125 345.083984375 111.385742188 293.0625 111.385742188 228.80859375 c 1
 335.109375 228.80859375 l 1
 335.109375 305.232421875 300.870117188 345.083984375 227.283203125 345.083984375 c 2
178.982421875 470.376953125 m 2
 121.348632812 470.376953125 l 2
 116.438476562 470.376953125 112.458007812 474.357421875 112.458007812 479.267578125 c 2
 112.458007812 531.163085938 l 2
 112.458007812 536.073242188 116.438476562 540.053710938 121.348632812 540.053710938 c 2
 178.982421875 540.053710938 l 2
 183.892578125 540.053710938 187.873046875 536.073242188 187.873046875 531.163085938 c 2
 187.873046875 479.267578125 l 2
 187.873046875 474.357421875 183.892578125 470.376953125 178.982421875 470.376953125 c 2
325.208984375 470.376953125 m 2
 267.575195312 470.376953125 l 2
 262.665039062 470.376953125 258.684570312 474.357421875 258.684570312 479.267578125 c 2
 258.684570312 531.163085938 l 2
 258.684570312 536.073242188 262.665039062 540.053710938 267.575195312 540.053710938 c 2
 325.208984375 540.053710938 l 2
 330.119140625 540.053710938 334.099609375 536.073242188 334.099609375 531.163085938 c 2
 334.099609375 479.267578125 l 2
 334.099609375 474.357421875 330.119140625 470.376953125 325.208984375 470.376953125 c 2
EndSplineSet
EndChar

StartChar: igrave
Encoding: 236 236 168
Width: 440
GlyphClass: 1
Flags: HW
LayerCount: 2
Fore
SplineSet
226.8203125 439.879882812 m 1
 170.0703125 439.879882812 l 1
 51.4599609375 570.599609375 l 1
 124.040039062 570.599609375 l 1
 226.8203125 439.879882812 l 1
293.150390625 51.51953125 m 1
 293.15234375 51.458984375 l 1
 372.541992188 51.458984375 l 1
 372.541992188 -2.9609375 l 1
 372.541992188 -2.9609375 349.532226562 -3.0205078125 277.961914062 -3.0205078125 c 0
 206.391601562 -3.0205078125 158.53125 53.7890625 158.53125 138.479492188 c 2
 158.53125 338.869140625 l 1
 68.55078125 338.869140625 l 1
 68.55078125 388.809570312 l 1
 226.5703125 388.809570312 l 1
 226.5703125 138.479492188 l 2
 226.5703125 80.08984375 250.459960938 51.51953125 293.150390625 51.51953125 c 1
EndSplineSet
EndChar

StartChar: iacute
Encoding: 237 237 169
Width: 440
GlyphClass: 1
Flags: W
LayerCount: 2
Fore
SplineSet
331.766601562 570.599609375 m 1
 213.095703125 439.883789062 l 1
 156.408203125 439.883789062 l 1
 259.189453125 570.599609375 l 1
 331.766601562 570.599609375 l 1
292.609375 51.5205078125 m 1
 292.608398438 51.45703125 l 1
 371.99609375 51.45703125 l 1
 371.99609375 -2.9599609375 l 1
 371.99609375 -2.9599609375 348.98046875 -3.0234375 277.412109375 -3.0234375 c 0
 205.84375 -3.0234375 157.984375 53.7900390625 157.984375 138.474609375 c 2
 157.984375 338.8671875 l 1
 68.0029296875 338.8671875 l 1
 68.0029296875 388.807617188 l 1
 226.021484375 388.807617188 l 1
 226.021484375 138.474609375 l 2
 226.021484375 80.0849609375 249.919921875 51.5205078125 292.609375 51.5205078125 c 1
EndSplineSet
EndChar

StartChar: icircumflex
Encoding: 238 238 170
Width: 440
GlyphClass: 1
Flags: W
LayerCount: 2
Fore
SplineSet
292.609375 51.521484375 m 1
 292.608398438 51.4580078125 l 1
 371.99609375 51.4580078125 l 1
 371.99609375 -2.958984375 l 1
 371.99609375 -2.958984375 348.98046875 -3.0224609375 277.412109375 -3.0224609375 c 0
 205.84375 -3.0224609375 157.984375 53.791015625 157.984375 138.475585938 c 2
 157.984375 338.868164062 l 1
 68.0029296875 338.868164062 l 1
 68.0029296875 388.80859375 l 1
 226.021484375 388.80859375 l 1
 226.021484375 138.475585938 l 2
 226.021484375 80.0859375 249.919921875 51.521484375 292.609375 51.521484375 c 1
186.106445312 538.125 m 1
 119.64453125 450.224609375 l 1
 68.001953125 450.224609375 l 1
 157.793945312 580.940429688 l 1
 214.41796875 580.940429688 l 1
 304.209960938 450.224609375 l 1
 252.567382812 450.224609375 l 1
 186.106445312 538.125 l 1
EndSplineSet
EndChar

StartChar: idieresis
Encoding: 239 239 171
Width: 440
GlyphClass: 1
Flags: W
LayerCount: 2
Fore
SplineSet
292.609375 51.4833984375 m 1
 292.608398438 51.419921875 l 1
 371.99609375 51.419921875 l 1
 371.99609375 -2.9970703125 l 1
 371.99609375 -2.9970703125 348.98046875 -3.060546875 277.412109375 -3.060546875 c 0
 205.84375 -3.060546875 157.984375 53.7529296875 157.984375 138.4375 c 2
 157.984375 338.830078125 l 1
 68.0029296875 338.830078125 l 1
 68.0029296875 388.770507812 l 1
 226.021484375 388.770507812 l 1
 226.021484375 138.4375 l 2
 226.021484375 80.0478515625 249.919921875 51.4833984375 292.609375 51.4833984375 c 1
154.200195312 468.094726562 m 2
 96.56640625 468.094726562 l 2
 91.65625 468.094726562 87.67578125 472.075195312 87.67578125 476.985351562 c 2
 87.67578125 528.880859375 l 2
 87.67578125 533.791015625 91.65625 537.771484375 96.56640625 537.771484375 c 2
 154.200195312 537.771484375 l 2
 159.110351562 537.771484375 163.090820312 533.791015625 163.090820312 528.880859375 c 2
 163.090820312 476.985351562 l 2
 163.090820312 472.075195312 159.110351562 468.094726562 154.200195312 468.094726562 c 2
300.426757812 468.094726562 m 2
 242.79296875 468.094726562 l 2
 237.8828125 468.094726562 233.90234375 472.075195312 233.90234375 476.985351562 c 2
 233.90234375 528.880859375 l 2
 233.90234375 533.791015625 237.8828125 537.771484375 242.79296875 537.771484375 c 2
 300.426757812 537.771484375 l 2
 305.336914062 537.771484375 309.317382812 533.791015625 309.317382812 528.880859375 c 2
 309.317382812 476.985351562 l 2
 309.317382812 472.075195312 305.336914062 468.094726562 300.426757812 468.094726562 c 2
EndSplineSet
EndChar

StartChar: eth
Encoding: 240 240 172
Width: 440
GlyphClass: 1
Flags: W
LayerCount: 2
Fore
SplineSet
319.5703125 387.469726562 m 1
 319.5703125 387.41015625 l 1
 346.05078125 349.700195312 397.12109375 289.110351562 397.12109375 181.530273438 c 0
 397.12109375 73.9599609375 342.271484375 -11.2900390625 220.19140625 -11.2900390625 c 0
 98.111328125 -11.2900390625 42.880859375 69.8603515625 42.880859375 190.040039062 c 0
 42.880859375 310.23046875 113.180664062 387.41015625 249.700195312 377.379882812 c 1
 238.790039062 393.83984375 196.73046875 439.370117188 196.73046875 439.370117188 c 1
 93.890625 407.58984375 l 1
 82.470703125 441.639648438 l 1
 170.250976562 468.879882812 l 1
 102.970703125 538.490234375 l 1
 183.930664062 538.490234375 l 1
 230.850585938 488.549804688 l 1
 337.41015625 521.08984375 l 1
 349.520507812 487.040039062 l 1
 257.200195312 459.099609375 l 1
 257.200195312 459.099609375 293.080078125 425.239257812 319.5703125 387.469726562 c 1
220.190429688 42.4296875 m 1
 220.188476562 42.4892578125 l 1
 274.978515625 42.4892578125 325.298828125 82.3388671875 325.298828125 183.108398438 c 0
 325.298828125 268.73828125 285.19921875 316.978515625 285.19921875 316.978515625 c 1
 285.19921875 316.978515625 267.359375 326.178710938 216.719726562 326.178710938 c 0
 166.08984375 326.178710938 115.0703125 288.2890625 115.0703125 183.859375 c 0
 115.0703125 79.439453125 165.390625 42.4296875 220.190429688 42.4296875 c 1
EndSplineSet
EndChar

StartChar: ntilde
Encoding: 241 241 173
Width: 440
GlyphClass: 1
Flags: W
LayerCount: 2
Fore
SplineSet
169.4609375 500.228515625 m 1
 169.525390625 500.227539062 l 1
 149.221679688 500.227539062 144.05078125 472.735351562 144.05078125 446.251953125 c 1
 98.650390625 446.251953125 l 1
 98.650390625 499.471679688 118.891601562 543.799804688 172.299804688 543.799804688 c 0
 219.78125 543.799804688 236.932617188 490.833007812 270.037109375 490.833007812 c 0
 297.529296875 490.833007812 295.258789062 543.799804688 295.258789062 543.799804688 c 1
 341.352539062 543.799804688 l 1
 341.352539062 511.830078125 331.579101562 446.251953125 271.612304688 446.251953125 c 0
 211.645507812 446.251953125 205.717773438 500.228515625 169.4609375 500.228515625 c 1
253.516601562 400.977539062 m 1
 253.454101562 400.977539062 l 1
 320.671875 400.977539062 377.80078125 348.388671875 377.80078125 255.758789062 c 2
 377.80078125 0.0029296875 l 1
 310.45703125 0.0029296875 l 1
 310.45703125 249.642578125 l 2
 310.45703125 310.302734375 282.838867188 342.587890625 233.33984375 342.587890625 c 0
 172.931640625 342.587890625 130.495117188 303.997070312 130.495117188 222.907226562 c 2
 130.495117188 0.00390625 l 1
 62.205078125 0.00390625 l 1
 62.205078125 388.493164062 l 1
 126.143554688 388.493164062 l 1
 130.494140625 341.263671875 l 1
 151.680664062 375.692382812 189.073242188 400.977539062 253.516601562 400.977539062 c 1
EndSplineSet
EndChar

StartChar: ograve
Encoding: 242 242 174
Width: 440
GlyphClass: 1
Flags: W
LayerCount: 2
Fore
SplineSet
220 397.005859375 m 0
 326.817382812 397.005859375 396.999023438 333.319335938 396.999023438 192.893554688 c 0
 396.999023438 52.4677734375 332.05078125 -11.21875 220 -11.21875 c 0
 107.94921875 -11.21875 43.0009765625 52.4677734375 43.0009765625 192.893554688 c 0
 43.0009765625 333.319335938 113.182617188 397.005859375 220 397.005859375 c 0
220 41.6845703125 m 0
 275.741210938 41.6845703125 323.791992188 78.8876953125 323.791992188 193.4609375 c 0
 323.791992188 308.034179688 272.211914062 343.030273438 220.000976562 343.030273438 c 0
 167.790039062 343.030273438 116.209960938 308.034179688 116.209960938 193.4609375 c 0
 116.209960938 78.8876953125 164.258789062 41.6845703125 220 41.6845703125 c 0
271.392578125 450.225585938 m 1
 214.705078125 450.225585938 l 1
 96.033203125 580.94140625 l 1
 168.611328125 580.94140625 l 1
 271.392578125 450.225585938 l 1
EndSplineSet
EndChar

StartChar: oacute
Encoding: 243 243 175
Width: 440
GlyphClass: 1
Flags: W
LayerCount: 2
Fore
SplineSet
220 397.005859375 m 0
 326.817382812 397.005859375 396.999023438 333.319335938 396.999023438 192.893554688 c 0
 396.999023438 52.4677734375 332.05078125 -11.21875 220 -11.21875 c 0
 107.94921875 -11.21875 43.0009765625 52.4677734375 43.0009765625 192.893554688 c 0
 43.0009765625 333.319335938 113.182617188 397.005859375 220 397.005859375 c 0
220 41.6845703125 m 0
 275.741210938 41.6845703125 323.791992188 78.8876953125 323.791992188 193.4609375 c 0
 323.791992188 308.034179688 272.211914062 343.030273438 220.000976562 343.030273438 c 0
 167.790039062 343.030273438 116.209960938 308.034179688 116.209960938 193.4609375 c 0
 116.209960938 78.8876953125 164.258789062 41.6845703125 220 41.6845703125 c 0
342.331054688 580.940429688 m 1
 223.66015625 450.224609375 l 1
 166.97265625 450.224609375 l 1
 269.75390625 580.940429688 l 1
 342.331054688 580.940429688 l 1
EndSplineSet
EndChar

StartChar: ocircumflex
Encoding: 244 244 176
Width: 440
GlyphClass: 1
Flags: W
LayerCount: 2
Fore
SplineSet
220 397.005859375 m 0
 326.817382812 397.005859375 396.999023438 333.319335938 396.999023438 192.893554688 c 0
 396.999023438 52.4677734375 332.05078125 -11.21875 220 -11.21875 c 0
 107.94921875 -11.21875 43.0009765625 52.4677734375 43.0009765625 192.893554688 c 0
 43.0009765625 333.319335938 113.182617188 397.005859375 220 397.005859375 c 0
220 41.6845703125 m 0
 275.741210938 41.6845703125 323.791992188 78.8876953125 323.791992188 193.4609375 c 0
 323.791992188 308.034179688 272.211914062 343.030273438 220.000976562 343.030273438 c 0
 167.790039062 343.030273438 116.209960938 308.034179688 116.209960938 193.4609375 c 0
 116.209960938 78.8876953125 164.258789062 41.6845703125 220 41.6845703125 c 0
220.001953125 538.125976562 m 1
 153.540039062 450.225585938 l 1
 101.897460938 450.225585938 l 1
 191.689453125 580.94140625 l 1
 248.376953125 580.94140625 l 1
 338.10546875 450.225585938 l 1
 286.462890625 450.225585938 l 1
 220.001953125 538.125976562 l 1
EndSplineSet
EndChar

StartChar: otilde
Encoding: 245 245 177
Width: 440
GlyphClass: 1
Flags: W
LayerCount: 2
Fore
SplineSet
220 397.005859375 m 0
 326.817382812 397.005859375 396.999023438 333.319335938 396.999023438 192.893554688 c 0
 396.999023438 52.4677734375 332.05078125 -11.21875 220 -11.21875 c 0
 107.94921875 -11.21875 43.0009765625 52.4677734375 43.0009765625 192.893554688 c 0
 43.0009765625 333.319335938 113.182617188 397.005859375 220 397.005859375 c 0
220 41.6845703125 m 0
 275.741210938 41.6845703125 323.791992188 78.8876953125 323.791992188 193.4609375 c 0
 323.791992188 308.034179688 272.211914062 343.030273438 220.000976562 343.030273438 c 0
 167.790039062 343.030273438 116.209960938 308.034179688 116.209960938 193.4609375 c 0
 116.209960938 78.8876953125 164.258789062 41.6845703125 220 41.6845703125 c 0
169.115234375 500.228515625 m 1
 169.2421875 500.227539062 l 1
 148.938476562 500.227539062 143.767578125 472.735351562 143.767578125 446.251953125 c 1
 98.3671875 446.251953125 l 1
 98.3671875 499.471679688 118.608398438 543.799804688 172.016601562 543.799804688 c 0
 219.498046875 543.799804688 236.649414062 490.833007812 269.75390625 490.833007812 c 0
 297.24609375 490.833007812 294.9765625 543.799804688 294.9765625 543.799804688 c 1
 341.0703125 543.799804688 l 1
 341.0703125 511.830078125 331.233398438 446.251953125 271.266601562 446.251953125 c 0
 211.299804688 446.251953125 205.372070312 500.228515625 169.115234375 500.228515625 c 1
EndSplineSet
EndChar

StartChar: odieresis
Encoding: 246 246 178
Width: 440
GlyphClass: 1
Flags: W
LayerCount: 2
Fore
SplineSet
220 397.033203125 m 0
 326.817382812 397.033203125 396.999023438 333.346679688 396.999023438 192.920898438 c 0
 396.999023438 52.4951171875 332.05078125 -11.19140625 220 -11.19140625 c 0
 107.94921875 -11.19140625 43.0009765625 52.4951171875 43.0009765625 192.920898438 c 0
 43.0009765625 333.346679688 113.182617188 397.033203125 220 397.033203125 c 0
220 41.7119140625 m 0
 275.741210938 41.7119140625 323.791992188 78.9150390625 323.791992188 193.48828125 c 0
 323.791992188 308.061523438 272.211914062 343.057617188 220.000976562 343.057617188 c 0
 167.790039062 343.057617188 116.209960938 308.061523438 116.209960938 193.48828125 c 0
 116.209960938 78.9150390625 164.258789062 41.7119140625 220 41.7119140625 c 0
175.736328125 468.09765625 m 2
 118.102539062 468.09765625 l 2
 113.192382812 468.09765625 109.211914062 472.078125 109.211914062 476.98828125 c 2
 109.211914062 528.883789062 l 2
 109.211914062 533.793945312 113.192382812 537.774414062 118.102539062 537.774414062 c 2
 175.736328125 537.774414062 l 2
 180.646484375 537.774414062 184.626953125 533.793945312 184.626953125 528.883789062 c 2
 184.626953125 476.98828125 l 2
 184.626953125 472.078125 180.646484375 468.09765625 175.736328125 468.09765625 c 2
321.900390625 468.09765625 m 2
 264.266601562 468.09765625 l 2
 259.356445312 468.09765625 255.375976562 472.078125 255.375976562 476.98828125 c 2
 255.375976562 528.883789062 l 2
 255.375976562 533.793945312 259.356445312 537.774414062 264.266601562 537.774414062 c 2
 321.900390625 537.774414062 l 2
 326.810546875 537.774414062 330.791015625 533.793945312 330.791015625 528.883789062 c 2
 330.791015625 476.98828125 l 2
 330.791015625 472.078125 326.810546875 468.09765625 321.900390625 468.09765625 c 2
EndSplineSet
EndChar

StartChar: divide
Encoding: 247 247 179
Width: 440
GlyphClass: 1
Flags: W
LayerCount: 2
Fore
SplineSet
254.33984375 49.9208984375 m 2
 184.032226562 49.9208984375 l 2
 178.077148438 49.9208984375 173.25 54.748046875 173.25 60.703125 c 2
 173.25 124.01171875 l 2
 173.25 129.966796875 178.077148438 134.793945312 184.032226562 134.793945312 c 2
 254.33984375 134.793945312 l 2
 260.294921875 134.793945312 265.122070312 129.966796875 265.122070312 124.01171875 c 2
 265.122070312 60.703125 l 2
 265.122070312 54.748046875 260.294921875 49.9208984375 254.33984375 49.9208984375 c 2
254.33984375 307.000976562 m 2
 184.032226562 307.000976562 l 2
 178.077148438 307.000976562 173.25 311.828125 173.25 317.783203125 c 2
 173.25 381.091796875 l 2
 173.25 387.046875 178.077148438 391.874023438 184.032226562 391.874023438 c 2
 254.33984375 391.874023438 l 2
 260.294921875 391.874023438 265.122070312 387.046875 265.122070312 381.091796875 c 2
 265.122070312 317.783203125 l 2
 265.122070312 311.828125 260.294921875 307.000976562 254.33984375 307.000976562 c 2
414.69140625 192.365234375 m 1
 24.5 192.365234375 l 1
 24.5 251.385742188 l 1
 414.69140625 251.385742188 l 1
 414.69140625 192.365234375 l 1
EndSplineSet
EndChar

StartChar: oslash
Encoding: 248 248 180
Width: 440
GlyphClass: 1
Flags: W
LayerCount: 2
Fore
SplineSet
427.927734375 394.861328125 m 1
 427.927734375 394.797851562 l 1
 367.141601562 326.633789062 l 1
 387.760742188 294.16015625 399.615234375 250.651367188 399.615234375 194.153320312 c 0
 399.615234375 53.853515625 334.478515625 -9.7705078125 222.112304688 -9.7705078125 c 0
 172.235351562 -9.7705078125 132.2578125 3.59765625 102.55859375 29.8291015625 c 1
 46.1865234375 -33.416015625 l 1
 12.0732421875 -6.7431640625 l 1
 74.4990234375 63.3125 l 1
 55.2041015625 95.66015625 44.673828125 138.727539062 44.673828125 194.216796875 c 0
 44.673828125 334.516601562 115.107421875 398.140625 222.176757812 398.140625 c 0
 269.153320312 398.140625 308.5 385.087890625 338.514648438 359.487304688 c 1
 393.814453125 421.534179688 l 1
 427.927734375 394.861328125 l 1
118.069335938 194.784179688 m 1
 118.131835938 194.784179688 l 1
 118.131835938 165.71484375 121.284179688 141.690429688 126.833007812 121.954101562 c 1
 295.00390625 310.681640625 l 1
 275.393554688 334.895507812 248.91015625 344.227539062 222.174804688 344.227539062 c 0
 169.775390625 344.227539062 118.069335938 309.231445312 118.069335938 194.784179688 c 1
222.174804688 43.1337890625 m 0
 278.10546875 43.1337890625 326.280273438 80.3369140625 326.280273438 194.784179688 c 0
 326.280273438 225.05078125 322.497070312 249.453125 316.19140625 269.442382812 c 1
 146.948242188 79.580078125 l 1
 166.180664062 53.6640625 193.04296875 43.1337890625 222.174804688 43.1337890625 c 0
EndSplineSet
EndChar

StartChar: ugrave
Encoding: 249 249 181
Width: 440
GlyphClass: 1
Flags: W
LayerCount: 2
Fore
SplineSet
309.5078125 388.998046875 m 1
 377.544921875 388.999023438 l 1
 378.301757812 1.0146484375 l 1
 314.8046875 1.0146484375 l 1
 308.5625 58.26953125 l 1
 308.5625 58.26953125 274.133789062 -9.3896484375 199.979492188 -9.3896484375 c 0
 95.306640625 -9.3896484375 61.697265625 37.90234375 61.697265625 145.09765625 c 2
 61.697265625 388.999023438 l 1
 128.978515625 388.999023438 l 1
 128.978515625 148.502929688 l 2
 128.978515625 81.4111328125 150.795898438 45.46875 209.500976562 45.46875 c 0
 268.206054688 45.46875 307.048828125 86.0771484375 307.048828125 154.303710938 c 0
 307.048828125 255.4453125 309.5078125 388.998046875 309.5078125 388.998046875 c 1
268.520507812 440.200195312 m 1
 211.770507812 440.200195312 l 1
 93.162109375 570.916015625 l 1
 165.739257812 570.916015625 l 1
 268.520507812 440.200195312 l 1
EndSplineSet
EndChar

StartChar: uacute
Encoding: 250 250 182
Width: 440
GlyphClass: 1
Flags: W
LayerCount: 2
Fore
SplineSet
309.5078125 388.998046875 m 1
 377.544921875 388.999023438 l 1
 378.301757812 1.0146484375 l 1
 314.8046875 1.0146484375 l 1
 308.5625 58.26953125 l 1
 308.5625 58.26953125 274.133789062 -9.3896484375 199.979492188 -9.3896484375 c 0
 95.306640625 -9.3896484375 61.697265625 37.90234375 61.697265625 145.09765625 c 2
 61.697265625 388.999023438 l 1
 128.978515625 388.999023438 l 1
 128.978515625 148.502929688 l 2
 128.978515625 81.4111328125 150.795898438 45.46875 209.500976562 45.46875 c 0
 268.206054688 45.46875 307.048828125 86.0771484375 307.048828125 154.303710938 c 0
 307.048828125 255.4453125 309.5078125 388.998046875 309.5078125 388.998046875 c 1
339.081054688 570.916015625 m 1
 220.409179688 440.200195312 l 1
 163.721679688 440.200195312 l 1
 266.440429688 570.916015625 l 1
 339.081054688 570.916015625 l 1
EndSplineSet
EndChar

StartChar: ucircumflex
Encoding: 251 251 183
Width: 440
GlyphClass: 1
Flags: W
LayerCount: 2
Fore
SplineSet
377.577148438 388.998046875 m 1
 378.333984375 1.0146484375 l 1
 314.836914062 1.0146484375 l 1
 308.594726562 58.26953125 l 1
 308.594726562 58.26953125 274.166015625 -9.3896484375 200.01171875 -9.3896484375 c 0
 95.275390625 -9.3896484375 61.666015625 37.90234375 61.666015625 145.09765625 c 2
 61.666015625 388.999023438 l 1
 128.883789062 388.999023438 l 1
 128.883789062 148.502929688 l 2
 128.883789062 81.4111328125 150.701171875 45.46875 209.40625 45.46875 c 0
 268.111328125 45.46875 306.954101562 86.0771484375 306.954101562 154.303710938 c 0
 306.954101562 255.4453125 309.4765625 388.998046875 309.4765625 388.998046875 c 1
 377.577148438 388.998046875 l 1
220 538.126953125 m 1
 153.538085938 450.2265625 l 1
 101.895507812 450.2265625 l 1
 191.6875 580.942382812 l 1
 248.311523438 580.942382812 l 1
 338.103515625 450.2265625 l 1
 286.4609375 450.2265625 l 1
 220 538.126953125 l 1
EndSplineSet
EndChar

StartChar: udieresis
Encoding: 252 252 184
Width: 440
GlyphClass: 1
Flags: W
LayerCount: 2
Fore
SplineSet
309.540039062 388.998046875 m 1
 377.577148438 388.999023438 l 1
 378.333984375 1.0146484375 l 1
 314.836914062 1.0146484375 l 1
 308.594726562 58.26953125 l 1
 308.594726562 58.26953125 274.166015625 -9.3896484375 200.01171875 -9.3896484375 c 0
 95.275390625 -9.3896484375 61.666015625 37.90234375 61.666015625 145.09765625 c 2
 61.666015625 388.999023438 l 1
 128.947265625 388.999023438 l 1
 128.947265625 148.502929688 l 2
 128.947265625 81.4111328125 150.764648438 45.46875 209.469726562 45.46875 c 0
 268.174804688 45.46875 307.017578125 86.0771484375 307.017578125 154.303710938 c 0
 307.017578125 255.4453125 309.540039062 388.998046875 309.540039062 388.998046875 c 1
172.896484375 469.080078125 m 2
 115.262695312 469.080078125 l 2
 110.352539062 469.080078125 106.372070312 473.060546875 106.372070312 477.970703125 c 2
 106.372070312 529.866210938 l 2
 106.372070312 534.776367188 110.352539062 538.756835938 115.262695312 538.756835938 c 2
 172.896484375 538.756835938 l 2
 177.806640625 538.756835938 181.787109375 534.776367188 181.787109375 529.866210938 c 2
 181.787109375 477.970703125 l 2
 181.787109375 473.060546875 177.806640625 469.080078125 172.896484375 469.080078125 c 2
319.123046875 469.080078125 m 2
 261.489257812 469.080078125 l 2
 256.579101562 469.080078125 252.598632812 473.060546875 252.598632812 477.970703125 c 2
 252.598632812 529.866210938 l 2
 252.598632812 534.776367188 256.579101562 538.756835938 261.489257812 538.756835938 c 2
 319.123046875 538.756835938 l 2
 324.033203125 538.756835938 328.013671875 534.776367188 328.013671875 529.866210938 c 2
 328.013671875 477.970703125 l 2
 328.013671875 473.060546875 324.033203125 469.080078125 319.123046875 469.080078125 c 2
EndSplineSet
EndChar

StartChar: yacute
Encoding: 253 253 185
Width: 440
GlyphClass: 1
Flags: W
LayerCount: 2
Fore
SplineSet
325.80859375 570.915039062 m 1
 207.19921875 440.19921875 l 1
 150.51171875 440.19921875 l 1
 253.23046875 570.915039062 l 1
 325.80859375 570.915039062 l 1
341.760742188 388.80859375 m 1
 413.58203125 388.807617188 l 1
 413.58203125 388.807617188 273.786132812 52.087890625 234.565429688 -45.9013671875 c 0
 195.344726562 -143.890625 147.232421875 -148.115234375 110.28125 -148.115234375 c 2
 55.8642578125 -148.115234375 l 1
 55.8642578125 -94.3916015625 l 1
 55.8642578125 -94.3916015625 72.4482421875 -93.7607421875 101.83203125 -94.0126953125 c 0
 143.133789062 -94.390625 160.600585938 -55.232421875 174.157226562 -22.6953125 c 0
 181.282226562 -5.669921875 185.948242188 6.12109375 185.948242188 6.12109375 c 1
 26.416015625 388.80859375 l 1
 98.2373046875 388.80859375 l 1
 220.755859375 84.814453125 l 1
 341.760742188 388.80859375 l 1
EndSplineSet
EndChar

StartChar: thorn
Encoding: 254 254 186
Width: 440
GlyphClass: 1
Flags: W
LayerCount: 2
Fore
SplineSet
217.666992188 397.025390625 m 1
 217.666992188 396.9609375 l 1
 321.268554688 396.9609375 389.369140625 333.274414062 389.369140625 192.848632812 c 0
 389.369140625 52.4228515625 326.375976562 -11.263671875 217.666992188 -11.263671875 c 0
 174.725585938 -11.263671875 140.548828125 10.17578125 118.66796875 53.6845703125 c 1
 118.66796875 -148.158203125 l 1
 50.630859375 -148.158203125 l 1
 50.630859375 543.8203125 l 1
 118.66796875 543.8203125 l 1
 118.66796875 335.545898438 l 1
 139.791992188 376.721679688 172.959960938 397.025390625 217.666992188 397.025390625 c 1
218.486328125 41.7021484375 m 0
 272.083984375 41.7021484375 318.305664062 78.9052734375 318.305664062 193.478515625 c 0
 318.305664062 308.051757812 268.743164062 343.047851562 218.487304688 343.047851562 c 0
 168.231445312 343.047851562 118.668945312 308.051757812 118.668945312 193.478515625 c 0
 118.668945312 78.9052734375 164.888671875 41.7021484375 218.486328125 41.7021484375 c 0
EndSplineSet
EndChar

StartChar: ydieresis
Encoding: 255 255 187
Width: 440
GlyphClass: 1
Flags: W
LayerCount: 2
Fore
SplineSet
174.915039062 459.073242188 m 2
 117.28125 459.073242188 l 2
 112.37109375 459.073242188 108.390625 463.053710938 108.390625 467.963867188 c 2
 108.390625 519.859375 l 2
 108.390625 524.76953125 112.37109375 528.75 117.28125 528.75 c 2
 174.915039062 528.75 l 2
 179.825195312 528.75 183.805664062 524.76953125 183.805664062 519.859375 c 2
 183.805664062 467.963867188 l 2
 183.805664062 463.053710938 179.825195312 459.073242188 174.915039062 459.073242188 c 2
321.141601562 459.073242188 m 2
 263.5078125 459.073242188 l 2
 258.59765625 459.073242188 254.6171875 463.053710938 254.6171875 467.963867188 c 2
 254.6171875 519.859375 l 2
 254.6171875 524.76953125 258.59765625 528.75 263.5078125 528.75 c 2
 321.141601562 528.75 l 2
 326.051757812 528.75 330.032226562 524.76953125 330.032226562 519.859375 c 2
 330.032226562 467.963867188 l 2
 330.032226562 463.053710938 326.051757812 459.073242188 321.141601562 459.073242188 c 2
341.760742188 388.829101562 m 1
 413.58203125 388.827148438 l 1
 413.58203125 388.827148438 273.786132812 52.107421875 234.565429688 -45.8818359375 c 0
 195.344726562 -143.87109375 147.232421875 -148.095703125 110.28125 -148.095703125 c 2
 55.8642578125 -148.095703125 l 1
 55.8642578125 -94.3720703125 l 1
 55.8642578125 -94.3720703125 72.4482421875 -93.7412109375 101.83203125 -93.9931640625 c 0
 143.133789062 -94.37109375 160.600585938 -55.212890625 174.157226562 -22.67578125 c 0
 181.282226562 -5.650390625 185.948242188 6.1416015625 185.948242188 6.1416015625 c 1
 26.416015625 388.829101562 l 1
 98.2373046875 388.829101562 l 1
 220.755859375 84.8349609375 l 1
 341.760742188 388.829101562 l 1
EndSplineSet
EndChar

StartChar: amacron
Encoding: 257 257 188
Width: 440
GlyphClass: 1
Flags: W
LayerCount: 2
Fore
SplineSet
382.401367188 226.395507812 m 2
 382.400390625 110.0546875 l 2
 382.400390625 54.3134765625 401.884765625 0.0224609375 401.884765625 0.0224609375 c 1
 333.784179688 0.0224609375 l 1
 333.784179688 0.0224609375 324.514648438 21.7138671875 317.95703125 59.1064453125 c 1
 289.266601562 13.76953125 230.056640625 -10.12890625 182.575195312 -10.12890625 c 0
 98.8994140625 -10.12890625 38.11328125 31.740234375 38.11328125 114.154296875 c 0
 38.11328125 194.866210938 95.873046875 246.194335938 219.841796875 246.194335938 c 0
 272.3046875 246.194335938 311.525390625 245.942382812 311.525390625 245.942382812 c 1
 311.525390625 266.120117188 324.578125 344.247070312 213.220703125 344.247070312 c 0
 127.842773438 344.247070312 71.029296875 307.169921875 71.029296875 307.169921875 c 1
 71.029296875 370.2890625 l 1
 107.791015625 382.900390625 148.399414062 400.051757812 214.23046875 400.051757812 c 0
 309.508789062 400.051757812 382.401367188 359.19140625 382.401367188 226.395507812 c 2
188.439453125 42.962890625 m 0
 289.959960938 42.962890625 315.30859375 131.052734375 312.029296875 194.928710938 c 0
 311.461914062 194.9921875 242.856445312 195.811523438 217.94921875 194.928710938 c 0
 144.173828125 192.280273438 105.8359375 178.596679688 105.8359375 116.549804688 c 0
 105.8359375 61.8798828125 153.569335938 42.962890625 188.439453125 42.962890625 c 0
326.78515625 468.213867188 m 1
 105.962890625 468.213867188 l 1
 105.962890625 519.604492188 l 1
 326.78515625 519.604492188 l 1
 326.78515625 468.213867188 l 1
EndSplineSet
EndChar

StartChar: ellipsis
Encoding: 8230 8230 189
Width: 440
GlyphClass: 1
Flags: W
LayerCount: 2
Fore
SplineSet
406.079101562 105.255859375 m 2
 412.700195312 105.255859375 418.059570312 99.70703125 418.059570312 92.8974609375 c 2
 418.059570312 12.375 l 2
 418.059570312 5.564453125 412.700195312 0.015625 406.079101562 0.015625 c 2
 335.897460938 0.015625 l 2
 329.276367188 0.015625 323.916992188 5.564453125 323.916992188 12.3740234375 c 2
 323.916992188 92.896484375 l 2
 323.916992188 99.70703125 329.276367188 105.255859375 335.897460938 105.255859375 c 2
 406.079101562 105.255859375 l 2
254.870117188 105.255859375 m 2
 261.491210938 105.255859375 266.850585938 99.70703125 266.850585938 92.8974609375 c 2
 266.850585938 12.375 l 2
 266.850585938 5.564453125 261.491210938 0.015625 254.870117188 0.015625 c 2
 184.688476562 0.015625 l 2
 178.067382812 0.015625 172.708007812 5.564453125 172.708007812 12.3740234375 c 2
 172.708007812 92.896484375 l 2
 172.708007812 99.70703125 178.067382812 105.255859375 184.688476562 105.255859375 c 2
 254.870117188 105.255859375 l 2
103.661132812 105.255859375 m 2
 110.282226562 105.255859375 115.641601562 99.70703125 115.641601562 92.8974609375 c 2
 115.641601562 12.375 l 2
 115.641601562 5.564453125 110.282226562 0.015625 103.661132812 0.015625 c 2
 33.4794921875 0.015625 l 2
 26.8583984375 0.015625 21.4990234375 5.564453125 21.4990234375 12.3740234375 c 2
 21.4990234375 92.896484375 l 2
 21.4990234375 99.70703125 26.8583984375 105.255859375 33.4794921875 105.255859375 c 2
 103.661132812 105.255859375 l 2
EndSplineSet
EndChar

StartChar: Euro
Encoding: 8364 8364 190
Width: 440
GlyphClass: 1
Flags: W
LayerCount: 2
Fore
SplineSet
300.059570312 475.610351562 m 0
 245.829101562 475.610351562 186.689453125 451.899414062 170.349609375 332.409179688 c 1
 347.599609375 332.409179688 l 1
 329.69921875 295.579101562 l 1
 167.329101562 295.579101562 l 1
 166.69921875 284.609375 165.619140625 274.649414062 165.619140625 262.349609375 c 0
 165.619140625 250.809570312 165.87890625 239.969726562 166.438476562 229.689453125 c 1
 298.478515625 229.689453125 l 1
 280.578125 192.859375 l 1
 169.978515625 192.859375 l 1
 186.368164062 69.6494140625 247.978515625 49.5390625 300.568359375 49.5390625 c 0
 319.038085938 49.5390625 367.587890625 57.1689453125 408.637695312 93.109375 c 1
 408.637695312 22.1689453125 l 1
 375.288085938 1.9287109375 337.448242188 -6.271484375 300.748046875 -6.271484375 c 0
 180.5078125 -6.271484375 113.727539062 69.458984375 96.0078125 192.859375 c 1
 30.998046875 192.859375 l 1
 48.908203125 229.689453125 l 1
 92.6083984375 229.689453125 l 1
 91.908203125 240.849609375 90.7783203125 251.569335938 90.7783203125 263.299804688 c 0
 90.7783203125 274.580078125 91.908203125 284.860351562 92.6083984375 295.580078125 c 1
 30.998046875 295.580078125 l 1
 48.908203125 332.41015625 l 1
 96.068359375 332.41015625 l 1
 114.228515625 456.310546875 183.028320312 531.541015625 296.46875 531.541015625 c 0
 335.178710938 531.541015625 374.3984375 523.470703125 408.638671875 502.970703125 c 1
 408.638671875 431.400390625 l 1
 367.338867188 467.790039062 318.279296875 475.610351562 300.059570312 475.610351562 c 0
EndSplineSet
EndChar

StartChar: unie912
Encoding: 59666 59666 191
Width: 440
GlyphClass: 1
Flags: W
LayerCount: 2
Fore
SplineSet
415.196289062 299.5703125 m 1
 415.1953125 129.129882812 l 1
 352.70703125 129.129882812 l 1
 353.211914062 240.61328125 l 1
 24.5 240.61328125 l 1
 24.5 299.5703125 l 1
 415.196289062 299.5703125 l 1
EndSplineSet
EndChar
